<?xml version="1.0" encoding="utf-8"?>
<!-- Generator: Adobe Illustrator 24.1.0, SVG Export Plug-In . SVG Version: 6.00 Build 0)  -->
<svg version="1.1" xmlns="http://www.w3.org/2000/svg" xmlns:xlink="http://www.w3.org/1999/xlink" x="0px" y="0px"
	 viewBox="0 0 177.58 39.53" style="enable-background:new 0 0 177.58 39.53;" xml:space="preserve">
<style type="text/css">
	.st0{display:none;}
	.st1{display:inline;}
	.st2{fill:#FFFFFF;}
	.st3{fill:#F0C61C;}
	.st4{fill:none;stroke:#9075B4;stroke-width:1.656;stroke-linecap:round;stroke-miterlimit:10;}
	.st5{fill:#231F20;}
	.st6{fill:#5A3A95;}
	.st7{fill:none;stroke:#5A3A95;stroke-width:1.656;stroke-linecap:round;stroke-miterlimit:10;}
</style>
<g id="Layer_1" class="st0">
	<g class="st1">
		<g>
			<g>
				<g>
					<g>
						<g>
							<path class="st2" d="M100.9,7.82l-0.12,1.43h-0.58c-0.93,0-1.42,0.75-1.42,1.47v3.23h-1.65V7.82h1.57l0.04,0.77
								c0.33-0.52,0.9-0.77,1.61-0.77H100.9z"/>
							<path class="st2" d="M89.42,13.95h-1.66v-3.24c0-0.68-0.06-1.53-1.01-1.53c-0.92,0-1.29,0.66-1.29,1.44v3.34h-1.66V7.82h1.54
								l0.04,0.78c0.33-0.52,0.94-0.93,1.85-0.93c1.67,0,2.2,1.19,2.2,2.43V13.95z"/>
							<path class="st2" d="M83.09,12.52l-0.12,1.4c-0.4,0.11-0.75,0.14-1.18,0.14c-1.56,0-2.01-0.72-2.01-2.15V6.09h1.66v1.73h1.65
								l-0.11,1.43h-1.53v2.53c0,0.58,0.16,0.89,0.75,0.89C82.45,12.67,82.74,12.64,83.09,12.52z"/>
							<path class="st2" d="M79.24,7.82l-0.13,1.43h-0.45c-0.93,0-1.4,0.75-1.4,1.47v3.23h-1.66V7.82h1.57l0.03,0.77
								c0.33-0.52,0.91-0.77,1.62-0.77H79.24z"/>
							<path class="st2" d="M68.14,13.27c-1.12,0.6-2.25,0.95-3.73,0.9c-2.75-0.08-4.73-1.79-4.73-4.67c0-2.87,2-4.7,4.73-4.75
								C65.8,4.74,67.04,5.09,68,5.94l-1.17,1.18c-0.6-0.51-1.48-0.81-2.53-0.76c-1.72,0.08-2.75,1.33-2.78,3.04
								c-0.02,1.86,1.12,3.14,2.9,3.19c0.84,0.02,1.44-0.09,1.96-0.33v-1.9h-1.85l0.13-1.56h3.48V13.27z"/>
							<path class="st2" d="M96.38,11.47h-4.54c0.13,0.78,0.75,1.25,1.51,1.28c0.74,0.02,1.16-0.21,1.71-0.76l1.08,0.82
								c-0.77,0.95-1.69,1.29-2.74,1.29c-1.85,0-3.23-1.29-3.23-3.22c0-1.92,1.38-3.22,3.16-3.22c1.97,0,3.05,1.19,3.05,3.31V11.47z
								 M94.72,10.19c-0.05-0.77-0.63-1.26-1.43-1.23c-0.8,0.03-1.34,0.55-1.45,1.23H94.72z"/>
							<path class="st2" d="M74.57,9.94v4.02h-1.46l-0.04-0.6c-0.45,0.56-1.18,0.75-1.92,0.75c-1.13,0-2.19-0.56-2.22-1.85
								c-0.03-2.04,2.29-2.18,3.75-2.18h0.29V9.99c0-0.67-0.45-1.04-1.28-1.04c-0.6,0-1.2,0.24-1.64,0.65L69.1,8.64
								c0.87-0.7,1.77-0.97,2.73-0.97C73.73,7.67,74.57,8.55,74.57,9.94z M72.98,11.28h-0.23c-0.78,0-2.16,0.04-2.16,0.86
								c0.01,1.15,2.39,0.79,2.39-0.61V11.28z"/>
						</g>
					</g>
					<g>
						<g>
							<g>
								<g>
									<path class="st2" d="M59.36,23.23h1.7v1.4h0.04c0.56-1.14,1.88-1.64,3.3-1.64c3.18,0,4.76,2.52,4.76,5.44
										c0,2.92-1.56,5.38-4.72,5.38c-1.06,0-2.58-0.4-3.34-1.62h-0.04v5.34h-1.7V23.23z M64.16,24.49c-2.28,0-3.16,1.96-3.16,3.9
										c0,2.04,0.92,3.92,3.26,3.92c2.32,0,3.1-1.98,3.1-4C67.36,26.37,66.36,24.49,64.16,24.49z"/>
								</g>
							</g>
							<g>
								<g>
									<path class="st2" d="M79.98,30.29c-0.46,2.28-2.1,3.52-4.42,3.52c-3.3,0-4.86-2.28-4.96-5.44c0-3.1,2.04-5.38,4.86-5.38
										c3.66,0,4.78,3.42,4.68,5.92H72.4c-0.06,1.8,0.96,3.4,3.22,3.4c1.4,0,2.38-0.68,2.68-2.02H79.98z M78.34,27.41
										c-0.08-1.62-1.3-2.92-2.98-2.92c-1.78,0-2.84,1.34-2.96,2.92H78.34z"/>
								</g>
							</g>
							<g>
								<g>
									<path class="st2" d="M91.52,30.29c-0.46,2.28-2.1,3.52-4.42,3.52c-3.3,0-4.86-2.28-4.96-5.44c0-3.1,2.04-5.38,4.86-5.38
										c3.66,0,4.78,3.42,4.68,5.92h-7.74c-0.06,1.8,0.96,3.4,3.22,3.4c1.4,0,2.38-0.68,2.68-2.02H91.52z M89.88,27.41
										c-0.08-1.62-1.3-2.92-2.98-2.92c-1.78,0-2.84,1.34-2.96,2.92H89.88z"/>
								</g>
							</g>
							<g>
								<g>
									<path class="st2" d="M94.18,23.23h1.6v2.18h0.04c0.82-1.66,1.96-2.48,3.8-2.42v1.8c-2.74,0-3.74,1.56-3.74,4.18v4.6h-1.7
										V23.23z"/>
								</g>
							</g>
							<g>
								<g>
									<path class="st3" d="M102.92,21.35v-2.06h0.76v2.06H102.92z M102.92,33.57V23.29h0.76v10.28H102.92z"/>
								</g>
							</g>
							<g>
								<g>
									<path class="st3" d="M107.09,23.29h0.76v2.2h0.04c0.52-1.54,2.08-2.44,3.68-2.44c3.62,0,3.66,2.9,3.66,4.16v6.36h-0.76
										v-6.5c0-1.06-0.12-3.36-2.92-3.36c-2.3,0-3.7,1.78-3.7,4.3v5.56h-0.76V23.29z"/>
								</g>
							</g>
							<g>
								<g>
									<path class="st3" d="M118.54,30.15c0.12,1.9,1.54,3,3.4,3c1.34,0,3.26-0.4,3.26-2.18c0-1.74-1.76-2-3.52-2.36
										c-1.78-0.36-3.54-0.82-3.54-2.92c0-2.04,1.98-2.64,3.72-2.64c2.18,0,3.8,0.94,3.8,3.28h-0.76
										c-0.02-1.86-1.32-2.62-3.04-2.62c-1.4,0-2.96,0.52-2.96,1.98c0,1.64,1.76,1.9,3.42,2.26c2.04,0.38,3.64,0.86,3.64,3.02
										c0,2.22-2.22,2.84-4.02,2.84c-2.34,0-4.1-1.26-4.16-3.66H118.54z"/>
								</g>
							</g>
							<g>
								<g>
									<path class="st3" d="M128.97,21.35v-2.06h0.76v2.06H128.97z M128.97,33.57V23.29h0.76v10.28H128.97z"/>
								</g>
							</g>
							<g>
								<g>
									<path class="st3" d="M141.16,23.29v9.74c0,0.8,0,4.6-4.44,4.46c-2.2,0-3.9-0.82-4.02-3.2h0.76
										c0.16,1.82,1.6,2.54,3.28,2.54c3.6,0,3.66-2.94,3.66-3.62v-2.36h-0.04c-0.72,1.52-1.98,2.34-3.72,2.34
										c-3.02,0-4.44-2.22-4.44-5.08c0-2.72,1.54-5.06,4.44-5.06c1.6,0,3.16,0.84,3.72,2.38h0.04v-2.14H141.16z M132.95,28.11
										c0,2.42,1.26,4.42,3.68,4.42c2.5,0,3.74-2.1,3.74-4.42c0-2.3-1.22-4.4-3.74-4.4C134.16,23.71,132.95,25.93,132.95,28.11z"
										/>
								</g>
							</g>
							<g>
								<g>
									<path class="st3" d="M144.65,19.29v6.2h0.04c0.52-1.54,2.08-2.44,3.68-2.44c3.62,0,3.66,2.9,3.66,4.16v6.36h-0.76v-6.5
										c0-1.06-0.12-3.36-2.92-3.36c-2.3,0-3.7,1.78-3.7,4.3v5.56h-0.76V19.29H144.65z"/>
								</g>
							</g>
							<g>
								<g>
									<path class="st3" d="M158.85,23.95h-2.24v7.18c0,1.66,0.78,1.82,2.22,1.78v0.66c-1.56,0.1-3.06-0.12-2.98-2.44v-7.18h-1.9
										v-0.66h1.9v-3.2h0.76v3.2h2.24V23.95z"/>
								</g>
							</g>
							<g>
								<g>
									<path class="st3" d="M161.41,30.15c0.12,1.9,1.54,3,3.4,3c1.34,0,3.26-0.4,3.26-2.18c0-1.74-1.76-2-3.52-2.36
										c-1.78-0.36-3.54-0.82-3.54-2.92c0-2.04,1.98-2.64,3.72-2.64c2.18,0,3.8,0.94,3.8,3.28h-0.76
										c-0.02-1.86-1.32-2.62-3.04-2.62c-1.4,0-2.96,0.52-2.96,1.98c0,1.64,1.76,1.9,3.42,2.26c2.04,0.38,3.64,0.86,3.64,3.02
										c0,2.22-2.22,2.84-4.02,2.84c-2.34,0-4.1-1.26-4.16-3.66H161.41z"/>
								</g>
							</g>
						</g>
					</g>
				</g>
				<g>
					<path class="st2" d="M170.46,30.68h2.3v0.24h-1.01v2.67h-0.28v-2.67h-1.01V30.68z"/>
					<path class="st2" d="M173.02,30.68h0.41l1,2.54l1-2.54h0.41v2.9h-0.28v-2.51h-0.01l-0.99,2.51h-0.26l-1-2.51h-0.01v2.51h-0.28
						V30.68z"/>
				</g>
			</g>
		</g>
		<g>
			<polygon class="st3" points="33.38,24.08 37.61,21.92 41.79,24.18 41.04,19.49 44.49,16.21 39.79,15.47 37.74,11.19 35.59,15.42 
				30.88,16.05 34.24,19.41 			"/>
			<polygon class="st3" points="18.74,24.08 22.98,21.92 27.15,24.18 26.41,19.49 29.85,16.21 25.15,15.47 23.1,11.19 20.95,15.42 
				16.24,16.05 19.6,19.41 			"/>
			<polygon class="st3" points="4.11,24.08 8.34,21.92 12.52,24.18 11.77,19.49 15.21,16.21 10.52,15.47 8.47,11.19 6.31,15.42 
				1.6,16.05 4.96,19.41 			"/>
			<g>
				<path class="st4" d="M11.93,9.38c3.48-4.59,9.5-7.62,16.34-7.62c10.77,0,19.5,7.52,19.5,16.79c0,3.77-1.44,7.25-3.88,10.05
					l3.88,9.45l-10.11-4.79c-2.79,1.32-5.99,2.08-9.4,2.08c-7.08,0-13.27-3.24-16.69-8.1"/>
			</g>
		</g>
	</g>
</g>
<g id="Layer_2">
	<g>
		<g>
			<g>
				<g>
					<g>
						<g>
							<path class="st5" d="M100.9,7.82l-0.12,1.43h-0.58c-0.93,0-1.42,0.75-1.42,1.47v3.23h-1.65V7.82h1.57l0.04,0.77
								c0.33-0.52,0.9-0.77,1.61-0.77H100.9z"/>
							<path class="st5" d="M89.42,13.95h-1.66v-3.24c0-0.68-0.06-1.53-1.01-1.53c-0.92,0-1.29,0.66-1.29,1.44v3.34h-1.66V7.82h1.54
								l0.04,0.78c0.33-0.52,0.94-0.93,1.85-0.93c1.67,0,2.2,1.19,2.2,2.43V13.95z"/>
							<path class="st5" d="M83.09,12.52l-0.12,1.4c-0.4,0.11-0.75,0.14-1.18,0.14c-1.56,0-2.01-0.72-2.01-2.15V6.09h1.66v1.73h1.65
								l-0.11,1.43h-1.53v2.53c0,0.58,0.16,0.89,0.75,0.89C82.45,12.67,82.74,12.64,83.09,12.52z"/>
							<path class="st5" d="M79.24,7.82l-0.13,1.43h-0.45c-0.93,0-1.4,0.75-1.4,1.47v3.23h-1.66V7.82h1.57l0.03,0.77
								c0.33-0.52,0.91-0.77,1.62-0.77H79.24z"/>
							<path class="st5" d="M68.14,13.27c-1.12,0.6-2.25,0.95-3.73,0.9c-2.75-0.08-4.73-1.79-4.73-4.67c0-2.87,2-4.7,4.73-4.75
								C65.8,4.74,67.04,5.09,68,5.94l-1.17,1.18c-0.6-0.51-1.48-0.81-2.53-0.76c-1.72,0.08-2.75,1.33-2.78,3.04
								c-0.02,1.86,1.12,3.14,2.9,3.19c0.84,0.02,1.44-0.09,1.96-0.33v-1.9h-1.85l0.13-1.56h3.48V13.27z"/>
							<path class="st5" d="M96.38,11.47h-4.54c0.13,0.78,0.75,1.25,1.51,1.28c0.74,0.02,1.16-0.21,1.71-0.76l1.08,0.82
								c-0.77,0.95-1.69,1.29-2.74,1.29c-1.85,0-3.23-1.29-3.23-3.22c0-1.92,1.38-3.22,3.16-3.22c1.97,0,3.05,1.19,3.05,3.31V11.47z
								 M94.72,10.19c-0.05-0.77-0.63-1.26-1.43-1.23c-0.8,0.03-1.34,0.55-1.45,1.23H94.72z"/>
							<path class="st5" d="M74.57,9.94v4.02h-1.46l-0.04-0.6c-0.45,0.56-1.18,0.75-1.92,0.75c-1.13,0-2.19-0.56-2.22-1.85
								c-0.03-2.04,2.29-2.18,3.75-2.18h0.29V9.99c0-0.67-0.45-1.04-1.28-1.04c-0.6,0-1.2,0.24-1.64,0.65L69.1,8.64
								c0.87-0.7,1.77-0.97,2.73-0.97C73.73,7.67,74.57,8.55,74.57,9.94z M72.98,11.28h-0.23c-0.78,0-2.16,0.04-2.16,0.86
								c0.01,1.15,2.39,0.79,2.39-0.61V11.28z"/>
						</g>
					</g>
					<g>
						<g>
							<g>
								<g>
									<path class="st6" d="M59.36,23.23h1.7v1.4h0.04c0.56-1.14,1.88-1.64,3.3-1.64c3.18,0,4.76,2.52,4.76,5.44
										c0,2.92-1.56,5.38-4.72,5.38c-1.06,0-2.58-0.4-3.34-1.62h-0.04v5.34h-1.7V23.23z M64.16,24.49c-2.28,0-3.16,1.96-3.16,3.9
										c0,2.04,0.92,3.92,3.26,3.92c2.32,0,3.1-1.98,3.1-4C67.36,26.37,66.36,24.49,64.16,24.49z"/>
								</g>
							</g>
							<g>
								<g>
									<path class="st6" d="M79.98,30.29c-0.46,2.28-2.1,3.52-4.42,3.52c-3.3,0-4.86-2.28-4.96-5.44c0-3.1,2.04-5.38,4.86-5.38
										c3.66,0,4.78,3.42,4.68,5.92H72.4c-0.06,1.8,0.96,3.4,3.22,3.4c1.4,0,2.38-0.68,2.68-2.02H79.98z M78.34,27.41
										c-0.08-1.62-1.3-2.92-2.98-2.92c-1.78,0-2.84,1.34-2.96,2.92H78.34z"/>
								</g>
							</g>
							<g>
								<g>
									<path class="st6" d="M91.52,30.29c-0.46,2.28-2.1,3.52-4.42,3.52c-3.3,0-4.86-2.28-4.96-5.44c0-3.1,2.04-5.38,4.86-5.38
										c3.66,0,4.78,3.42,4.68,5.92h-7.74c-0.06,1.8,0.96,3.4,3.22,3.4c1.4,0,2.38-0.68,2.68-2.02H91.52z M89.88,27.41
										c-0.08-1.62-1.3-2.92-2.98-2.92c-1.78,0-2.84,1.34-2.96,2.92H89.88z"/>
								</g>
							</g>
							<g>
								<g>
									<path class="st6" d="M94.18,23.23h1.6v2.18h0.04c0.82-1.66,1.96-2.48,3.8-2.42v1.8c-2.74,0-3.74,1.56-3.74,4.18v4.6h-1.7
										V23.23z"/>
								</g>
							</g>
							<g>
								<g>
									<path class="st6" d="M102.92,21.35v-2.06h0.76v2.06H102.92z M102.92,33.57V23.29h0.76v10.28H102.92z"/>
								</g>
							</g>
							<g>
								<g>
									<path class="st6" d="M107.09,23.29h0.76v2.2h0.04c0.52-1.54,2.08-2.44,3.68-2.44c3.62,0,3.66,2.9,3.66,4.16v6.36h-0.76
										v-6.5c0-1.06-0.12-3.36-2.92-3.36c-2.3,0-3.7,1.78-3.7,4.3v5.56h-0.76V23.29z"/>
								</g>
							</g>
							<g>
								<g>
									<path class="st6" d="M118.54,30.15c0.12,1.9,1.54,3,3.4,3c1.34,0,3.26-0.4,3.26-2.18c0-1.74-1.76-2-3.52-2.36
										c-1.78-0.36-3.54-0.82-3.54-2.92c0-2.04,1.98-2.64,3.72-2.64c2.18,0,3.8,0.94,3.8,3.28h-0.76
										c-0.02-1.86-1.32-2.62-3.04-2.62c-1.4,0-2.96,0.52-2.96,1.98c0,1.64,1.76,1.9,3.42,2.26c2.04,0.38,3.64,0.86,3.64,3.02
										c0,2.22-2.22,2.84-4.02,2.84c-2.34,0-4.1-1.26-4.16-3.66H118.54z"/>
								</g>
							</g>
							<g>
								<g>
									<path class="st6" d="M128.97,21.35v-2.06h0.76v2.06H128.97z M128.97,33.57V23.29h0.76v10.28H128.97z"/>
								</g>
							</g>
							<g>
								<g>
									<path class="st6" d="M141.16,23.29v9.74c0,0.8,0,4.6-4.44,4.46c-2.2,0-3.9-0.82-4.02-3.2h0.76
										c0.16,1.82,1.6,2.54,3.28,2.54c3.6,0,3.66-2.94,3.66-3.62v-2.36h-0.04c-0.72,1.52-1.98,2.34-3.72,2.34
										c-3.02,0-4.44-2.22-4.44-5.08c0-2.72,1.54-5.06,4.44-5.06c1.6,0,3.16,0.84,3.72,2.38h0.04v-2.14H141.16z M132.95,28.11
										c0,2.42,1.26,4.42,3.68,4.42c2.5,0,3.74-2.1,3.74-4.42c0-2.3-1.22-4.4-3.74-4.4C134.16,23.71,132.95,25.93,132.95,28.11z"
										/>
								</g>
							</g>
							<g>
								<g>
									<path class="st6" d="M144.65,19.29v6.2h0.04c0.52-1.54,2.08-2.44,3.68-2.44c3.62,0,3.66,2.9,3.66,4.16v6.36h-0.76v-6.5
										c0-1.06-0.12-3.36-2.92-3.36c-2.3,0-3.7,1.78-3.7,4.3v5.56h-0.76V19.29H144.65z"/>
								</g>
							</g>
							<g>
								<g>
									<path class="st6" d="M158.85,23.95h-2.24v7.18c0,1.66,0.78,1.82,2.22,1.78v0.66c-1.56,0.1-3.06-0.12-2.98-2.44v-7.18h-1.9
										v-0.66h1.9v-3.2h0.76v3.2h2.24V23.95z"/>
								</g>
							</g>
							<g>
								<g>
									<path class="st6" d="M161.41,30.15c0.12,1.9,1.54,3,3.4,3c1.34,0,3.26-0.4,3.26-2.18c0-1.74-1.76-2-3.52-2.36
										c-1.78-0.36-3.54-0.82-3.54-2.92c0-2.04,1.98-2.64,3.72-2.64c2.18,0,3.8,0.94,3.8,3.28h-0.76
										c-0.02-1.86-1.32-2.62-3.04-2.62c-1.4,0-2.96,0.52-2.96,1.98c0,1.64,1.76,1.9,3.42,2.26c2.04,0.38,3.64,0.86,3.64,3.02
										c0,2.22-2.22,2.84-4.02,2.84c-2.34,0-4.1-1.26-4.16-3.66H161.41z"/>
								</g>
							</g>
						</g>
					</g>
				</g>
				<g>
					<path class="st5" d="M170.46,30.68h2.3v0.24h-1.01v2.67h-0.28v-2.67h-1.01V30.68z"/>
					<path class="st5" d="M173.02,30.68h0.41l1,2.54l1-2.54h0.41v2.9h-0.28v-2.51h-0.01l-0.99,2.51h-0.26l-1-2.51h-0.01v2.51h-0.28
						V30.68z"/>
				</g>
			</g>
		</g>
		<g>
			<polygon class="st3" points="33.38,24.08 37.61,21.92 41.79,24.18 41.04,19.49 44.49,16.21 39.79,15.47 37.74,11.19 35.59,15.42 
				30.88,16.05 34.24,19.41 			"/>
			<polygon class="st3" points="18.74,24.08 22.98,21.92 27.15,24.18 26.41,19.49 29.85,16.21 25.15,15.47 23.1,11.19 20.95,15.42 
				16.24,16.05 19.6,19.41 			"/>
			<polygon class="st3" points="4.11,24.08 8.34,21.92 12.52,24.18 11.77,19.49 15.21,16.21 10.52,15.47 8.47,11.19 6.31,15.42 
				1.6,16.05 4.96,19.41 			"/>
			<g>
				<path class="st7" d="M11.93,9.38c3.48-4.59,9.5-7.62,16.34-7.62c10.77,0,19.5,7.52,19.5,16.79c0,3.77-1.44,7.25-3.88,10.05
					l3.88,9.45l-10.11-4.79c-2.79,1.32-5.99,2.08-9.4,2.08c-7.08,0-13.27-3.24-16.69-8.1"/>
			</g>
		</g>
	</g>
</g>
</svg>
