<svg xmlns="http://www.w3.org/2000/svg" width="1031" height="616" viewBox="0 0 1031 616">
  <g clip-path="url(#a)">
    <path fill="#282532" stroke="#282532" stroke-width=".8" d="m604.8 338.3-.6-.5v.9l.3 3v.1l.2.1 8.8 5.4h.2l6.1.5h.2v-.1l2.5-2h.1v-.2l1-3.5v-.2l-1.3-4.1-.1-.4-.4.1-11.3 3.9h-1.2l-4.5-3Z"/>
    <path fill="#282532" stroke="#282532" stroke-width=".8" d="M625 293.3h-.4l.1.5 1 3.9v.3h.3l11 1h.5v-.4l.8-7.8 2-1v-.1l.1-.2.6-3 .1-.6-.6.2-3.5 1h-.1l-.1.1-3.8 5.7-8 .4Z"/>
    <path fill="#282532" stroke="#282532" stroke-width=".8" d="M647.7 250.8h-.5v.5l1.8 14v.2h.3l4.2 1 .3 2-3 2.5-.3.3.3.3 6 4.8.1.2.2-.1 11.6-4.2h.2v-.3l.9-4.7 7.1-4.4.1-.1v-.2l2.8-10.4 2-2.1.2-.2-.1-.3-2-3.4 6.7-4.1.4-.3-.3-.3-.9-1.2v-.2h-.3l-3.2.2h-.4v.3l-.3 2.7H678V239.4l-.1-.1-1.4-1.7-.3-.3-.3.3-2.4 2.1v2l-3.2 1.2-6.5-.4h-.2l-.1.1-8.4 8.8-7.4-.7Z"/>
    <path fill="#282532" stroke="#282532" stroke-width=".8" d="m524 231.6-.1.1V237.2l1.5 2.8.1.2h.3l1-.1h.2l.1-.2 1.9-3.4v-.4l-1-1.4-.5-3.6v-.2l-1.5-1.3-.3-.3-.3.3-1.5 2Z"/>
    <path fill="#282532" stroke="#282532" stroke-width=".8" d="m598.2 231.8-.2-.2h-.2l-4.5 1.2h-.3v.3l-.3 2.8v.2l.2.2 4.7 4.2h.2l3.8.7h.4l1.5-2 .2-.2-.1-.2-5.4-7Z"/>
    <path fill="#282532" stroke="#282532" stroke-width=".8" d="M507 396.1h-.5l.1.5 3.8 14.2v4.3l-5.5 6h-.1v.2l-.9 9.7v.4h.4l21.4.2 7 2.6h.2l5.7-.8h.7l-.4-.6-3.3-4.1v-11.5l6.3-.3h.3V411.4h-.3l-5-.2-1.1-10.8v-.3h-2.5l-1.1-1-.2-.1H530.6l-.3.1v.2l-1.7 3.2h-6.4l-1.4-1.3.5-2v-.4l-2-2.7v-.2h-.3l-12 .2Z"/>
    <path fill="#282532" stroke="#282532" stroke-width=".8" d="m504.4 392.3-.3.3.3.3 2 2.5.2.3.3-.3 2.5-2.4.2-.1v-.2l-.8-2.5v-.3h-1.3l-3 2.4Z"/>
    <path fill="#282532" stroke="#282532" stroke-width=".8" d="m302 465.2-.3-.4-.3.4-3.9 6-8 .4-.4-3.8 1.8-4 .1-.4-.3-.1-6-3.7-.1-.1h-.1l-5.8-.1-5-5.3v-.2h-.2l-9.2-.6h-.1l-.1.1-4.2 3.8-.1.1v.2l.8 2.7-3.1 3.7v.2l-3.6 19.7v.2l5.2 15-2.4 11.8v.1l8.1 34 .9 20v.2l5.3 6.4.1.2h.3l6.3-1 .6-.1-.3-.5-2.5-5.2 4.8-7.6 3-7.2v-.2l-.2-.2-5.1-4.2 4.3-13.7v-.2l-1.7-5.8 7-2.3.2-.1v-.4l-1.2-6.8H290.8l4.1-1.8h.2v-.1l5.4-9.4.1-.2-.2-.2-6.2-7.7-1-13.7 2.8-3v-.1l8.3-12.3.1-.3-.2-.2-2.2-2Z"/>
    <path fill="#282532" stroke="#282532" stroke-width=".8" d="m283.4 577.9-.6-.5v.8l.3 6.4v.4h.4l5-.5h.1l4.3-2.8.7-.5-.9-.2-7-1.5-2.3-1.6Z"/>
    <path fill="#282532" stroke="#282532" stroke-width=".8" d="M498 209.5h-.2l-.1.2-.7 1.5-.1.2v.1l.7 1.1.2.3h.2l2.6-.6h2l2.3 2h.4l5-1h.2l3.8-2.2.1-.1 1-1.5v-.2l-.1-2v-.2l-.2-.1-3.4-2.5v-.1H506.5v.4l-.4 2.3-4.5 2.2-3.7.2Z"/>
    <path fill="#282532" stroke="#282532" stroke-width=".8" d="m812 476.3-.4 28.3-4.2 3.1-.1.1v.2l-.4 2.8v.2l.2.2 6 4h.2l14.7-2.8h7.7l.1-.1 2.7-4 16.5-3 11.5 3.4-.8 4.5v.2l1.6 4.8.1.3h.4l8.7-1.6.3 1.8-5.8 4.2-.4.3.4.4 2 1.6h.4l3.8-1.4-1.1 12.6v.3h.1l8.4 6.5.1.1h.2l4.6-1.6 2.2 2.3H892l14-2h.1l.1-.1 13-21.1 4.7-1.2h.1l.1-.2 9.5-17.6v-.1l2.5-15.2v-.2l-.1-.1-5.7-7.3 2-1.4.3-.2-.1-.2-4.8-14.9-.1-.2-5-3.4.8-19.9v-.2h-.2l-4.6-3.6-1.2-11v-.4H914.3v.3l-8 26.2-3.9.3-9.6-9.7 5.5-14.6.1-.4h-.4l-10.3-2-.1-.1h-.1l-11.5 3.2h-.2l-.1.3-3.1 9-4.5 1-.4-6v-.6l-.6.4-21 12.8-.3.1v.2l.4 4.7-3 4.1h-7.9l-17 7.3h-.2v.2l-6 16Z"/>
    <path fill="#282532" stroke="#282532" stroke-width=".8" d="M884.9 552.5h-.4v.3l-2 8v.2l.3 5.6v.3h.4l6-.4h.2v-.2l6.8-10.4.3-.4-.5-.2-11.1-2.8Z"/>
    <path fill="#282532" stroke="#282532" stroke-width=".8" d="m600 229.2-.4-.1-.2.3-1 1.9-.2.2.1.2 5.3 7 .2.2.2-.1 1.7-.5 2.8 3 .5.5.2-.7 1.2-5.2 3 .5h.4v-.5l-.2-1.6v-.2l-5.5-4.7-.4-.4-.2.5-1 2.4-6.6-2.7Z"/>
    <path fill="#282532" stroke="#282532" stroke-width=".8" d="M514 219.3h-.3l-.1.2-.4.7-.2.3.2.2 7.6 7.7.3.4.3-.4 2.7-4v-2l-.1-.1-2.4-3-.1-.1h-.2l-7.4.1Z"/>
    <path fill="#282532" stroke="#282532" stroke-width=".8" d="m739.2 280.1-.4-.3-.2.4-1.5 2.7-.1.2v.2l3.9 7.1v5.6l.1.1.7 1.5.1.3h4.9l2.4-2.3 1.4.9.4 3.2v.6l.6-.3 1.4-1h.2v-.2l.1-4.4v-.4h-.3l-1-.1-.7-3.5v-.3h-.4l-2.8-.1-.6-1.6 1.7-2.4.1-.1V284h-5.7l-4.3-4Z"/>
    <path fill="#282532" stroke="#282532" stroke-width=".8" d="M476.8 194.2h-.3l-.1.3-.7 1.8-.2.3.3.1 7.7 5.1h.2l.5.1h.3l.1-.2.5-1.3 1-.7.3-.3-.3-.3-1.7-2H483l-1.5-1.8h-.1l-.2-.1-4.5-1Z"/>
    <path fill="#282532" stroke="#282532" stroke-width=".8" d="M464.4 326.2h-.2l-11.7 9v.1l-1.9 5.8V341.4l1.5 2v.1h.3l5-.3h.3l.1-.2 1-3.3h5.6l4.5 1 .1.1.2-.1 6.2-4.7.3-.2-.2-.3-6.7-9.5-.1-.2h-.3l-4 .4Z"/>
    <path fill="#282532" stroke="#282532" stroke-width=".8" d="m532.8 223.3-.6-.4v.7l.2 5.6v.1l1.9 4v.2h.3l7.1.1h.2l3.2-2.3 3-1.2.4-.1-.1-.4-.7-3.4.6-1.8.1-.3-.3-.2-1.6-.8h-.2l-2.2.1h-.1l-.1.1-1.6 1.6h-7l-2.5-1.6Z"/>
    <path fill="#282532" stroke="#282532" stroke-width=".8" d="M560.3 384.4h-.3v.3l-.3 2.3v.2l1.1 2.8.1.3H562.8l.1-.1 1.2-1 .1-.1v-.1l1.3-4.2.1-.5h-5.3Z"/>
    <path fill="#282532" stroke="#282532" stroke-width=".8" d="M473 354.8v.4H476.3v-.4l.2-6.6 3-4.3v-.2l-.2-7.6v-.4H476l-4.7 3.7-.2.2.1.3 2 3.6v11.3Z"/>
    <path fill="#282532" stroke="#282532" stroke-width=".8" d="m833.6 354.4-.2-.6-.4.5-3.3 4-.3.4.5.1 2.7.9h.2l.2-.2 1.5-2 .1-.2v-.2l-1-2.7Z"/>
    <path fill="#282532" stroke="#282532" stroke-width=".8" d="m249.2 414.2-.4.2.2.3 1.9 3.2 1.7 7-.7 11.7-2 3v.3l7.3 16.8.1.2h.2l2.1.2H260l4.2-4.1 2 .4h.1l7.4.2h.3l.1-.3 3.4-8.7 9.2-.7h.2l.1-.3 1.8-5.5V437.8l-2.5-6-.1-.3h-.2l-5.6-.7-2.2-7v-.1l-.3-.1L264 419l-2-8.3v-.2h-.3l-3-.4h-.2l-9.3 4Z"/>
    <path fill="#282532" stroke="#282532" stroke-width=".8" d="m311.4 489 .3.1.2-.3 7-13.5v-.2l.3-11 12.8-8.3h7.4l.2-.2 5.7-9.8v-.2l1.1-18.6v-.2L344 422l13.7-12.4V409.3l.6-14v-.2l-.2-.1-18.8-9.2-22.8-7.1-10.2-1 2.6-5.6v-.2l-.7-9.2v-.3h-.3l-2.3-.8-.4-.1-.1.3-3.5 6.8-1.6 2-4.4-2h-.2l-15.5 5.5-4.9-6.2.8-6.7.2-1.2-.8.8-4.8 4.9-5.2-2.8-.3-.2-.2.3-.5.7V366.6l.1.1 4.3 2.3-6.6 7-4.1-.1-4.4-4.5-.1-.1h-.2l-5.1.1h-.3v.4l-.7 5.4V377.5l2.9 3.4-3.3 10.6-3.8.3h-.1l-6.5 4.1-.1.1v.2l-1.7 8v.2l.1.1 5.6 6 .3.3.3-.3 1-1.1 3.4-1 3.2 5.4.2.3.3-.1 9.5-4 3.3.1 2.5 8.8v.2h.3l13.4 4.3 2.3 7v.3h.3l5.6.7 2.6 6.5-1.8 6v.4l2.4 3-.3 4.7v.4h.4l6.3-.6 5.8 7.3-.4 5.2v.2l3.4 2.9-8.3 12.6-.3.3.4.2 15 8.4Z"/>
    <path fill="#282532" stroke="#282532" stroke-width=".8" d="m228.3 287-.1-.1h-.1l-1.4-.5-.5-.2v.5l-.2 2.8v.1l.2.1 1.7 1.8.3.3.3-.4 1.2-1.7.1-.2-.1-.2-1.4-2.3Z"/>
    <path fill="#282532" stroke="#282532" stroke-width=".8" d="m231.1 291.3-.1-.4-.4.2-2 1-.3.3.2.3 1.8 2.7.3.4.4-.4 1-1.3v-.4l-.9-2.4Z"/>
    <path fill="#282532" stroke="#282532" stroke-width=".8" d="m237.4 293.2-.1-.2h-.2l-2-.1h-.6l.1.4.2 1.4v.1l1.6 2.2.3.4.3-.4 1.3-1.4.2-.2-.1-.2-1-2Z"/>
    <path fill="#282532" stroke="#282532" stroke-width=".8" d="m236 291.1.5.3v-.6l-.1-1.8v-.2h-.2l-1.2-1-1.3-2.5-.1-.4-.4.2-1.3.5-.3.1v.3l.7 3.4v.2l.3.1 3.3 1.4Z"/>
    <path fill="#282532" stroke="#282532" stroke-width=".8" d="M232.7 284.3h.4v-.3l1.2-2.7v-.3l-.2-.1-1.6-1-2.3-.8-.2-.1-.2.2-1.1 1.2-.5.4.6.2 1.6.6.3 2v.2h.3l1.7.5Z"/>
    <path fill="#282532" stroke="#282532" stroke-width=".8" d="M738.7 274.4h-.7l.4.6 1.7 2.4.2.2h6.5v-.5l-.7-3.2v-.4h-.4l-7 1Z"/>
    <path fill="#282532" stroke="#282532" stroke-width=".8" d="M528.9 457.6v.3l.3.1 2.1.6-.3 6.6v.4h.3l2.5.4h.2l.1-.1 5.6-5 6.6.7h.3l.1-.3 1.8-4.5 8.6-7.8.3-.3-.3-.3-10.3-11.8-.1-1.8v-.3h-.3l-1.1-.4h-.4l-3 2.9-8 .2h-.4v.3l-1.2 10-3 .6h-.2v.4l-.2 9.1Z"/>
    <path fill="#282532" stroke="#282532" stroke-width=".8" d="M531.7 182.8h-.7l.4.5 1.6 2.7-.7 2v.1l.1 1.8.7 2.2v.4l.5-.2 3.4-2 4.1.2 3 1.2h8.1v-.2l2.3-5.3 1.3-2 .1-.1V182.4l-4.9-6.8v-.1h-.2l-4.2-1.7h-.1l-3.5-.5h-.2l-3 1-.3.1v.3l.1 3-4 5h-4Z"/>
    <path fill="#282532" stroke="#282532" stroke-width=".8" d="M188.4 313h-.1v4.7h1.5l.1-.2 3.2-6 .3-.5H190.4l-2 2Z"/>
    <mask id="b" width="215" height="174" x="104.1" y="49.3" fill="#000" maskUnits="userSpaceOnUse">
      <path fill="#fff" d="M104.1 49.3h215v174h-215z"/>
      <path d="m136.8 51.3 2.2 3.4 1.1 4.5 5.6 1.4 3.9-4.2 3.3 1.7 9.5.8 6.7-2.8 1.2 9.3h3.9v-4l3.9.3 9.8 11.6 6.4 3.9-3.4 5.3 1.4 1.4 12.6 2.6.2 5.6 3.4.6.8-8.5 5.3-1.4 4 6 8.3 3.9 4.2.8 2.8-3.4.3-5.3 5-3.1 1.7 4.5-4.5 7.9.6 4 2.5-4 5-4.5.3-6-2.8-4.4.8-3.7 6.7-3.4 3 2.3.7 19.7 4.7-4.2 2.8 1.7-4 6.7 5.1 1.1 7.3-11.2 6.1 6.4-2.5 11.6-6.2 3.3-5.8-2.8L250 109l1.1 3.6-2.8 4.5-8.6 2-9.8 7.6-8.7 11.5-1 3.7 5.8 2.2 2.2 5.7 8.1 8.1 12.8 5.6-2.7 13-.3 3.6 3.3 2.3 4.5-6 .6-11.2 7-.3 3.3-6.4.6-9.9 8.9-17.4 11.1 4 5.9 8.1-2.5 8.2 4.5 2.5 10.8-7.3 3.1 20 10 12 .3 6.2-11.1 2.8-5.3 5.7-11.2-2.6-5.6-.3-9.7 7.6 5.8-1.4 7.3-1.4 1.4 1.7-2 6.2.3 5.6 3.4 2.3 3.3-.9 1.7-2.5h2.2l-3.6 6.8-7 .2-3 4.5h-4l-1-3.3 5.5-5.7-6.7 2.3-.3-9.6-2-1-5.8 2.5-.5 4.7h-13.4l-11.5 8-15.4 5-1.6-2.3 7.7-11.5-4.4-4.2-2.8-5.4-5.7-4.3-6-.5-11-7.7-79.2-13-1.3-5.4-7.3-6.7v-5.6l1.1-5.1-.5-2.8-2.8-2.8-.6-4.5 7.3-5.1-4.5-24.2-6.1-.3-5.6-7.3 30.7-52Z"/>
    </mask>
    <path fill="#282532" d="m136.8 51.3 2.2 3.4 1.1 4.5 5.6 1.4 3.9-4.2 3.3 1.7 9.5.8 6.7-2.8 1.2 9.3h3.9v-4l3.9.3 9.8 11.6 6.4 3.9-3.4 5.3 1.4 1.4 12.6 2.6.2 5.6 3.4.6.8-8.5 5.3-1.4 4 6 8.3 3.9 4.2.8 2.8-3.4.3-5.3 5-3.1 1.7 4.5-4.5 7.9.6 4 2.5-4 5-4.5.3-6-2.8-4.4.8-3.7 6.7-3.4 3 2.3.7 19.7 4.7-4.2 2.8 1.7-4 6.7 5.1 1.1 7.3-11.2 6.1 6.4-2.5 11.6-6.2 3.3-5.8-2.8L250 109l1.1 3.6-2.8 4.5-8.6 2-9.8 7.6-8.7 11.5-1 3.7 5.8 2.2 2.2 5.7 8.1 8.1 12.8 5.6-2.7 13-.3 3.6 3.3 2.3 4.5-6 .6-11.2 7-.3 3.3-6.4.6-9.9 8.9-17.4 11.1 4 5.9 8.1-2.5 8.2 4.5 2.5 10.8-7.3 3.1 20 10 12 .3 6.2-11.1 2.8-5.3 5.7-11.2-2.6-5.6-.3-9.7 7.6 5.8-1.4 7.3-1.4 1.4 1.7-2 6.2.3 5.6 3.4 2.3 3.3-.9 1.7-2.5h2.2l-3.6 6.8-7 .2-3 4.5h-4l-1-3.3 5.5-5.7-6.7 2.3-.3-9.6-2-1-5.8 2.5-.5 4.7h-13.4l-11.5 8-15.4 5-1.6-2.3 7.7-11.5-4.4-4.2-2.8-5.4-5.7-4.3-6-.5-11-7.7-79.2-13-1.3-5.4-7.3-6.7v-5.6l1.1-5.1-.5-2.8-2.8-2.8-.6-4.5 7.3-5.1-4.5-24.2-6.1-.3-5.6-7.3 30.7-52Z"/>
    <path stroke="#282532" stroke-width="2.1" d="m136.8 51.3 2.2 3.4 1.1 4.5 5.6 1.4 3.9-4.2 3.3 1.7 9.5.8 6.7-2.8 1.2 9.3h3.9v-4l3.9.3 9.8 11.6 6.4 3.9-3.4 5.3 1.4 1.4 12.6 2.6.2 5.6 3.4.6.8-8.5 5.3-1.4 4 6 8.3 3.9 4.2.8 2.8-3.4.3-5.3 5-3.1 1.7 4.5-4.5 7.9.6 4 2.5-4 5-4.5.3-6-2.8-4.4.8-3.7 6.7-3.4 3 2.3.7 19.7 4.7-4.2 2.8 1.7-4 6.7 5.1 1.1 7.3-11.2 6.1 6.4-2.5 11.6-6.2 3.3-5.8-2.8L250 109l1.1 3.6-2.8 4.5-8.6 2-9.8 7.6-8.7 11.5-1 3.7 5.8 2.2 2.2 5.7 8.1 8.1 12.8 5.6-2.7 13-.3 3.6 3.3 2.3 4.5-6 .6-11.2 7-.3 3.3-6.4.6-9.9 8.9-17.4 11.1 4 5.9 8.1-2.5 8.2 4.5 2.5 10.8-7.3 3.1 20 10 12 .3 6.2-11.1 2.8-5.3 5.7-11.2-2.6-5.6-.3-9.7 7.6 5.8-1.4 7.3-1.4 1.4 1.7-2 6.2.3 5.6 3.4 2.3 3.3-.9 1.7-2.5h2.2l-3.6 6.8-7 .2-3 4.5h-4l-1-3.3 5.5-5.7-6.7 2.3-.3-9.6-2-1-5.8 2.5-.5 4.7h-13.4l-11.5 8-15.4 5-1.6-2.3 7.7-11.5-4.4-4.2-2.8-5.4-5.7-4.3-6-.5-11-7.7-79.2-13-1.3-5.4-7.3-6.7v-5.6l1.1-5.1-.5-2.8-2.8-2.8-.6-4.5 7.3-5.1-4.5-24.2-6.1-.3-5.6-7.3 30.7-52Z" mask="url(#b)"/>
    <path fill="#282532" stroke="#282532" stroke-width=".8" d="M109.5 140.3h-.3l-.1.2-2 3.7v.2l.7 2.6v.2h.2l1 .7-.2.5-1.1.4h-.3v.4l.4 3.8v.2h.1l1.4 1.5.3.3.3-.3 1.1-1.3.2-.1v-.3l-1.5-3.6.8-2.8 2-2.7.2-.2v-.2l-1.6-2.6-.1-.1h-.1l-1.4-.5Z"/>
    <path fill="#282532" stroke="#282532" stroke-width=".8" d="m116 162.3-.2-.2-.2.1-1.7.7-.6.2.4.4 3 3.6.8 4.2v.1l.1.1 3.2 3.4.1.1h.2l2.7-.5h.3V169.4l-.2-.1-3.2-2-4.7-5Z"/>
    <path fill="#282532" stroke="#282532" stroke-width=".8" d="M287.7 70H287.4l-2 2-.2.3.1.2 1.8 2.8v.1h.2l8.2 1 1.1.2-.7-.8-5.2-5.5-.1-.1h-.2l-2.7-.3Z"/>
    <path fill="#282532" stroke="#282532" stroke-width=".8" d="M187.7 36.6h-.4v.4l.3 4.4-8.8 9.1-.2.2v.2l2.3 7.5.1.4.4-.1 6.5-1.8.2-.1 3.6-5.4 9.3-3.5 7.6-.5h.8l-.5-.6-6-6.6-.2-.2-.3.2-2.8 2.1-1.9-.6-1.2-2.6V39l-2.8-2.8-.1-.1h-.2l-5.7.5Z"/>
    <path fill="#282532" stroke="#282532" stroke-width=".8" d="M199.4 23.4h-.2l-.1.2-2 3.5-.2.4.4.1 9.7 3.5.3.1.2-.2 3-4.7 1.3 2.9v.2h3v-.1l4.8-5.3.4-.5-.6-.1-5.6-1.5-2.2-1.7-.3-.2-.2.2-2.9 3-8.8.2Z"/>
    <path fill="#282532" stroke="#282532" stroke-width=".8" d="m216.6 30.5-.2-.2-.2.1-7.7 3.3h-.3V36.9h.3l9.4 3.6-1.9 2.1-.1.2v.2l1.6 3.3.1.3.4-.1 6.1-2.7h5l2.3 3.8.3.4.3-.4 4.2-4.2.2-.2V43l-1-4-.2-.4-.4.1-3 1.1-.4-4.4 1.7-2.9.3-.6H231l-.1.1-2.7 1.8-1.3 1-.2.1v.3l.7 3.2-1.6 1.3-2.6-.2-.7-4.2V35h-.1l-5.7-4.5Z"/>
    <path fill="#282532" stroke="#282532" stroke-width=".8" d="M226.6 22.6h-.4v.3l-.8 2.5-.1.3.3.1 4.7 2.3h.4l3.5-2 .2-.2v-.2l-.3-1.5v-.3h-.3l-7.2-1.3Z"/>
    <path fill="#282532" stroke="#282532" stroke-width=".8" d="M230.3 18.4h-.1l-3.6 1.2-.3.1v.4l.3 1.7v.4h.4l7.7-.6h.5l-.1-.4-.3-1.8v-.2h-.3l-4.2-.8Z"/>
    <path fill="#282532" stroke="#282532" stroke-width=".8" d="M246.9 22.6h-.3v.3l-.6 1.7-1.2 1.7v3.1h.4l4.6-.7 4.8 4.1h2.4V28.2l-.1-.1-5-5.5-.1-.2h-.2l-4.7.3Z"/>
    <path fill="#282532" stroke="#282532" stroke-width=".8" d="m259.5 27.6-.7.1.5.6 1.8 2-1.6 2.8-.1.1v.2l1.3 3.2.1.5.4-.3 5.5-3h.2V31l-3.3-3.8-.2-.1h-.2l-3.7.5Z"/>
    <path fill="#282532" stroke="#282532" stroke-width=".8" d="m266.5 22-.1.1v.2l.2 4v.3h7L275 28l-.1 1.2-5.7.8h-.7l.4.6 4.3 5.7v.2h.2l5.7 1h.2l8-3.5.4-.2-.2-.4L276 16l-.2-.3-.3.2L272 18l-.2.2v.2l.2 2.4-3.4-1.3h-.2l-.2.1-1.7 2.3Z"/>
    <path fill="#282532" stroke="#282532" stroke-width=".8" d="M209.1 50.2H208.8l-9.5 2.5h-.1l-5.5 4.8-.1.1v.2l.5 5.3v.3h.3l9.5 2.9-2 4.2-6.7-4.3-.4-.2-.2.4-2 3.7-.1.3.3.2 4.5 3.2-.2 5v.3h.2l7.2 2.1h.1l8.8-.5h.2v-.2l1.3-2.3 6.1 6.9.2.2.2-.1 4.5-1.5h.2v-.3l.7-4.4 2.7 1.9.6.4v-.7l.5-5v-.2l-.2-.2-3.7-2.4.2-15.5v-.2l-.2-.1-3.4-2.8-.3-.2-.3.3-3.5 4.7-10-8.8Z"/>
    <path fill="#282532" stroke="#282532" stroke-width=".8" d="M240.6 57.2 239 61l-2.9-1.3-.3-.1-.2.2-1.7 2.3-.2.2.2.2 3.4 5.4.2 5.2v.7l.6-.4 7.5-4.5.2-.1V62.2l2.6-2.6.3-.3-.4-.3-2.7-2h-4.9l-.1.2Z"/>
    <path fill="#282532" stroke="#282532" stroke-width=".8" d="m255.2 59-.2-.1-.2.1-5.2 4.3-.2.1v.3l1.3 5.2.1.3h3.8V69l1.3-2.3 1.9 1.9.1.1h.2l2.3-.2.2-.1 6-5 .5-.5-.7-.2-11.2-3.8Z"/>
    <path fill="#282532" stroke="#282532" stroke-width=".8" d="m254.7 50.7-.3-.2-.2.4-1.2 2.5-.2.3.4.2 5.5 2 .3.1.1-.2 1.5-2.3.3-.4-.5-.2-5.7-2.2Z"/>
    <path fill="#282532" stroke="#282532" stroke-width=".8" d="m251.7 41.3-.2-.2h-.2l-5.5.8h-.2l-3.2 3-.7.7h1l5.4.3-1.6 4V50.2l1.3 2 .1.2h.3l1.7-.2h.2V52l4.3-6.8.2-.2-.2-.2-2.7-3.5Z"/>
    <path fill="#282532" stroke="#282532" stroke-width=".8" d="m261 39.5-.1-.2-.2.1-3 1-.3.1v.3l.5 4v.2l.2.1 4.8 3.2.2 2-1.3 1.5h-.2v.3l.8 5v.2l.3.1 19 6.3 5.3 1.7h.4l5.2-4.6.4-.3-.4-.3-6.2-5-.2-.1h-.1l-5.7 1.5-7.7-.7-2.8-2.8-.8-8.1v-.2l-.2-.1-4.9-2.5-3-2.7Z"/>
    <path fill="#282532" stroke="#282532" stroke-width=".8" d="m276.8 66 .3-.5h-.6l-5.5-.6h-.2l-6.4 2.5h-.1l-.1.2-3.5 4.7V72.6l1 13v.4h.3l10.6.5 10 5 7.2 8.1.1.2h.2l5-.3-1.4 7.2-4.8 8.1-5.3 2.4-3.7-.7-2-1.7-.3-.2-.2.3-3 4-.1.1v.2l1.3 4v.3h.3l4.3.3h.2l4.8-2.4 4.3 11.1v.1l.2.1 11.1 7.3.3.2.3-.3 7.7-9.8.1-.2-.1-.2-6.3-10.3 3.2-3.6 5 8.3.2.4.3-.3 9.4-8.3.3-.2-.2-.2-1.7-3.8-.1-.3-.4.1-6 1.9-4.3-11.8 4-6.8.2-.3-.2-.2-8.4-9-.2-.2-.3.2-4.4 3-4.2-9.4-.2-.2h-.2l-9.1 1.2-2.4-11.4-.1-.6-.5.3-7.7 5.3-.2.1v.2l-.7 6.1h-3.5l.5-5.2 5.9-8.7Z"/>
    <path fill="#282532" stroke="#282532" stroke-width=".8" d="m279.6 41.6-.3.1V44l-5.2 1.2h-.5l.3.5 1.5 2.5v.1h.2l6.2 2.6 7 .8 4.8 3.4.2.1h.2l5-2.8.4-.3-.3-.3-2.8-2.9h3.7v-.1l2.7-3 6.6-.9h.3v-2.1l-.1-.1-3.6-2.4.4-2 10 1.6h.2l15.5-6 1-.4-1-.4-5.2-1.6 1-1.4H339.8l2-2 .4-.5-.5-.2-24.1-8.5-5.8-2-.2-.1-.1.1-6 4.3-6.7-5.5-.1-.1h-.1l-3.8-.3h-.3v.4l-.7 4-4.2-3.8-.2-.1h-.2l-5.4 1.8-.4.1.1.4 1 2.8v.2h.3l7.8 1.7-.4 3.6v.3l.2.1 4.5 2.8h.3l10.4-2.6.2 3-8.4 4-5.3-4-.2-.2h-.1l-5 .6h-.6l.3.6 4.8 6.6-1.9 1-3.5-3.1-.3-.2-.2.1-2.7 1.8-.3.2.1.3 2.5 4.7.1.3h4l-.8 3.6-3-.4-4.4-4.7-.1-.1h-.2l-3 .5Z"/>
    <path fill="#282532" stroke="#282532" stroke-width=".8" d="m257.8 110.7-.3-.3-.3.3-4.7 6v.2l-.4 6.5v.8l.6-.4 4-2.3h4.8l3.5 3.1.2.3.3-.2 3.2-2.7.4-.3-.3-.3-11-10.7Z"/>
    <path fill="#282532" stroke="#282532" stroke-width=".8" d="m315.6 188.3-.2-.4-.4.3-11.8 11.3-.2.2v.3l1.3 2.7v.1h.2l14.5 5.4.3.2.1-.3 2.1-3.6V204.2l-1.1-6v-.3h-.5l-4.5.6-2.3-2.5 4.2-4.2.2-.3-.1-.2-1.8-3Z"/>
    <path fill="#282532" stroke="#282532" stroke-width=".8" d="m507.6 395.1-.7.7h1l11.3-.2 2.2 3-.1 2.4v.2l1 .9h6.2l.1-.2 1.5-3h2l.8.9h3.2l.9 11v.3h.4l5.1.2v.7l.3.1 14.8 6.7.6 1.2.1.2h3.8v-.4l-.4-4.8v-.2h-.2l-5.4-2.7.3-3.2 2.3-5.4 5.3-.2h.5l-.1-.5-4.8-15.8.1-6.6 7.5-11.7v-.2l.2-1.6v-.3h-.2l-1-.6v-3.3h-.3l-1.2-.2-1.3-1.6v-.1h-.3l-22.8-1H540l-4 3.9-6.5-4.4-.2-.1-.2.1-2.4 1.5-.2.1v.2l-1.7 14.6-4.2 3.2h-.1v.1l-1.3 3v.2l.1 4.2-7.4 6-1.9-.8-.7-.3.2.8.2 1-2.1 2Z"/>
    <path fill="#282532" stroke="#282532" stroke-width=".8" d="M514.5 360v.1h.1l5.2 5.7.3.4.3-.4 2-2.5 3 .1h.3l.1-.3.7-2.4 2.9-1.8 6.5 4.5.2.2.3-.3 3.7-3.7 14.8.7h1l-.7-.7-13.5-14 1.4-1h.2v-.2l.3-2.5v-.3l-.3-.1-3.1-1.5H535l-7.5 7.5-.1.2-.2 2.7-5.6-.2h-.3v.3l-.2 1-3.5-.4h-.3l-.1.2-3.5 6.6v.4l.7 1.8Z"/>
    <path fill="#282532" stroke="#282532" stroke-width=".8" d="M509.6 369h-.3v.4l-.1 1.6v.4h.4l5 .2.1 13h-4.3l-2.8-2.2-.2-.1-.2.1-2.2 1.2-.1.1v.2l-.2.6v.3l.2.2 1 .4.3 2.4-3 2.5-.1.2v.3l.7 1.3.2.5.4-.3 3.3-2.5h1.2l.4 1.3v.1h.2l2.1 1h.4l6.9-5.8.1-.2v-.2l-.1-4.1 1.3-3.3 4.3-3.1.2-.1v-.2l1.2-11v-.4h-3.7l-.2.1-3.4 4.8-9 .3Z"/>
    <path fill="#282532" stroke="#282532" stroke-width=".8" d="M489.4 208.6h-.2v.2l-5 5.2-.1.1v.2l.1.5.1.4h.4l1.8-.6 1.6 2.3.2.2.2-.1 2.9-1 2 1.5.1.2.3-.2.8-.5h.1l2.7-4.2.1-.2-.2-.3-.7-.6-.2-.1H494l-1.2-2.4v-.2h-.3l-3.2-.4Z"/>
    <path fill="#282532" stroke="#282532" stroke-width=".8" d="M443.2 363v.7l.6-.4 4.8-3.4 5.8-1 6 1.3 1 .2-.6-.8-3-4.6-1-2.8 1-8.4v-.4h-.5l-5.2.2-2.4-2.2v-.1h-.3l-5.1.1-2.5.4h-.4v.4l.3 5.5-1 .4h-.2v.2l-1.6 2.9-.2.2.2.2 4 4.6.3 6.8Z"/>
    <path fill="#282532" stroke="#282532" stroke-width=".8" d="m279.2 572.7-.4-.5-.3.5-4.8 10.6-.2.5h.5l8.3.9h.4v-.4l.2-7v-.1l-.1-.2-3.6-4.3Z"/>
    <path fill="#282532" stroke="#282532" stroke-width=".8" d="m277.5 571.5.7-.8-1 .2-6 .8-5.7-6.5-.8-20-8.2-34.2 2.3-11.6v-.2l-5-15.4 3.5-19.8 3-3.6.1-.2v-.2l-.8-2.6v-.3h-2.3l-7.2-16.5-.3-.7-.4.7-1 1.6V442.5l3.7 83.5v.3h.2l5.4 3.2-.7 15.5-3.3 1h-.3v.2l-.6 2.8v.3l.2.1 2.7 2 .1.1 3.2 1.4.3 4.5-3 3.9-.1.2.1.2 2.2 3.8 7.4 10.7.1.1 7 4 .5.2v-.6l.5-4.5 3.5-3.9Z"/>
    <path fill="#282532" stroke="#282532" stroke-width=".8" d="m253.6 529-.3-.3-.3.3-1.4 2.2-.1.1v.2l.8 3.8v.3h.3l1.4.2h.4v-.4l.8-4.8v-.2l-.1-.1-1.5-1.3Z"/>
    <path fill="#282532" stroke="#282532" stroke-width=".8" d="M494.5 360v.3l.1.2 3.5 3.2-.2 5v.3h.4l19.8-.4h.1l.1-.2 1.6-1.8.3-.2-.3-.3-5.6-6-.7-2 3.5-6.6.1-.2-.1-.2-2.5-4.5-.1-.1-1.9-1v-1.9l2.2-1.4.2-.1v-.2l.1-7.1v-.4h-.3l-1.9-.2h-.4v4l-8.2 15.2-4.9.3h-.1l-3.6 2.5-.1.2-1 3.7Z"/>
    <mask id="c" width="164" height="145" x="681.3" y="153.4" fill="#000" maskUnits="userSpaceOnUse">
      <path fill="#fff" d="M681.3 153.4h164v145h-164z"/>
      <path d="m710.7 187.4-3.9 9.7-5.3-.3-5.7 12.4 4.8 6-9.8 13.7-5.1-.9-3.4 4.3.9 2.6 3.9.2 2 4.6 4 .8 12 15.6v8l6 3.7 6.4-1.2 8.2 4.9 9.9 2.8 4.7-.6 5.4-.5 11.3-7.4 3.6.6 1.4 3.3 3.1 1 4.3 6.1-2.9 6.3 1.7 4.2 4.8 1.8.9 5 5.6.6.8-2.5 8.2-4.3 5 .3 6 6.5 4-1.7 2.5.3 1.1 3.1 2 .3 2.8-4 11.2-4.2 10.2-12.2 3.4-11.7-.3-7.6-4.2-.9 2.5-2.8-.6-4.5-10.7-10.8v-5.4l3.1-4 3.1-1.4.3-3.1H822l-1.4 4.2-3.7-.8-4.5-4.8 2.8-7.4 4-4.3 3.6.3-.5 6.5 2 1.7 4.7-4.8 1.7-.3-.5-3.7 4.5-5.4 3.4.3 2-6.2 2.2-1.2.3-4-2.3-2.3-.2-6.1 4.4-.3-.3-15.8-3 1.8-1.2 4h-5l-14.7-8.2-10.5-12.8H799l-2.7 2.3 3.5 8-1.2 7.4-4.4 1.8-2.4-.2-.2 7.4 2.6.6 4.5-2 5.9 2.8v2.9l-4.3.3-3.3 7.3-3.1.3-11 14.5-11.6 5-7.8.7-5.4-3.7-7.6 4-8.2-2.6-2-5.4-13.7-.9-7.4-11.9h-3l-2.5-5.5-3-.2Z"/>
    </mask>
    <path fill="#282532" d="m710.7 187.4-3.9 9.7-5.3-.3-5.7 12.4 4.8 6-9.8 13.7-5.1-.9-3.4 4.3.9 2.6 3.9.2 2 4.6 4 .8 12 15.6v8l6 3.7 6.4-1.2 8.2 4.9 9.9 2.8 4.7-.6 5.4-.5 11.3-7.4 3.6.6 1.4 3.3 3.1 1 4.3 6.1-2.9 6.3 1.7 4.2 4.8 1.8.9 5 5.6.6.8-2.5 8.2-4.3 5 .3 6 6.5 4-1.7 2.5.3 1.1 3.1 2 .3 2.8-4 11.2-4.2 10.2-12.2 3.4-11.7-.3-7.6-4.2-.9 2.5-2.8-.6-4.5-10.7-10.8v-5.4l3.1-4 3.1-1.4.3-3.1H822l-1.4 4.2-3.7-.8-4.5-4.8 2.8-7.4 4-4.3 3.6.3-.5 6.5 2 1.7 4.7-4.8 1.7-.3-.5-3.7 4.5-5.4 3.4.3 2-6.2 2.2-1.2.3-4-2.3-2.3-.2-6.1 4.4-.3-.3-15.8-3 1.8-1.2 4h-5l-14.7-8.2-10.5-12.8H799l-2.7 2.3 3.5 8-1.2 7.4-4.4 1.8-2.4-.2-.2 7.4 2.6.6 4.5-2 5.9 2.8v2.9l-4.3.3-3.3 7.3-3.1.3-11 14.5-11.6 5-7.8.7-5.4-3.7-7.6 4-8.2-2.6-2-5.4-13.7-.9-7.4-11.9h-3l-2.5-5.5-3-.2Z"/>
    <path stroke="#282532" stroke-width="1.6" d="m710.7 187.4-3.9 9.7-5.3-.3-5.7 12.4 4.8 6-9.8 13.7-5.1-.9-3.4 4.3.9 2.6 3.9.2 2 4.6 4 .8 12 15.6v8l6 3.7 6.4-1.2 8.2 4.9 9.9 2.8 4.7-.6 5.4-.5 11.3-7.4 3.6.6 1.4 3.3 3.1 1 4.3 6.1-2.9 6.3 1.7 4.2 4.8 1.8.9 5 5.6.6.8-2.5 8.2-4.3 5 .3 6 6.5 4-1.7 2.5.3 1.1 3.1 2 .3 2.8-4 11.2-4.2 10.2-12.2 3.4-11.7-.3-7.6-4.2-.9 2.5-2.8-.6-4.5-10.7-10.8v-5.4l3.1-4 3.1-1.4.3-3.1H822l-1.4 4.2-3.7-.8-4.5-4.8 2.8-7.4 4-4.3 3.6.3-.5 6.5 2 1.7 4.7-4.8 1.7-.3-.5-3.7 4.5-5.4 3.4.3 2-6.2 2.2-1.2.3-4-2.3-2.3-.2-6.1 4.4-.3-.3-15.8-3 1.8-1.2 4h-5l-14.7-8.2-10.5-12.8H799l-2.7 2.3 3.5 8-1.2 7.4-4.4 1.8-2.4-.2-.2 7.4 2.6.6 4.5-2 5.9 2.8v2.9l-4.3.3-3.3 7.3-3.1.3-11 14.5-11.6 5-7.8.7-5.4-3.7-7.6 4-8.2-2.6-2-5.4-13.7-.9-7.4-11.9h-3l-2.5-5.5-3-.2Z" mask="url(#c)"/>
    <path fill="#282532" stroke="#282532" stroke-width=".8" d="M811 299.2h-.2l-2.7.7-.2.2-1.9 2.3-.2.2.2.3 1.6 3v.3h.3l2.3.2h.2l.1-.1 2.7-2.4.1-.2.7-3.1v-.3l-.3-.2-2.7-1Z"/>
    <path fill="#282532" stroke="#282532" stroke-width=".8" d="m244.1 333 .4-.6h-.7l-2.3-.3h-.1l-.2.1-15.2 12.6h-.1v.1l-1.6 4.2-1.8.3h-.4v.4l1 9.7-5.3 13-.1.2.2.2 5.8 4.9h.2l7.2.5 5 7.3v.2h.3l7 .2-.2 5.2v.4h3.4l.1-.3 3-10.2v-.4l-2.7-3.3.6-6 5.5-.5h.3v-.4l-.7-15.2v-.2l-.3-.1-12.7-4.2-2.9-7.7 7.3-10.1Z"/>
    <path fill="#282532" stroke="#282532" stroke-width=".8" d="m203.4 338.4-.1-.2h-.2l-7.5-.6h-.4V341.4h.1l5.3 5 3.3 2.3.5.3.1-.5 1.7-5 .1-.3-.1-.2-1.3-1.6-1.5-3Z"/>
    <path fill="#282532" stroke="#282532" stroke-width=".8" d="m206.8 295.5-.3.1v2.1h.4l6 .1h.2l2.4-1.4.3.7v.2h.2l5.8 1.5 4.9 4.4-1 1.3-.1.2v.1l.2 1.9v.2l.3.1 4.4 1v.1h.2l4.3-2h.1l2-2 .4-.4-.5-.3-2.8-1.4-14.5-8.5h-.1l-5.1-.6h-.2l-7.5 2.6Z"/>
    <path fill="#282532" stroke="#282532" stroke-width=".8" d="m394 322.1-.2-.2-.2.2-2.2 1.2-.5.3.5.3 1.5 1.2.2.2.2-.1 1.8-1 .5-.2-.3-.3-1.3-1.6Z"/>
    <path fill="#282532" stroke="#282532" stroke-width=".8" d="m399.3 324.6-.3-.3-.3.3-1.4 1.2-.2.2.2.3 1 1.8.1.3.3-.1 2.4-1 .5-.3-.4-.4-2-2Z"/>
    <path fill="#282532" stroke="#282532" stroke-width=".8" d="m396.3 328.1-.2-.3-.4.2-1.7 1-.4.3.2.3 2 2.6.2.2.3-.1 1.5-.8.3-.2-.2-.4-1.6-2.8Z"/>
    <path fill="#282532" stroke="#282532" stroke-width=".8" d="m568.4 254-.2-.1-.2.1-3 1.7-3 .2h-.4v.3l-.3 2v.3h.2l1.5 1.2h2.2l.2.1.1-.1 4.3-4 .4-.4-.4-.3-1.4-1Z"/>
    <path fill="#282532" stroke="#282532" stroke-width=".8" d="m506.5 204.2.1.1h5l2.6 1.9.2.1.3-.2 4.9-4 .4-.4-.4-.3-4.8-3.4-4.8-2.3h-.2l-3.3.6h-.1l-4.4 2.8-.4.3.3.3 4.6 4.5Z"/>
    <path fill="#282532" stroke="#282532" stroke-width=".8" d="m487.3 184.5-.3.1v.4l1 6.6-2.6 1.2-.2.1v.2l-.6 3.7v.2l.2.2 2.5 2.3.4 1.5-.1 2.4v.2l.2.1 1.6 1 .1 3.3v.3h.3l3.4.9.9 2v.2H496.8l.1-.2.9-1.9h3.8l.1-.1 4.3-2.2h.2v-.3l.4-2.1v-.3h-.1l-4.6-4.4-.3-.7 4.8-3 3-.5h.7l-.4-.6-2.3-3-.3-7.6v-.2l-.1-.1-2.4-2v-.1h-.1l-2.7-.8H501.4l-3 1.3-1.6-.2-1.8-1.8-.1-.1h-.2l-3.4.6h-.3v2.8l-3.7.6Z"/>
    <path fill="#282532" stroke="#282532" stroke-width=".8" d="M493.8 166.2h-.2l-.2.1-4.6 5.1-.1.1v.2l-.2 3.3v.1l2.2 5.6v.3h.4l3.3-.7h.4v-.4l-.5-4.3 2.2-2.5h.1V170.7l-1.7-4.2v-.3h-.3l-.8-.1Z"/>
    <path fill="#282532" stroke="#282532" stroke-width=".8" d="m496.4 175.7-.1-.1h-.3l-1.3.3h-.3v2.6l.1.1 1.5 1.2H496.3l1.3-.3h.3v-.4l-.3-2-.1-.2-1-1.2Z"/>
    <path fill="#282532" stroke="#282532" stroke-width=".8" d="M500.5 173.7h-.2l-1.2.3h-.2l-1.3 1.3-.2.2v.2l.6 2.5v.2h.3l.7.4-.8.3h-.1l-.1.2-.3 1-.2.5h3.4v-.2l.9-1.5.1-.3-.3-.2-.7-.4.2-.8 1.1-1.5.1-.2v-.1l-.3-1.4v-.2h-.3l-1.2-.3Z"/>
    <path fill="#282532" stroke="#282532" stroke-width=".8" d="M599.5 334.5v.1l-.7 3.8v.5h.4l4.5-.1h.3v-.4l.1-5.5v-.3h-.2l-1.6-1-.3-.2-.2.2-2.3 2.9Z"/>
    <path fill="#282532" stroke="#282532" stroke-width=".8" d="m272.5 315.8-.4-.5-.3.6-1 2v.5l1.3 1.6.2.3.3-.3 1.5-1.3.3-.2-.2-.3-1.7-2.4Z"/>
    <path fill="#282532" stroke="#282532" stroke-width=".8" d="M254.7 311.1v-.2l-.2-.2-6-3.8-3.8-1.4-.4-.2v.5l-.8 7.2v.4h.9l.9 1.6.2.5.4-.4 1.2-1.4 3.6-1 3.1.7.4.1v-.4l.5-2Z"/>
    <path fill="#282532" stroke="#282532" stroke-width=".8" d="m490.9 251.6-.1-.2h-.2l-4.6-1.6h-.2l-19 3.6h-.1l-4.2 3.2-.2.1v.3l2.5 12.6-7.1.3h-.2l-.1.2-4.5 7.2-10.7 2.5-.3.1v5.8l.2.1 35.7 27.3h.1l.1.1 6.1.5h.2l20.4-16 .3-.2-.3-.3-2-2.5-.1-.1h-.2l-3.6-.6-2.1-3.5v-15.9l-.1-.2-1.4-1.4.2-3.9v-.2l-4-4-.5-4 1.6-1.2.2-.2v-.2l-.8-4.6-1-3.1Z"/>
    <path fill="#282532" stroke="#282532" stroke-width=".8" d="m217.7 372.9-.2-.2-.3.1-5.3 3.3-.2.1v.2l-.3 4.8-1 1.5-.2.3.2.2 3 3-1.1 1.3h-.1v.3l.3 4v.3h.3l6 1.5h.2l.2-.2 9-10.7h.1v-4.3h-.4l-4.2-.3-6-5.2Z"/>
    <path fill="#282532" stroke="#282532" stroke-width=".8" d="m178.2 375.5-.5-.4-.2.6-.6 3-1.2 1.2-.2.2.1.2.9 1.6.2.3.3-.1 2.2-.9h.2v-.2l1.1-1.9.1-.1v-.2l-.7-2-.2-.2-1.5-1.1Z"/>
    <path fill="#282532" stroke="#282532" stroke-width=".8" d="M540 157.8v-.4h-.3l-6.3-.2h-.2l-4 2.5h-.2V162l2.7 2.5.2.1 8 1.4h.5v-.4l-.3-7.8Z"/>
    <path fill="#282532" stroke="#282532" stroke-width=".8" d="m526 160 .8.8.3.3.2-.3 1-1.2.1-.2-.1-.2-1-1.6-.2-.4-.4.4-.7.8-1.5.5v.8l1.6.3Z"/>
    <path fill="#282532" stroke="#282532" stroke-width=".8" d="m527.2 160.7-.2-.1h-.2l-2.4 1.1-.1.2-.9 1.4-.1.3.2.2.8 1 .2.1h.2l3-1.2h.1l1.5-1 .5-.3-.5-.4-2-1.3Z"/>
    <path fill="#282532" stroke="#282532" stroke-width=".8" d="M544.3 268.8h-.4v.4l.5 33.5v.4h.4l28.7.3h.2l3.2-3.6V299.5l-.2-5.6v-.2l-10.5-13-1.3-4 .1-2 1.3.2 2.1 6.8.1.2h.1l2 1 .2.1.1-.1 1.1-.8.2-.2v-.2l-.6-3.3-.7-2.2-2.3-6.7-.1-.3h-.3l-.7.1H564l-2.9-1.6h-2l-3.3 2.9-2.6-.1-5.8-1.6-3-.1Z"/>
    <path fill="#282532" stroke="#282532" stroke-width=".8" d="M583 327v.4H591.5l7.6 6.5.3.3.2-.3 2-2.4.2-.3-.3-.2-10.4-7.7-2.2-7.2v-.2h-.1l-1.2-1-.3-.2-.2.3-4.5 5.2V320.5l.2 6.6Z"/>
    <path fill="#282532" stroke="#282532" stroke-width=".8" d="M462 226.2H447.7l-2.8-1.3H443l-.1.2-1.7 3.5v.2l.6 3.7v.3h.3l5.2.5.6 2-2.4 13.2v.1l.1 2.4v.2l.2.1 4 2.1 4.5.4h.1l9-2.2.2-.2 4.3-5.4.1-.2.1-5.5 7.6-6.9h.1v-.2l.4-3.1.1-.5H469l-7-3.4Z"/>
    <path fill="#282532" stroke="#282532" stroke-width=".8" d="m425.6 281.3.6-1.2-1.2.7-2 1.1-.4.3.4.3.9 1 .4.3.2-.4 1-2.1Z"/>
    <path fill="#282532" stroke="#282532" stroke-width=".8" d="m418.8 281.2-.1-.3h-.4l-2.4.7-.6.1.3.5 1.2 1.8.2.2h2.5l-.1-.5-.6-2.5Z"/>
    <path fill="#282532" stroke="#282532" stroke-width=".8" d="M412.7 279.1h-.2l-.2.1-1.5 1.6-.3.3.3.2 2.2 1.9.4.3.2-.5 1.2-2.7.1-.4-.4-.2-1.8-.6Z"/>
    <path fill="#282532" stroke="#282532" stroke-width=".8" d="M476.3 239.8H476l-1.7.6-.4.1.1.4.4 1.6v.3h3.1l.1-.1 1.1-1.2.4-.4-.5-.3-2.3-1Z"/>
    <path fill="#282532" stroke="#282532" stroke-width=".8" d="M583.4 327.6h-.3v.2l-8.2 18-2.3.8-.3.1v.3l.4 3.3v.4h3.4l4.8 7v.1h.2l2.5 1 6.3 5.5.1.1H594l14.5-4.5h.1l10.6-11.4.6-.6h-.8l-5.5-.4-8.8-5.2-.5-3v-.3h-5.5l.4-4.7V334l-7.3-6.2v-.1H583.3Z"/>
    <path fill="#282532" stroke="#282532" stroke-width=".8" d="M527 127.9v.2h.2l2.2 1 1.3 2.4-1.3 1.7-7.2 7.8v.2l-1.3 4.1v.2l1.6 6v.2h.2l5.5 4.2.2.1h.2l7.4-3.6 5.9-.8h.1l.1-.2 5.6-8.9V142.2l-4.1-9.8-3.9-9.2.6-6v-.3h-.3l-2.2-.4-.6-4.1v-.2l-3.3-5.4-.3-.3-.3.2-3.7 2.6h-.1v.2l-1.3 5.4-3.5-2v-.1h-.1l-5.4-1.4h-.3l-.1.2-1.2 1.4-.3.3.3.2 2 2h3.9l3 4.6.5 7.8Z"/>
    <path fill="#282532" stroke="#282532" stroke-width=".8" d="m304.8 566.5.5-.5-.7-.1-3-.3h-.2l-3 2-.4.2.3.4 2.2 2.3.3.3.2-.3 3.8-4Z"/>
    <path fill="#282532" stroke="#282532" stroke-width=".8" d="m307.7 564.5-.5-.3-.1.5-1 3-2.7 2.4-.1.1v.3l.2.8v.4l.5-.1 4.7-1.9h.2l2-2.5.2-.4-.3-.2-3.1-2.1Z"/>
    <path fill="#282532" stroke="#282532" stroke-width=".8" d="M475.6 196.7H475.3l-2.5.6h-.2l-4.8 5.4h-1.2l-2-1.3h-.2l-1.3.3h-.2v.2l-1 2.8-7 .2h-.4v.5l.3 1.6v.2h.1l5 3.3 5.6 4.5-.1 5.2-3 5.3-.3.4.4.2 6.7 3.1h.1l6.8.3h.1l.2-.2 2-2.2h3.9l1 1 .2.2h.1l4.3-.3h.2v-.2l2.3-2.8.2-.2-.3-.3-2.7-3.2-.1-1.9.5-2.2V217l-1.4-2-.2-.2h-.2l-2 .6-.2-1.2 5.1-5.6.1-.1v-4h-.2l-3-1-1.8-1.3-8.6-5.4Z"/>
    <path fill="#282532" stroke="#282532" stroke-width=".8" d="m298.2 357-.3-.2-.2.4-1.7 3v.2l-.1 7.4v.2l.2.1 3.6 2.1.3.2.2-.3 1.2-1.6 3.5-6.8.2-.4-.3-.1-6.6-4.1Z"/>
    <path fill="#282532" stroke="#282532" stroke-width=".8" d="m640.4 447.4-.2-.1h-.1l-2.6.2h-.3v.3l-.2 2.3v.3h.3l1.7.4h.2l2.6-1.2.5-.2-.4-.4-1.5-1.6Z"/>
    <path fill="#282532" stroke="#282532" stroke-width=".8" d="m610 415.8-.5.1.2.5.8 1.9.1.2h2v-.3l.7-2.4.2-.6-.6.1-3 .5Z"/>
    <path fill="#282532" stroke="#282532" stroke-width=".8" d="m275.9 321.6-.3-.4-.3.3-1.2 1.1-.2.2v.3l1 1.8.1.2h.3l1.7-.5.5-.2-.3-.4-1.3-2.4Z"/>
    <path fill="#282532" stroke="#282532" stroke-width=".8" d="m495.3 228.6-.2-.7-.5.5-2.2 2.2V231l-.3 2v.2l.2.1 1.8 1.1.1.1h.2l.7-.1h.2v-.3l.5-3-.5-2.4Z"/>
    <path fill="#282532" stroke="#282532" stroke-width=".8" d="m269.7 314-.2-.1h-.3l-1.6.8-.4.1.2.4.6 1.5.1.4.4-.3 2-1.3.4-.2-.3-.3-.4-.5-.5-.4Z"/>
    <path fill="#282532" stroke="#282532" stroke-width=".8" d="M504.5 369.2h-.4v.3l-.1 2.4h-6.2l-.1.1-3.9 7.5-.1.2.2.2 9 10 .3.3.3-.3 2.3-1.9h.1v-2.5h-.3l-1.3-.7v-.9l3-2 3 2.2v.1h3.6l.4.1V371.8h-.5l-5-.3V369h-.5l-3.8.2Z"/>
    <path class="uk" fill="#282532" stroke="#282532" stroke-width=".8" d="m459.7 164 .2-.2-.3-.2-1.4-1.5-.3-.2-.2.2-4.5 3.3h-.2v.2l-2.5 8.3-.1.5h.6l2-.2-.2 4.4v.2l1.3 1.5.1.1h.2l3.8.2.5 5.7-3.1.4h-.3v.3l-.4 3.2-2.7 3.9-.3.5h.6l4.3.5.3.2-7.6 4.5-.6.3.6.3 2.9 1.5H452.7l8.6-3.9 5.4.6h.2l2.9-1.3h.1l1.3-1.7.2-.4-.3-.2-1.2-.7v-.6l2-1.1.2-.1v-.2l.2-2.3v-.2l-1.5-2.5v-.2h-.2l-3.1-1.2-2-4.6-2.7-5.1-.8-4.2 1.2-1.5v-2.7H458.4l-.5-.8 1.9-3Z"/>
    <path fill="#282532" stroke="#282532" stroke-width=".8" d="M451 177.5v-.2h-.3l-3.7.5h-.3v.3l-.3 3.3v.3h.2l2.5 1.8H449.4l2.7-.6h.1l.1-.2 1-1.9.2-.2-.2-.2-2.3-2.9Z"/>
    <path fill="#282532" stroke="#282532" stroke-width=".8" d="m581.7 225.3-.4.2.3.3 3.7 4.8.1.1 4.6 2.1h3l4.9-1.3h.1l.1-.1 1.2-2 .3-.3-.5-.2-14.3-5.3-.1-.1h-.2l-2.8 1.8Z"/>
    <path fill="#282532" stroke="#282532" stroke-width=".8" d="M457 352v.2l1.3 3 3.3 5.2.1.2h.2l1.8-.1h.2l5-2.9h.2v-.3l-.4-16v-.3l-.3-.1-3.8-1.1h-.1l-5.4.1h-.3v.3L457 352Z"/>
    <path fill="#282532" stroke="#282532" stroke-width=".8" d="m319.5 52.6-.3-.2-.2.3-1.6 2.4-.1.3.2.2 2.6 2.6-1.2 2.5v.4l4 5.1.2.3.3-.1 4.8-1.5 6.2-.6 7.1 7.7 4.8 12.9-3.9 8-.3.7h.7l5.4-1 2.7 1.7.3 3.3-6.3.3h-.9l.6.7 3.7 3.6v.1h.2l4 .8-9.7 13-.1.1-1.2 8.2v.2l2 6.6-1.4 3.8v.2l2.7 8.6v.1h.1l5.2 5.9.1.1h.3l1.5-.3 3-.8.2 4.4v.2l2.2 3 .1.2h.2l4-.3h.3v-.3l3-11.2 9-11.1 13.7-5.5h.1l8.4-10.5 3.7 1.7h8.5l.1-.1 6.7-6.6 8.1-3.4h.2v-.3l1-5.1v-.3l-.1-.1-5.2-4.6h-.1l-4.4-1.5-2.3-6 5.3-3 9 4.8.3.1.2-.2 3-3.4.3-.3-.4-.3-4.5-2.5L435.7 73l.1-.1v-.2l-1.8-6.1-.1-.3h-.3l-4.4-.2 1.6-4.9 6-2.7 12.6-11 .3-.3-.3-.2-3.6-4-.2-.1h-.2l-14 1.2h-.1l-.1.1-5.8 5.8 3.4-7.5.2-.4-.5-.1-4.9-1.2-.3-.1-.1.2-2.5 4.5-3.6-3-.1-.1h-.2l-10.2 1.1 2.5-4 17.8-.6h.7l-.4-.6-4.6-6.1v-.2h-.2l-19.5-3.6h-.1l-8 1.2h-.3v.4l.3 3.4-7.4-2.5.3-2.4v-.5h-.5l-5.8 1.3h-.2v.2l-1.3 3-.2.4.4.2 5.4 1.9-5.5 3.9-4.3-5h-.2l-6.4-1.9h-.4l-.1.3-.9 4.6H362l-2.3-5-.1-.1h-.2l-10-1.6H349l-5.5 2.8h-.2v.3l-.3 3.2-6.6-.8h-.2l-4.2 1.8-.3.1v.3l.3 4.3v1.8l-7.4 1.4-3.6-2.3-.3-.3-.2.4-2.4 4-.2.2.2.2 3.7 4v.1h.3l7.3-.9.4 1.8-5.3 2.5-5-2.3Z"/>
    <path fill="#282532" stroke="#282532" stroke-width=".8" d="m344 100.2-.2-.3-.3.2-2.7 1.2h-.2v.2l-.7 2.2v.2l.1.1 2.5 2.8v.1h2.4v-.3l1-3.3V103l-1.9-2.8Z"/>
    <path fill="#282532" stroke="#282532" stroke-width=".8" d="M420 92.4h-.2l-.2.1-1.8 1.5-.3.3.2.3L419 96h.1v.1l5.6 2.8.5.2v-.6l.3-4.2V94l-.3-.1-5.1-1.6Z"/>
    <path fill="#282532" stroke="#282532" stroke-width=".8" d="M415.4 330.7h-.3v.4l-.2 1.2v.5h.4l7.7-.2h.3v-.2l.5-1.2v-.2l-.2-1.1v-.5l-.5.2-2.2.9-5.5.2Z"/>
    <path fill="#282532" stroke="#282532" stroke-width=".8" d="m419.1 341.6-.3.2.2.3 3.4 5.2.3.4.3-.3 4.4-3.8 4.2-.1 3.6 4.8.1.1 3.3 2.1.3.3.2-.4 1.2-2.3 1-.5.1-.1v-5.6l-2.2-6-.1-.4h-.3l-6.5.8-8.1-.7h-.4v2.4l-4.7 3.6Z"/>
    <path fill="#282532" stroke="#282532" stroke-width=".8" d="M493.7 363.3h-.2v.3l-.6 2.2v.3l.2.1 1.5.9.3.1.2-.1 1.4-1.2.2-.1v-.3l-.5-2.2-.1-.4h-.4l-2 .4Z"/>
    <path fill="#282532" stroke="#282532" stroke-width=".8" d="M498.5 369.2h-.4v.4l-.1 1.6v.3h.4l5 .3h.5v-.4l-.1-1.7v-.4h-5.4Z"/>
    <path fill="#282532" stroke="#282532" stroke-width=".8" d="m527 240.4-.1.1v.1l-.1 1.5v.3h.2l5.2 2.7 2 .7-.9.9-2.7.3h-.3v.2l-.4 1.3V248.8l1 2.3v.1h.1l3.3 1.8h.1l1.4.2h.4v-.4l.2-3.7 2-2.5.3-.3-.2-.2-5.7-6.7.6-1.8h1l2 1.5.1.2.2-.2 1.3-.6h.2v-.3l.4-2 4.5.7h.3v-.3l1.6-4.2.4-1.1-1 .7-2.5 1.7-7.3-.2h-.1l-4.9 2.6-.1.1-2.5 4.2Z"/>
    <path fill="#282532" stroke="#282532" stroke-width=".8" d="M538.6 254.8h-.3v.2l-.8 1.1-.2.4.3.2 1 .5.9 1.2.1.2h.2l5.2-.2h.2v-.2l1.3-1.5.1-.3-.1-.2-.6-.7-.2-.2h-.3l-1.7.7h-2.4l-.6-1-.1-.1h-2Z"/>
    <path fill="#282532" stroke="#282532" stroke-width=".8" d="m177.6 323.2-.4.3.4.3 6.6 4.9.3.2.3-.3 6.7-8.3.2-.3-.2-.2-1.1-1.7-.2-.2h-2.1V313l-.1-.1-1.8-1-.1-.1h-.2l-5.2 1.6h-.4l.2.5 1.9 4.3-4.8 5Z"/>
    <path fill="#282532" stroke="#282532" stroke-width=".8" d="M417 338v.2l1.6 3.1.2.5.4-.3 4.4-3.8V337.4l.1-1.2v-.3h-.3l-5.2-.8h-.3l-.1.2-.8 2.6Z"/>
    <path fill="#282532" stroke="#282532" stroke-width=".8" d="m279.1 348.5-.3-.3-.3.4-4 6.2V355l2 5.3-1 7V367.7l4.5 6 .1.2.3-.1 7.4-2.8.2-.1v-.3l.1-4.2v-.1l-.1-.1-4.1-4.3.2-1.9 3.2-3.6.2-.3-.3-.2-8-7.4Z"/>
    <path fill="#282532" stroke="#282532" stroke-width=".8" d="M192 320h-.2v.2l-3.5 4.3-.2.3.3.3 2.8 1.9v5l.2.1 1.4.7.4.2.1-.3 2-4.6 4.7-4.3 3.5-.2 1.9.4 1.1.3-.7-.9-3.1-3.6-.1-.2h-.2l-10.4.4Z"/>
    <path fill="#282532" stroke="#282532" stroke-width=".8" d="m515 215.2-.2-.2-.2.2-3.9 3.2h-4.2v.3l-.5 2.8v.4h.3l1.8.5.3.1.2-.2.6-1 1 .9 1.2 4 .2.2 7.9 3.6.3.2.2-.2.7-1 .3-.2-.3-.3-7.8-8 .6-1.1 7.4-.3h.3v-.3l.8-2.4.2-.5h-.6l-4.8.1-1.8-.8Z"/>
    <path fill="#282532" stroke="#282532" stroke-width=".8" d="M240.6 305h-.2l-.1.1-1.9 2-.4.3.5.3 2 .8.2 2-4.3.4h-.4v.4l.5 2.6v.3h.4l1.4.2h.2l.1-.2.7-1 4.3.2h.3v-.3l.4-2.5.5-4.8v-.4h-.3l-3.9-.4Z"/>
    <path fill="#282532" stroke="#282532" stroke-width=".8" d="M516 208.9h-.1l-.1.2-1.3 2-.1.1v.1l.1 3.1v.3h.2l2 1.1h.2l6.4.3h.2v-.1l9-7.5.1-.1v-2.1l-.2-.1-1-.5h-.3l-6.3 2.9-8.7.3Z"/>
    <path class="singapore" fill="#282532" stroke="#282532" stroke-width=".8" d="m769.3 352.4-.5-.5-.1.7-.3 2.6v.2l7.6 12.8.1.2h2.3l15.7 26.3.1.2h.2l6.3.6h.3l.1-.2 3.2-9.3.1-.3-.2-.1-5-3.1-.9-5v-.1l-.1-.1-28.9-25Z"/>
    <path class="singapore" fill="#282532" stroke="#282532" stroke-width=".8" d="M843.8 387.9V388.2l2.5 3-1.6 4.4V397H849.2v-.3l1.3-11.2.5.2 2.2 10.4v.2h.3l2 .6.4.1.1-.3 2-4.5V391.9l-2-6.9-1.5-2.8 5-3.5.2-.3-.2-.3-1.2-1.6-.2-.3-.3.2-4.9 3.1h-1l-2.2-3.2.6-1.2 3.9-1.9 6 1.8h2.1l.1-.2 4.6-4.3.3-.3-.2-.2-2-2-.2-.2-.2.2-4.2 3.3H858l-4.1-2h-.2l-3 .1h-.2l-.1.2-3.3 5.3v.1l-2.2 9.2-1 3.7Z"/>
    <path class="singapore" fill="#282532" stroke="#282532" stroke-width=".8" d="m872.2 367-.3-1-.4 1-2.1 5.1-.1.2.1.2 3.3 4.3.2.2H874.4l.1-.3 1.4-2.8.8-1 .2-.2-.3-.3-1.4-1.5-.1-.1-2-.7-.9-3Z"/>
    <path class="singapore" fill="#282532" stroke="#282532" stroke-width=".8" d="M878.5 383.5H878.2l-4.5 1-.2.1-1.3 1.5-.2.2.2.2 1 2 .2.2.3-.1 3-1.1 1.7-1 2.5 2 .3.2.2-.2 1.2-1 .3-.2-.2-.3-2.2-2.7-.2-.1-1.8-.7Z"/>
    <path class="singapore" fill="#282532" stroke="#282532" stroke-width=".8" d="M803.5 398H803.2l-3 2.1-.3.2.1.3.7 1.7v.2h.2l9.8 2.3 4.9.9 2 2.1v.1h.2l5.5.5 2.6 2 .1.2h.2l2.4-.6h.2l2.2-2 .5-.5-.6-.2-4-1.9-3.5-3h-.1l-9.2-2.2-10.6-2.3Z"/>
    <path class="singapore" fill="#282532" stroke="#282532" stroke-width=".8" d="M835.7 407.6h-.4L833 409l-.4.2.3.4 1.4 1.5.2.2h.3l3.5-1.4.7-.3-.7-.4-2.5-1.6Z"/>
    <path class="singapore" fill="#282532" stroke="#282532" stroke-width=".8" d="M839.7 406.6h-.5l.1.5.4 2v.3h.3l2.6.7h.2l.2-.1 1-1.2.1-.3-.1-.2-1.1-1.7-.1-.1H839.6Z"/>
    <path class="singapore" fill="#282532" stroke="#282532" stroke-width=".8" d="M846 412.3v-.2h-.3l-3.1.5-.9.1.7.6 2.8 2.3H848.4l-.4-.5-1.8-2.8Z"/>
    <path class="singapore" fill="#282532" stroke="#282532" stroke-width=".8" d="M846.4 408.6h-.1l-.7 1.4-.2.5h.5l5 .8h.2l3.9-2.2.7-.5-.8-.2-2.2-.7h-.2l-3.4 1-1.1-1-.3-.2-.2.2-1.1.9Z"/>
    <path class="singapore" fill="#282532" stroke="#282532" stroke-width=".8" d="M862.8 409.3h-.2l-5.8 4.8-.2.2.1.3.6 1.2.1.3h.3l2.4-.5h.1l.1-.1 2.8-2.6 5.5-.8h.6l-.3-.6-1.1-1.8-.1-.2h-.3l-4.6-.3Z"/>
    <path class="singapore" fill="#282532" stroke="#282532" stroke-width=".8" d="M891.8 376.7h-.1l-4.7.5h-.1l-3 2.3-.4.2.2.2 1.2 2.6.1.1h.2l4.8 1v.4l-3 2.5-.3.1v.3l1.6 5.4.1.3h.3l1.5.1h.4v-.3l1.3-5h1.9l1 4.9v.1l.1.1 12 10 .3 7.6v.1l.1.2 4.2 4.4v.2h.3l1.8-.1h.4v-.4l.4-27.7v-.2l-.1-.1-7.1-5-.2-.1-.2.2-6.7 4.4-2.2 1.4-3.5-2.3-.1-7.7v-.4h-.3l-2.2-.3Z"/>
    <path class="singapore" fill="#282532" stroke="#282532" stroke-width=".8" d="M835.4 360h-.3v.2l-2.6 9.5-13.6 4.6-4-4.7-.2-.2h-.2l-2 .6-.4.1v.4l3.9 14.7v.3h.3l5.6.6 7.4 2.8v3.1l.4-.1 3.5-.6h.2v-.2l5.1-7V378.2l2.8-5.4 2.9.6.7.1-.3-.7-3.8-8-.6-5v-.4h-.4l-4.4.5Z"/>
    <path class="uk" fill="#282532" stroke="#282532" stroke-width=".8" d="m452.3 183.5.1-.6-.5.1-2.8.6-2.8-2.2.3-3.5-.8-.2-1.7 4-3.6-.2h-.4v.4l-.2 3.5v.2l1 2.1-4.1 2.8h-.2v1.7l.1.1 2 1.5H442l9-3.3h.3v-.3l1-6.7Z"/>
    <path fill="#282532" stroke="#282532" stroke-width=".8" d="M570.6 263.2h-.3l-.1.3-1.8 5.6v.2l2.3 6.8.4 1.2.3-1.2 2.7-10v-2.5h-.3l-3.2-.4Z"/>
    <path class="india" fill="#282532" stroke="#282532" stroke-width=".8" d="m711 347.7.2.4.3-.2 5.1-2.5h.2v-.3l3.1-11-.1-13.5L737 302l.1-.1v-4.4l3.4-1.3h.2v-.3l-.1-5.2v-.1l-3.8-7.4 1.9-3.5 4.4 4.2H743.5l5.9.3v2l-1.9 2-.1.2v.2l.4 1.1.1.3h.3l3 .1.7 3.5v.3h1.5l.1-.2 2.5-4.5.1-.1 1.2-11.6 4-2.8.2-.1v-.2l.1-4v-.2l-1.7-3.3v-.2h-.3l-2.6-.1h-.2l-10.4 6.9h-.2v.3l.6 4h-6.6l-2.4-3-.1-.2h-.2l-1.4.2h-.4v.4l.4 4-15-1.2-9.5-4.2-.5-5v-.3h-.2l-6.3-4v-8.1l-.1-.2-4.5-5-.1-.2h-.2l-10.2 1h-.5l.2.5 1 4.4v.2h.2l4.7 3.9-8.4 17.2-5.5.4h-.2l-.1.2-1 2.2-.1.2.2.2 5.6 5.2-.3 4.7h-5.7l-.1.2-.6 2.7-.2.5h.5l4.5-.2v1.4l-3.1 1.7-.4.2.2.4 2.2 4.1v.2h.2l4.3 1.4.2.1.2-.1 2.6-2h.1v-.2l1.2-3.3 1.2-.5 1.4 1.5-.5 4.2-1.2 2v.2l.3 3.7v.1l18.4 38.2Z"/>
    <path fill="#282532" stroke="#282532" stroke-width=".8" d="M591.8 248.6h-.3v.3l-1.8 8.5-7.1 6h-.2v.3l.5 2.8v.3h.4l7 .5 11 9.1.2.1h.1l6.3-.2h.4v-.3l.2-2 2-2.2 3 1.7.2.2.2-.2.4-.4.3-.3-.2-.3-6.3-8.3v-.1h-.3l-2.7-.2-3.8-4.8.7-3.2 1-.2h.2v-.2l.5-1.7v-.2l-.1-.2-5.4-5.6v-.1h-.3l-6.1.9Z"/>
    <path fill="#282532" stroke="#282532" stroke-width=".8" d="M597.9 240.6h-.2l-.2.2-1.4 1.4v2.6l.1.1 1.7 2.4 6 6.5-.8 2.2H602v.3l-.6 2.6v.2l.1.1 3.4 4.4.1.1h.2l3 .3 6.2 8.6v.1h.3l3.4.3 2.5 1.8.1 3.8v.2l.2.1 11 6.4H636.3l2.4-2.1 2.8-.1 1.7 4 .1.2h.2l11.8 1.6h.4v-.3l.4-4 3.6-1.4.3-.1v-.2l.2-1.6v-.1l-.1-.2-3.1-4.2-6.6-5.3 3.3-3 .1-.2v-.2l-.3-1.5v-.2h-.3l-4.3-.7-1.9-15-.2-3.6v-.3h-.2l-12.4-4.8h-.2l-5.5 1.3h-.2l-3 3.7-2.4-.2h-.2l-.1.1-.7.6-5.7-.4-7.5-5.5-2.8-3-.2-.2h-.2l-1.3.3h-.1l-.1.2-2.2 2.5-4-.8Z"/>
    <path fill="#282532" stroke="#282532" stroke-width=".8" d="m415.1 128-2.3-1.3-.2-.1h-.2l-3 2-2.5 2.3-.2.2v.2l.1 1.3v.3h.3l3 .4-.2 1.8-1 1.1-.2.2v.2l.3.8.1.2h.3l2.9.2v3.8h.3l4.7.9 2.7 1.5h.2l3.2.2h.2l5.4-2.7.1-.1 4.2-5.6h.1v-4.2l-2.6-2.2-2.1-1.8-.3-.2-.2.2-1 .7-1.4 1.7-1.3-.1-1.5-1.7-.1-.2h-.2l-2.2.3h-.2l-3 2.6h-.1l-1.6 1.8-.6-.6v-1.8l.8-.6.3-.2-.2-.3-.8-1.2Z"/>
    <path fill="#282532" stroke="#282532" stroke-width=".8" d="M488.5 217.2h-.1l-.1.2-.7 1.8v.1l.2 2v.2l2.7 3 .2.2h.2l4-.1 9.2 10.7h.1l5.8 1.7 3.2 3.1.8 7.2v.6l.6-.3 1.8-1 .2-.1v-.1l1.6-4v-.2l-.3-2.5 2.3-.2h.3v-.3l.4-1.7.1-.3-.3-.1-7.6-3.7-7.2-7-2.8-4.2-.7-3.7 3.4-.8h.4l-.1-.5-1-2.6v-.1l-.1-.1-2.3-2h-.2l-2-.1-2.8.8h-.2v.1l-2.6 3.6-1.3.8-2.2-1.3-.1-.1h-.2l-2.6 1Z"/>
    <path fill="#282532" stroke="#282532" stroke-width=".8" d="M511.7 246.7v-.2l-.2-.1-1.7-.9h-.2l-5.6.8h-.3v.5l.2 1.5v.2h.2l5 2.5.6.8.1.1h.2l1.3.2h.4v-5.4Z"/>
    <path fill="#282532" stroke="#282532" stroke-width=".8" d="M494.7 235.5H494.4l-3 1.6h-.2v.3l.4 5.8v.3h.4l2.3.5h.2l.2-.1 1.7-1.7.2-.1v-6h-.3l-1.6-.6Z"/>
    <path fill="#282532" stroke="#282532" stroke-width=".8" d="m227.4 309.8-.1-.1h-.2l-3.9 1h-.3v1.7l.2.1 2.3 1.3H228.4l1.5-1.8.2-.3-.3-.3-2.3-1.6Z"/>
    <path fill="#282532" stroke="#282532" stroke-width=".8" d="M574.5 266.2h-.2l-.1.3-2.8 9.6v.1l-.1 1.5v.4h4.9v-.1l5-4.3V273.4l.2-1.6v-.2h-.1l-1.7-1.8 3.2-2.7.2-.1v-.3l-.6-2.7v-.4l-.5.1-1 .2-3 2.1-3.4.2Z"/>
    <path class="japan" fill="#282532" stroke="#282532" stroke-width=".8" d="m859.6 239-.2-.1-.1.1-1.9 1.9-.1.1v.3l.8 2.5v.3h.3l1.3.1 1 5.3v.1l.2.1 1.2 1.4.3.3.3-.2 2.2-2.1.2-.1v-.2l.2-6.2v-.1l-.1-.1-2.6-2.8h-.1l-.1-.1-2.8-.6Z"/>
    <path class="japan" fill="#282532" stroke="#282532" stroke-width=".8" d="M869.2 233.8H868.9l-3.5 2.8-.1.1v.1l-.8 3.6v.2l.2.2 2.3 1.6.3.2.2-.3 3.4-3.5.1-.1v-.1l.5-4v-.4h-.3l-2-.4Z"/>
    <path class="japan" fill="#282532" stroke="#282532" stroke-width=".8" d="M865 228.4h-.1l-5.6 6.3V238.4h.4l3.4-.4.2-.1 5.2-4.6 3.2-.6.6.8v3.1l1 1.6v.2h2.1l.1-.1 2.3-2.8v-.1h.1l.9-3.5h4.5l.1-.2 4.5-5.4.1-.2v-.2l-2.4-9-1-4.4 2.2-1.8.3-.3-.2-.2-5.4-8.1v-.1l-1.3-1-.2-.1h-.2l-2.4 1-.2.1v.2l-.7 3.4V208.5h.1l1.2 1.5.4 6.8-3 3.8-1.6-1-.4-.3-.2.4-1.5 3.4-.3 3.2v.2l1 1.7-.4.8-2-1.8h-2.2l-1.5.8-1.1.4Z"/>
    <path class="japan" fill="#282532" stroke="#282532" stroke-width=".8" d="m874.7 179.7-.3-.3-.3.3-1.7 1.5-.2.1v.3l1 3.2v.2l1.4 1.4-.1 4.5-1.7.7h-.1l-.1.2-1.5 3.3v.4l4.4 6 .2.3.3-.1 2.9-1h.1l.1-.2.5-1.5.1-.3-.2-.2-2.8-2.5 1.6-2 1.7.2 4.4 3 .5.3v-.6l.5-3.3 2-3.7 3-3 .4-.4-.5-.2-3-1.4-1.3-2.2-.2-.4-.3.2-1.6 1.1h-.1l-1.2 1.6-2.7-.6-3-2-2.2-2.9Z"/>
    <path class="japan" fill="#282532" stroke="#282532" stroke-width=".8" d="m890.7 176.3-.3-.2-.2.3-3 4.2-.1.1v.1l.2 2.1v.5l.6-.2 1.5-.6.1-.1 3.5-4.5.3-.3-.4-.3-2.2-1.1Z"/>
    <path class="japan" fill="#282532" stroke="#282532" stroke-width=".8" d="m894.3 170-.1.2-.1.1-1 3h-.1l.1 2v.7l.6-.4 1.8-1.2h.1v-.1l1.8-3.5v-2l-.5.2-2.6 1Z"/>
    <path fill="#282532" stroke="#282532" stroke-width=".8" d="M576.3 362.7v.1l3 5.7-3.5 7.3v.1l-.5 2.3v.3l.1.1 17.9 11 .3.3.2-.4 5.6-8.7.2-.3-.3-.2-2.7-2.1V367l3.4-3.7 1-1-1.4.4-5.6 1.8h-4l-6.5-5.4-2.2-1h-.2l-3.8.4h-.2l-.1.2-.7 1.1V362.7Z"/>
    <path fill="#282532" stroke="#282532" stroke-width=".8" d="M673 219.6h-.3v.4l-.4 2.8v.1l.3 1.8v.2h.3l8.7 3-7.3 3-.8-.7-.3-.2-.2.2-1.9 1.2-.2.1v.3l.2.6v.2l.2.1 1 .5h.1l6 .2h.1l3.1-1h.1v-.1l3.9-4.8 4.6.9h.3l.1-.2 6-8.2.3-.5h-.6l-15.8-2.2h-.3l-.2.2-2 4.7-2.3-2.5v-.1H673Z"/>
    <path fill="#282532" stroke="#282532" stroke-width=".8" d="m789 332-.4.3.4.4 4.5 4.9.3.2.3-.2 8.5-6.3.1-.1v-.2l.8-10v-.8l-.6.5-4.2 2.9-2.1-1.2h-.1l-3-.4-1.7-1.2h-1.3l-.1.2-2.3 3.7V325l.3 1.7v.2h.2l2.1 1.2-.2 3-1.5 1Z"/>
    <path fill="#282532" stroke="#282532" stroke-width=".8" d="M606.8 412.4h-.5l.1.5.5 1.7.1.3h.3l2.2.3h.3l.1-.2.9-2.2.2-.6h-.6l-3.6.2Z"/>
    <path fill="#282532" stroke="#282532" stroke-width=".8" d="M831.2 214.6v.2h.2l1.9.8.6 7v.3h.4l4 .3h.2l.2-.1 3.8-4.5.3-.3-.3-.3-1.2-1 .1-4.6 3.5-4.2.2-.2-.2-.2-1.6-3 1-1.2v-.1l.7-3.4v-.3l-.2-.1-2-1h-.4l-1.8 1h-.1v.2l-2.1 6.2-3.2-.2h-.2l-.1.1-4 4.8-.2.1v.2l.5 3.5Z"/>
    <path fill="#282532" stroke="#282532" stroke-width=".8" d="m843.1 218.6-.3-.2-.2.2-3.7 4.3-.3.4.5.2 1.5.7.2 1-1.2.9-.2.1.1.3 1.3 3.4 3.3 7.2.1.2h.3l2.9-.2h.2l3.4-3.9h.1v-.2l.3-3-1.2-5.5v-.2h-.2l-6.9-5.7Z"/>
    <path fill="#282532" stroke="#282532" stroke-width=".8" d="M613.5 273.8v-.3h-.2l-2.6-1.4-.2-.2-.2.2-1.8 1.8V274.2l.1 3.5v.3h.3l4 1.6.6.2v-6Z"/>
    <path fill="#282532" stroke="#282532" stroke-width=".8" d="m605.5 208.5.1.1h.3l4.5-2 4.7-.2.3 7H612.6l-.1.3-2.3 3.7-.2.2.2.2 3 5 .1.1 4.3 2.4.3 2.7.1.5.4-.2 1.7-.5.1-.1 1.4-1.6 2 .4 1.2 2.3.1.3h3.8v-3.7l-2-5.7-.7-4.3 5.2-2.4 7.4 1.2 4.7 4.8H643.6l10.6-1 5.8 8.4.2.2h.1l7.1.3h.2l.2-.2 1.8-3 2.3-.5h.3v-.4l.4-3.2 3.2-.2 1.8 2.2.4.5.2-.6 1.9-4.3 16.5 2.2h.2l.1-.1 2.9-3.8.1-.2-.1-.2-4.7-5.7 6.2-13.5 4.8.4h.3l.1-.3 3.6-8.5.2-.5h-.5l-7-.7-4-3.9v-.1h-.3l-11 1.3-14.3-13.8-.3-.3-.2.3-5 4.3-15.1-6.9h-.4l-18.9 9.3h-.2v.3l-.5 6.6V183.7l4.2 4.8-8.1 4.6-11-.3-2.2-3.2v-.2h-.3l-8.7-.5h-.2l-8.4 5.4-.2.1v.2l-.1 7.3v.2l.1.1 7.8 6.3Z"/>
    <path fill="#282532" stroke="#282532" stroke-width=".8" d="m784 291.3-.1-.4-.5.2-2.7 1.4h-.1v.2l-2.3 6.5v.4l3.7 4.7-.6 5.1v.3l.2.1.7.3H782.6l6-3 8 9.1-.1 5.8v.2l.2.1 1.8 1 .3.1.2-.1 4.5-3.7.1-.1v-.2l-.4-3v-.2l-13-12.2.1-1.5 1.5-1 .2-.2v-.3l-1.2-3.2v-.2h-.3l-5.1-.9-1.4-5.3Z"/>
    <path fill="#282532" stroke="#282532" stroke-width=".8" d="m571.7 257-.6-.3v.6l.1 2.1-1 3.3v.4h.4l3.2.3h.4v-.3l.2-4.7v-.3l-.2-.1-2.5-1Z"/>
    <path fill="#282532" stroke="#282532" stroke-width=".8" d="m275.7 326-.4-.4-.2.5-.8 1.7-.1.3.2.1 1.2 1.4.3.3.2-.2 1.7-.9.5-.2-.4-.4-2.2-2.2Z"/>
    <path fill="#282532" stroke="#282532" stroke-width=".8" d="M721.9 341.7h-.2v.3l.3 3v.1l.2 1.8-1.3.3h-.4l.1.4.8 5v.2h.2l2.5 1.5h.4l3.8-2.3.3-.1v-.3l-1.2-5.2.3-1.8v-.2l-.1-.2-3.6-3.3-.2-.2-.2.1-1.7.9Z"/>
    <path fill="#282532" stroke="#282532" stroke-width=".8" d="m430 354.2-.3.4.4.2 12.3 8.2.6.5v-.8l-.3-6.2v-.2h-.1l-3.7-4.5-3.7-3.2-.3-.3-.3.3-4.6 5.6Z"/>
    <path fill="#282532" stroke="#282532" stroke-width=".8" d="m550.2 473.2-1 1.7-.2.2v.1l1 2.7v.2h.3l3.6.2h.4v-1l3-1.1.3-.1v-.3l.2-2.4v-.2l-2-2.5-.1-.2h-2.1l-3.4 2.7Z"/>
    <path fill="#282532" stroke="#282532" stroke-width=".8" d="m526.1 172.9-2.8.4-.4.1v.4l.3 2.6v.3h.4l4.2.4 1.4 1.1.4 2.2v.1l.1.1 1.3 1.9.2.1h.2l4-.1h.1l.1-.2 3.8-4.8.1-.2v-.1l-.2-2.9v-.3h-.3l-7.2-1.2H526Z"/>
    <path fill="#282532" stroke="#282532" stroke-width=".8" d="M484.6 202.1v.3l.2.1 1 .9.2.1 1.1.1h.4v-.3l.3-2.3v-.1l-.4-1.3v-.4l-.5.2-1.6.7h-.1v.3l-.6 1.7Z"/>
    <path fill="#282532" stroke="#282532" stroke-width=".8" d="M540.3 166.2v-.1h-.2l-8.3-1.4h-.3l-.1.2-1.4 3.5-1.9.6-1-1.3-1.3-2.3-.2-.4-.4.3-1.3 1h-.1v.2l-.8 4V173.4h.4l2.9-.6 6 .1 7.2 1.4h.2l3-.9h.2v-.4l-.2-3.2v-.2l-2.4-3.3Z"/>
    <path fill="#282532" stroke="#282532" stroke-width=".8" d="M497.3 274.4h-.3v15.9l1.9 3.4v.1h.3l3.5.6 2.5 3.2v.1h.2l9.4 2.4H515.1l2.3-1.3 22.7 11.8h.2l3.7.2h.5v-.4l-.7-41.4v-.3h-.3l-5-.8-2.3-3-.1-.2h-6.8l-3.2 2.8h-.1v.2l-.3 1.3v.2l.1.2 2 1.8.3 1.5-4 1.7-8.5-3.9-2.3-3.6-.1-.1h-.2l-8.8-2.6-.3-.1-.1.2-3.5 5.7h-1v.4l-.5 3.7-1.5.3Z"/>
    <path fill="#282532" stroke="#282532" stroke-width=".8" d="M462.2 257v-.3h-13.6v.2l-2.6 5.5-5.7 2.8h-.1v.2l-4.8 12.9-9.3 5.6h-.1l-13.2 21.8-.4.6h.7l13-.2h.3v-.4l.5-6h3.3V291h11.4v-.4l.3-11 10.6-2.4h.2v-.2l4.5-7.3 7-.2h.4l-.1-.5-2.3-12Z"/>
    <path fill="#282532" stroke="#282532" stroke-width=".8" d="m542.7 206.9-.2.2.2.3 3.4 5.2-.3 2.9v.4h1.8l.2-.1 3-5v-.2l-.1-.3-3.6-4.3v-.1h-.1l-2-.9h-.4l-1.9 1.9Z"/>
    <path fill="#282532" stroke="#282532" stroke-width=".8" d="m523.2 226.7-.3-.3-.3.4-1.6 2.3-.1.1v.2l.5 1.4.1.3h.2l2 .4h.2l.2-.2 1.5-2 .2-.4-.3-.2-2.3-2Z"/>
    <path fill="#282532" stroke="#282532" stroke-width=".8" d="m623 414.3-.2.2-2.3 5.7-4 7-7 .5h-.1l-.1.1-3.1 3.6-.1.2v.1l.5 10.9-4.3 5-.1.1v.2l.5 8.7v.2l3.8 4.4.2.1h.2l4.4-.5h.2l4.4-3.4.2-.1v-.2l-1-5 10.2-17.6.1-.3-.2-.2-1.9-2 1.8-3.8 2 .6.3.1.1-.3.7-1.7v-.2l-2-8.8-1.3-3.7v-.3h-.4l-1.4.4Z"/>
    <path fill="#282532" stroke="#282532" stroke-width=".8" d="m532.3 229.7-.1-.3-.3.1-3.8 1.3h-.3v.4l.2 3.2v.2l1 1.1.1.3.3-.2 4.5-2 .4-.2-.2-.4-1.8-3.5Z"/>
    <path fill="#282532" stroke="#282532" stroke-width=".8" d="m429.3 328-.4.2.3.4 3.8 5-.2 1.8v.5h.4l6-.4 2 5.7.1.3h.3l8.3-.4h.2l.1-.2 2.1-6 11.7-8.7 15.3-1.4h.4v-.3l1.2-10.4v-.4h-.3l-3.2-.5-24.4-18.7h-5.3l-.5.1.1.4 4.4 30.5h-18.8l-.2.1-3.4 2.4Z"/>
    <path fill="#282532" stroke="#282532" stroke-width=".8" d="m776.5 337.3.4.5.3-.5 1.3-2.4V328l-.2-.2-4.3-6.3v-1l1.2-1.3V319l-.2-4v-.2l-5.8-7.5.8-4.8 7.8-3 .1-.1v-.1l1.8-3 .3-.5-.5-.1-6.1-1-.8-5v-.1l-.3-.1-4.6-1.8-1.8-4.5 2.8-6 .1-.1-.1-.2-3.9-5.6-.1-.1-2.5-.8-.5-.2v.5l-.1 4.1-4 2.7v.3l-1.3 11.6-2.7 4.6v.1l-.4 5.1-1.8 1.2-.4.2.4.4 7.6 7.2 1.8 3.4.7 4.3v.2l1.3 1.7.1.2h.3l2.5-.5h.1l.1-.1 2-3.5.6-.8 2.6 5.2.4 6.5v.3h.3l1.8.4 2 3.5-2.2 3-.1.2.1.2 3.1 5Z"/>
    <path fill="#282532" stroke="#282532" stroke-width=".8" d="m714.2 187.3-.1.1v.2l1.9 4.4v.2h.3l3.3.2 7 12 .1.2h.2l13.8 1 2 5v.3h.3l7.4 2.3H750.7l7.3-4 5.6 3.7.1.1h.2l7-.5h.1l11.4-5v-.1h.1l11-14.4 2.7-.3h.2l.1-.2 3.6-7.5h3.6v-.4l.1-1.2v-.3l-.2-.1-4.8-2.4-.2-.1h-.2l-4.4 2.1-3.3-.7.5-8.3v-.3h-.4l-8.5-1h-.2l-.1.1-6 6.2-9.4-.5-1.2-2-.1-.2h-.3l-5.8.3h-.2l-2.8 2h-5l-3-4.8v-.1h-.2l-8.7-3.1-.2-.1-.2.2-3 4.1-.2.3.4.2 4 3-6 5.5-5.1-1.3-7.8-3.6-.3-.1-.2.2-6.5 8.7Z"/>
    <path fill="#282532" stroke="#282532" stroke-width=".8" d="M413.2 306.4h-.8l.5.7 2.3 3-.5 13.7v.8l.7-.5 3.4-2.5 2.4-.4 3.3 1.2 4 5.5.2.3.3-.2 3.7-2.5 18.5-.3h.4v-.4l-4.6-30.5h5.6l-.9-.7-9.1-7-.7-.5V291h-11.5V299.8H427v.4l-.4 6-13.4.3Z"/>
    <path fill="#282532" stroke="#282532" stroke-width=".8" d="m511.9 255-.1-.4h-.4l-1.9.5h-.3V257.8h.4l1.6.6.2.1.2-.1.8-.6.1-.2v-.2l-.6-2.4Z"/>
    <path fill="#282532" stroke="#282532" stroke-width=".8" d="m646.6 443.6-.3-.2-.2.3-1.7 2.2-.1.1v.2l.3 2.4.1.7.6-.5 3.6-2.9.3-.3-.3-.3-2.3-1.7Z"/>
    <path fill="#282532" stroke="#282532" stroke-width=".8" d="m695.2 355.9-.7-.3.1.7.4 3v.2h.2l1.9.7.4.2.1-.5.3-2.6v-.3h-.2l-2.5-1.1Z"/>
    <path fill="#282532" stroke="#282532" stroke-width=".8" d="m697.6 362.1-.6-.4v.7l-.2 3.6v.3h.3l1.3.8.4.1.1-.3 1.2-2.4.2-.3-.3-.2-2.4-1.9Z"/>
    <path fill="#282532" stroke="#282532" stroke-width=".8" d="m698 369.2-.3-.2-.2.2-1.2 1.2-.3.3.3.3 1.3 1.2.3.2.2-.2 1.7-1.2.5-.3-.5-.3-1.9-1.2Z"/>
    <path fill="#282532" stroke="#282532" stroke-width=".8" d="M572.2 421.9v.2l.1.1 3.4 3.6v4.5l.6 2 .2.7.5-.5 4.6-5 .1-.1v-.2l-.5-6.4v-.1l-.2-.1-2.3-1.8-2.2-11v-.4h-4.2l-.5-.1.1.5 1.7 8-1.4 6Z"/>
    <path fill="#282532" stroke="#282532" stroke-width=".8" d="M113.5 249h-.5l.1.5 5.4 16.8-2.3 1.2-.2.2v.2l.3 3.4v.2h.1l4.7 3.6v6.8l6 5.7.8.8-.2-1.1-2.5-16.7-3.4-11 .8-7.1 2.2.2 1 2.2-1 6.4-.1.1v.1l14.6 28.5v10.2l11.8 14h.2l12.8 6h.4l5.1-3 7.4 6 .2.2.3-.2 4.5-4.5.1-.2v-.3l-1.9-4.7 6-1.8 1.7 1 .3.2.2-.2 1.8-1.8h3.2l.1-.2 5.6-10 .2-.2-.3-.2-2.8-2.5-.1-.2h-.2l-11 2.6h-.2v.3l-2.5 7.1-6 1-7.4-3-3.2-10.4 2.5-13.4v-.3l-.2-.1-5-3.2-2.5-12.8v-.2h-.2l-2.1-1h-.2l-.2.1-3.6 3.7-4-2.1-1.6-8.5v-.3h-.3l-17.2-1.8-8.8-6.6v-.1h-.2l-8.5.4Z"/>
    <path class="singapore" fill="#282532" stroke="#282532" stroke-width=".8" d="M780.5 349.9h-.6l.3.5 2.2 5 .5 6.5v.2l3 4.7h.1l.1.1 6.6 4 .2.1.3-.1 1.2-1 1.8-.3.3-.1v-.4l-.3-2.4v-.1l-2.4-5.9-3.5-7.4-.5-1-.2 1-.3 1-3.6-.1-3-4.2v-.2h-.3l-1.9.1Z"/>
    <path fill="#282532" stroke="#282532" stroke-width=".8" d="M815.8 369.5h-1l.7.6 3.3 4 .2.1h.3l13-4.5.1-.1v-.2l2.6-9.7 5.5-.3h.1v-.1l5.4-3.9.4-.3-.4-.3-6.8-5-1.5-2.6-.4-.6-.3.6-3.4 6.2v.4l1.1 3.4-1.7 2.6-3.7-1h-.1l-.2.1-9.4 7h-.2v.2l.2 3.6-3.8-.2Z"/>
    <path fill="#282532" stroke="#282532" stroke-width=".8" d="M565.5 460v.1l.1.1 3 2.5.3.2.2-.1 7.1-4.4h.2v-.2l1.1-6.5v-10.4l11.2-9.2 1.8.1h.1l.2-.1 6.9-6.6.1-.1v-.2l-1-13.7-.1-.4h-.4l-18 2.3h-.3v.5l.7 4.3v.1l.1.1 2.5 2.2.7 7.1-5.6 5.5-1.2-2.8.3-4.3v-.2l-.1-.1-3.6-3.9-.2-.2-.2.1-8.8 4-.7.4.7.4 8 4 .2 11.7-5.3 7.8v9.8Z"/>
    <path fill="#282532" stroke="#282532" stroke-width=".8" d="m515.5 469.8.1.2h.3l3.6.3 2 2.1.2.1h.1l5.3.1h.3v-.4l1.3-14.8v-9.5l3-.6h.4v-.3l1.2-9.9 8.2-.2h.1l.1-.1 3-2.5.8-.7h-1l-5-.2h-.1l-6.9 1-7.3-2.7h-21.5v.4l.6 5.9v.1l7 10.2-1.2 5.1v3l5.4 13.4Z"/>
    <path fill="#282532" stroke="#282532" stroke-width=".8" d="m975.7 467.7-.5-.5-.1.7-.4 2V470.2l5.2 7.2v.1h.2l2.7 1.3.5.2v-.5l.5-2.8v-.2l-.1-.2-8-7.6Z"/>
    <path fill="#282532" stroke="#282532" stroke-width=".8" d="m475.6 335.4.1.2H479l.1-.2 2.5-3.8 4-.7 4.5 2.8h.2l9.8.3h.2l7.6-3.1v-.1l3-2.5v-.2l.3-3.1 5.2-5.2V319.5l1.5-11.8v-.2l-3.5-7.3-.1-.2h-.2l-9-2.2H504.9l-20.5 16-2.7-.2h-.4v.4l-1.3 10.8-10.2 1-.7.1.4.6 6.2 9Z"/>
    <path fill="#282532" stroke="#282532" stroke-width=".8" d="M476.3 354.7v.4h.4l4.2.2 5.2 5.8h.2l2.6.8h.2l2-1 3-.4h.3v-.3l1-4.1 4-2.6 4.4-.2h.2l.1-.3 8.3-15.2V334l-.2-.1-3.8-3-.2-.1h-.2l-7.6 3.4-10-.1-4.9-3-.1-.2h-.2l-3.4.9h-.2l-.1.1-1.8 3.2v.2l-.2 8.8-2.9 4v.2l-.3 6.4Z"/>
    <path fill="#282532" stroke="#282532" stroke-width=".8" d="m203.5 323.8-3.2.1h-.1l-.1.1-4.4 4v.1l-2.3 4.9-.1.1v.2l1.8 4v.1h.3l7.7.8h.3v-.3l3-8.1v-.1l-.1-5v-.4h-.3l-2.5-.5Z"/>
    <path fill="#282532" stroke="#282532" stroke-width=".8" d="M486.6 185.3v-.5l-.5.2-5.1 2.5-.5.3.4.3 1 1v1.8l-.4-.1-1-1.7-.4-.5-.3.5-2.9 4.5-.3.4.6.2 4.2.8 1.5 1.7H483.2l.9.1h.3v-.3l.6-3.7 2.6-1 .3-.2-.1-.3-1.2-6Z"/>
    <path fill="#282532" stroke="#282532" stroke-width=".8" d="m536.7 111.5.3.3.3-.2 2.3-1.7.2-.1v-.2l-.3-1.9v-.2h-.2l-1.2-.8.2-1.7H539.5V103.1h-.3l-5.3-1.5h-.1l-8 .8h-.3l-.1.3-.7 3-1.3-.3-1.2-2-.1-.2h-.2l-4 .2h-.3v.4l-.4 3.7-1.3.6-.9-1.8-.2-.4-.4.3-8.2 6.6-.3.3.3.3 1.3 1.5-2.7 1.2-.1.2-7 13.7-2.4 1.6-.2.2v.2l.3 1.3v.2h.2l2.2 1.2-.5 2-3.6-.2-1.1-1.3-.3-.3-.3.3-2.7 3-1.6 1.3-.1.1v.2l-.4 2.7-1.2.7-3.7.8h-.2v.3l-2 5.8v.1l1.3 9.6 1.4 4.4.1.1 1.7 1.7.1.1h.2l3.7-.2h.1l.1-.1 5.4-5.2 1.5-2.6.5 4 .1 1.2.6-1 3.5-6.2v-.2l.3-17.2 2.6-1.7h.2v-.3l.8-9.5 8.5-12.2 4-1.4h.1l.1-.1 1.7-2.1 5.9 1.4 3 1.8.5.3v-.6l1-5 4.7-2.8 3 5Z"/>
    <path fill="#282532" stroke="#282532" stroke-width=".8" d="m502.7 73.3 4-6.6 5-6.3.3-.3-.3-.2-2-1.7V58l-2.9-1.2-1.8-1.8-.2-.2-.2.2-4 2h-7.8v.2l-1.3 4.4v.2l.2.2 4.2 3.7.1.1h.2l1.9-.3h.1l.1-.2 2.5-4.1 1.6 1.2-1.5 2.8v.1l-.8 4.7v.2l2 3 .3.6.3-.6Z"/>
    <path fill="#282532" stroke="#282532" stroke-width=".8" d="M508.8 48.9h-.2l-3.3 3.1-.3.3.2.2 2 3.1.1.2h3.6l1.3 1.8.2.1 4.3 2.3.2.1.2-.1 5-3 3.5-2.9.2-.2-.1-.3-1.2-2.4-.1-.1-3.5-2-.2-.2-.2.2-2.2 2-1.5-1.8-.1-.2h-.2l-1.4.2h-.2v.2l-1.6 3.2-2-2-.2-1.6v-.4h-.4l-1.9.2Z"/>
    <path fill="#282532" stroke="#282532" stroke-width=".8" d="M516.5 62.6h-.2l-.2.1-2.6 2.4-2.3 1.7-.2.2.1.3 1.1 1.9v.1h.2l2.1.7H514.8l3.5-1.6.1-.1 1.6-2 .2-.2-.2-.3-1.4-2.4h-.1l-.1-.1-1.9-.7Z"/>
    <path fill="#282532" stroke="#282532" stroke-width=".8" d="m711.5 268.2-.3.1v.3l.5 4.8v.3h.2l9 4.1h.2l14.5 1.2h.5v-.5l-.6-3.5v-.2l-.3-.1-9.6-2.7-8.2-4.8-.1-.1h-.2l-5.6 1.1Z"/>
    <path fill="#282532" stroke="#282532" stroke-width=".8" d="M982.6 536.5h-.5v.4l1.3 13.2-1.6 5.8-5.8 4.3-.2.1v.3l.4 5.1v5.8h.1l1.6 2 .2.4.4-.3 16.3-14v-3.9h-4l-5.5-18.5v-.2h-.3l-2.4-.5Z"/>
    <path fill="#282532" stroke="#282532" stroke-width=".8" d="m971 565.5-.2-.4-.4.3-15.5 14-16.6 7.2-.3.1v.3l.9 3.3v.1l.2.1 9.1 4.4.3.1.2-.2 9.8-9 5.8-.9h.3v-.3l.8-4.3 8.7-8.3.2-.2-.1-.2-3.2-6Z"/>
    <path fill="#282532" stroke="#282532" stroke-width=".8" d="m629.8 311.2-.3.2.2.3 4.2 7.7v.3h.3l5.6-.2h.2l.2-.2 12.2-18V297.8h-.2l-10-5.3-1.6-2.5-.2-.4-.3.2-1.6 1h-.2v.2l-.8 7.6v.2l.2.1 1.6 1-1.4 6.5-8 4.7Z"/>
    <path fill="#282532" stroke="#282532" stroke-width=".8" d="m206.7 343.4-.3-.1-.1.3-1.7 5.1v.4l.3.1 5.4 1.4 3.4.7h.4v-.3l.6-3.8 3.2-1.6 3 1.5 1.1 2 .2.1h.2l1.5-.2h.3v-.3l1.3-3.6v-.3l-.3-.2-4-1.6-3-1.7H218l-3 2.1-3.5 1.7-3.5-1.4-1.2-.3Z"/>
    <path fill="#282532" stroke="#282532" stroke-width=".8" d="M212 388.4v-.8l-.7.6-2.1 2.2-.2.1v.2l.2 3.5v.2l19 34.6.2.1 19.7 12.7.3.2.2-.3 3-5.1.1-.1v-.1l.7-11.2v-.1l-1.6-7v-.1l-5.4-9.1-.1-.3-.3.1-3.2 1h-.1v.1l-1.2 1.3-6-6.8 1.5-8.3 7.3-4.7.2-.1v-.3l-.6-4.5v-.3h-.4l-7.3-.3-3.8-6.4v-.1l-.2-.1-2.2-.7-.5-.2v.6l.1 3.8-9.4 11.2-6.8-1.6-.4-3.9Z"/>
    <path fill="#282532" stroke="#282532" stroke-width=".8" d="M915.1 386.7h-.4v.4l-.4 27.4v.4h.4l4-.2.2-.2 5-5.9 4 .2 2.7 2.3.9 7.6v.2l.2.1 9 4.7v.1h.2l2.3-.9h.3v-3.4h-.2l-7-6-3.4-7.7 2.5-1.2.3-.2-.1-.3-2.1-4.5-.1-.2h-.3l-3.8-.1-1-4.6v-.1h-.1l-11-7.5h-.1l-2-.4Z"/>
    <path fill="#282532" stroke="#282532" stroke-width=".8" d="M949 394.3h-.3l-1 .2h-.3v.3l-.6 2.7-1.9 1.2-6 1-.4.2v.3l.3 2.3v.4h.4l6.5-.4h.2l4-2.6h.2v-.3l-.2-4.5v-.2h-.2l-.6-.6Z"/>
    <path fill="#282532" stroke="#282532" stroke-width=".8" d="m946.4 387.6-.3-.3-.3.4-1 1.4-.2.3.3.2 5.3 4.7.7 2.7v.3h.4l1.5-.2h.3v-.4l.2-2.9v-.1l-.1-.2-1.7-1.4-5.1-4.5Z"/>
    <path fill="#282532" stroke="#282532" stroke-width=".8" d="m844.3 330-.3-.6-.3.6-1 1.9-.5 2.2-5.3 6.8-.2.1v.2l.4 1.4v.3h.4l2.3-.3h.1l.1-.2 7-7.7.2-.3-.2-.2-2.7-4.2Z"/>
    <path fill="#282532" stroke="#282532" stroke-width=".8" d="m852.8 327.3-.5-.2v.5l-.1 5.6v.2l.1.1 2 2 .7 3.9v.2h.3l2 .5h.4v-.2l1-2.5.1-.3-.2-.2-1.5-1-.4-6.9v-.2l-.2-.1-3.7-1.4Z"/>
    <path fill="#282532" stroke="#282532" stroke-width=".8" d="M858.5 329.4h-.4v.4l-.1 5v.1l1.2 2 .3.4.3-.4 2-2.3.2-.2v-.1l-.6-4.4v-.3h-.3l-2.6-.2Z"/>
    <path fill="#282532" stroke="#282532" stroke-width=".8" d="m859.7 325-.6.2.4.5 2 2.7.9 2.5.1.2h2.5v-.4l-.3-4.4v-.2l-.2-.1-2-1.4h-.4l-2.4.5Z"/>
    <path fill="#282532" stroke="#282532" stroke-width=".8" d="m864 335.3-.8-.5.1.9.4 3-3.5 2.8-3 .3-.2.1-3.3 3.6-.1.1v.2l.1 1.6v.5l.5-.1 3.1-1h.1l1.7-1.2 1.7 4.2v.1h.1l3.3 2.3.1.1h.2l1.3-.5h.2l1.1-1.5.3-.2-.3-.3-2.2-2.3.9-.7 1.4 1.2.4.3.2-.4 1.2-2 .1-.1v-.2l-1.2-2.3-.2-5.2v-.2l-.2-.1-3.5-2.5Z"/>
    <path fill="#282532" stroke="#282532" stroke-width=".8" d="M846.4 302.3H846l-3 2.1v.1l-.1.2-.3 6.5v.1l4.5 8.8v.1h.1l1.5 1.2.3.2.2-.1 1.8-1.3 2.9.5.6 2.7v.3h.3l2.5.2h.2l.1-.2 1.2-1.6.2-.2-.2-.2-1.5-2v-.1l-1.9-1.8h-.2l-3.7-.5-1.8-3 2.3-3.3v-.2l.2-3.1v-.2l-1.6-4v-.2h-.3l-4-1Z"/>
    <path fill="#282532" stroke="#282532" stroke-width=".8" d="M847.8 321.6h-.6l.2.5.9 3v.2h.1l1.5 1 .3.2.2-.3 1.1-1.4.2-.2-.2-.2-1.7-2.4-.1-.1h-.2l-1.7-.3Z"/>
    <path fill="#282532" stroke="#282532" stroke-width=".8" d="m657.6 276.4-.5.2.3.4 2.8 4.2-.2 1.9-3.7 1.4h-.2v.3l-.3 3.7v.4H660.8v-.1l1.5-1.2h8.2l7.5 6.6.4.4.2-.5.9-3H685.3v-.4l.1-4v-.2l-.1-.1-5.6-5.4 1-2.6 5.7-.4h.3v-.2l8.1-16.8.1-.3-.2-.1-4.3-3.4-1.5-5.3 10.3-1h.7l-.4-.6-6.4-9v-.2h-.2l-3.4-1h-.3l-.1.2-1.3 1.6h-1l-6.4 4.1-.3.2.1.4 2 3.2-2.2 2.3v.2l-3 10.6-7 4.5h-.2v.2l-1 4.9-11.2 4Z"/>
    <path fill="#282532" stroke="#282532" stroke-width=".8" d="m534 194.3-.1-.1-1-1.7-.5-2.3-.3-2.2.7-1.8v-.4l-3.2-4.8v-.2H521.2l-2-.8-.4-1.2v-.3h-.4l-1.7.2-5.3 1.8h-.1l-4.1 3.6-.1.1v.2l.4 7.5v.1l2.1 3.2.1.1 5.2 2.8 5.2 3.7h.1l3.3 1h.2l2.8-1h1l2 .7v.1h.3l1.5-.8.1-.1 1.8-3.5.8-1.8v-.2l-.2-1.9Z"/>
    <path fill="#282532" stroke="#282532" stroke-width=".8" d="M263.6 311.8v-.3l-.3-.1-3-1H260l-2.3 1.5-.4.3.3.3 1.2 1.4v.1h.2l4 .6h.5v-2.8Z"/>
    <path fill="#282532" stroke="#282532" stroke-width=".8" d="M442.4 233.1h-.4v.4l-.7 9.5-1.9 1.7-.1.2v.2l.2 1v.1l1.3 2.2-.8 2.7-.1.3.3.2 1.5.5h.2l3.5-.4h.3v-.4l-.2-2.8 2.3-13v-.1l-.5-1.8v-.3h-.4l-4.5-.2Z"/>
    <path fill="#282532" stroke="#282532" stroke-width=".8" d="m417.2 261.5-.3-.4-.3.4-1.3 1.5-.1.3.1.2 1.3 1.5.2.3.2-.2 1.9-.9.4-.2-.3-.4-1.8-2.1Z"/>
    <path fill="#282532" stroke="#282532" stroke-width=".8" d="m377.2 239.7-.2-.2-.2.2-1.6 1.5-.3.4.4.3 2.7 1.5.5.3.1-.6.3-2.1v-.3l-.2-.1-1.5-1Z"/>
    <path fill="#282532" stroke="#282532" stroke-width=".8" d="m385.5 238.8-.2-.2-.3.1-1.8 1.3-.4.3.4.3 1.5 1.2.2.1h.2l2.4-.6.7-.2-.6-.5-2-1.8Z"/>
    <path fill="#282532" stroke="#282532" stroke-width=".8" d="m386.8 243.1-.4-.6-.3.7-1 2.5v.2l.1.1 1.3 1.6.2.3.3-.3 1.5-1.2.3-.2-.2-.3-1.8-2.8Z"/>
    <path fill="#282532" stroke="#282532" stroke-width=".8" d="m393.9 247.9-.4-.1-.1.3-.6 1.5-.1.3.2.2.9.9.2.2.3-.2 2.4-1.5.7-.4-.8-.3-2.7-1Z"/>
    <path fill="#282532" stroke="#282532" stroke-width=".8" d="m286.7 444.2-.1-.1h-.2l-8.6.7h-.3v.2l-3.2 9v.4l4.4 4.7.1.1h5.9l6.6 4.2-2 4.5v.1l.3 3v.4h.4l7.1-.3h.2l.2-.2 3.4-5.3.1-.1.4-6.2v-.2l-5.4-7H295.7l-6.7.4.3-5.3v-.2h-.2l-2.4-2.8Z"/>
    <path fill="#282532" stroke="#282532" stroke-width=".8" d="m623.4 286.7-.2.1v.2l-.6 4.5v.2l.1.2 1.8 1.3h.2l1.6-.1h.3v-.3l.6-5.7v-.2l-.1-.2-1.4-1h-.4l-2 1Z"/>
    <path fill="#282532" stroke="#282532" stroke-width=".8" d="M533.4 206.6h-.3v.4l-.4 1.5-6.3 5.3-.3.2.2.3 5.4 8h.1l3.5 2.5H542l2-1.7 2.5-.3 2 1.2.2.1.3-.2 3.6-4.2.2-.1-.1-.3-.7-2v-.2h-.3l-3.7-1-2.2-.2V212.6l-3.3-5.3-.1-.2h-.3l-8.7-.5Z"/>
    <path fill="#282532" stroke="#282532" stroke-width=".8" d="m526.3 214.6-.2-.4-.4.3-2.2 1.6h-1.2l-.1.3-.8 2.4v.2l.1.1 2.6 3.1.2 2.2-1 1.5-.3.3.3.2 4 4.2.1.1h.2l4.3-1.3.3-.1v-.3l-.3-6.2-.1-.1-5.5-8.1Z"/>
    <mask id="d" width="403" height="219" x="536.4" y="13.4" fill="#000" maskUnits="userSpaceOnUse">
      <path fill="#fff" d="M536.4 13.4h403v219h-403z"/>
      <path d="m876 78.5 2 6.8 4 1.2 4-6.3-2.3-4.2.8-3.7h6L889 75l.6 10.2-8.5 21 .9 4.6-.3 7.6 15.8 23 3 .9.3-18.7 3.1-2.9-3.4-7.4 2.9-3-6.2-8.3-3.4.3-1.1-13.6 8.7-2.3.5-4 4.6-1.1 2.5 2.2 3-12.4 5.4-9.1 4.2-2.3 3.7.3v-4.3l-5.9-1.1-8.2-6.8 4-4.6-3.4-7.6 2.8-2.9 3.4 4.6 8.4 3.1 9.3.9 1.2-4-4.8-4.8 5.3-7.4-12-4.3-3.2 6.3-4-5.1-22.2-7.7-21.1 3.7-3.1 1.7v1.7l4.5 2.3-.6 5.4-8.1-3.4-18 7-3.1-6.5H834l-5.7 6-20-4.5-18.3 3.6-2.2 5.7 2.8.9-.3 4.2-17.7 2 1.1 5.7-16.3-2.9 4-7.3-16.7-.9 1.4 7.7L741 49l-4.5-4.2-18.3 3.1-7 6.5-.4 4-4.5.3-.5-4.6L720 41.7V33l-9.2-2.5-12.2 4-5-5.2h-2.3l-2.8 5.7 2.3 2.6-16.1 8.8L660.9 57l-8.4 11.6v4.8l9 3.7-4.5 3.4-9.6-3.4-4 3.4-5.9-6.8-1.1 2.6 6.5 20.4 1.7.6L649 95l2.2 1.7v3.7l-4.2-1.7-2.5 2 1.7 3.6-1.5 9.7-8.7.8-.5-3 5-3.2 1.2-8.5-5.7-7.4-2-12.8-9-1.4-.8 4.5 1.7 2.3-3.7 3.1 1.4 8.6 5.4 2.2 1.1 6.3-5.3-3.4-13.8-2.6-1.7 4.6-11 4-1.7-3-14.4 8-.3 5.4-5.6.9 1.7-4v-4l-5.6-2-3.7 1.5 3 6 2.3 3.9v3.1l-4.2-.8-.8-.9-4.2 4.6 2.2 4-9.6-.3 3.1 4-.8 1.6h-5l-3.7-2.5-.9-7.1-5.9-2.3v-2.8l12.4 2.5 6.8.6 2.8-4.3-2.6-4.5-18-7-6.2 1.5-2.1 1.8.6 4.2 2.7.4-.6 6.7 8.1 19.1-5.9 9.4-.4 2 3 2.2-2.7 1.8h-1.8l.4 8.2 2.4 3.5v3.4l3.2.3 4.9 1.9 5.1 7v2l-1.6 2.8 3.8-.2 3.8 1 5 7.2 12.4 1.1-.5 8.5-4.3 3.7.9 1.4-4.2 4.5-1.2 4.3 2.6 3.7 8.2 2.8 3.3-2 21.7 8.3.9-2.3-4.5-4.3v-5.4l-2.9-.8.6-4.6 4.5-5.4-8-6 .5-8.4 8.6-5.7 10.2.6 1.7 3.1 10.4.6 7.6-4.3-4-4.2.9-8 19.7-9.6 15.2 6.8 5-4.5 15 14.1 11.2-1 4 3.9 10.7 1.1 7-9.6 9 4 4.8.8 4.8-4.3-4.2-2.8 3.6-5.7 10.4 3.4 2.3 4.6 4.5.3 2.8-2 7.6-.3.9 2 8.7.5 6-6.2 12 1.4 3.7-1.4 1.1-6.8-3.7-8.2 3.7-3.2h11.5l11 13 14.1 8h4.2l.6-3.4 5-3.1.6 18.4-4.5.3v4.6l2.5 3-.4 4.1 1.8.8 1.2-2.8 1.7.6 1 1 5.2-1 5-14.8.6-18.4-6.5-14.8-8.2-10-4 .6v3.2l-9.5-3.7 3.7-8 3-21 13-4 6.2-3.9h6.8l-1.7 2.3 1.7 2.8 5.9-6.2 3.4.2-.6-3.6-5.3-1.2 3.6-13.3 4.9-4.6Z"/>
    </mask>
    <path fill="#282532" d="m876 78.5 2 6.8 4 1.2 4-6.3-2.3-4.2.8-3.7h6L889 75l.6 10.2-8.5 21 .9 4.6-.3 7.6 15.8 23 3 .9.3-18.7 3.1-2.9-3.4-7.4 2.9-3-6.2-8.3-3.4.3-1.1-13.6 8.7-2.3.5-4 4.6-1.1 2.5 2.2 3-12.4 5.4-9.1 4.2-2.3 3.7.3v-4.3l-5.9-1.1-8.2-6.8 4-4.6-3.4-7.6 2.8-2.9 3.4 4.6 8.4 3.1 9.3.9 1.2-4-4.8-4.8 5.3-7.4-12-4.3-3.2 6.3-4-5.1-22.2-7.7-21.1 3.7-3.1 1.7v1.7l4.5 2.3-.6 5.4-8.1-3.4-18 7-3.1-6.5H834l-5.7 6-20-4.5-18.3 3.6-2.2 5.7 2.8.9-.3 4.2-17.7 2 1.1 5.7-16.3-2.9 4-7.3-16.7-.9 1.4 7.7L741 49l-4.5-4.2-18.3 3.1-7 6.5-.4 4-4.5.3-.5-4.6L720 41.7V33l-9.2-2.5-12.2 4-5-5.2h-2.3l-2.8 5.7 2.3 2.6-16.1 8.8L660.9 57l-8.4 11.6v4.8l9 3.7-4.5 3.4-9.6-3.4-4 3.4-5.9-6.8-1.1 2.6 6.5 20.4 1.7.6L649 95l2.2 1.7v3.7l-4.2-1.7-2.5 2 1.7 3.6-1.5 9.7-8.7.8-.5-3 5-3.2 1.2-8.5-5.7-7.4-2-12.8-9-1.4-.8 4.5 1.7 2.3-3.7 3.1 1.4 8.6 5.4 2.2 1.1 6.3-5.3-3.4-13.8-2.6-1.7 4.6-11 4-1.7-3-14.4 8-.3 5.4-5.6.9 1.7-4v-4l-5.6-2-3.7 1.5 3 6 2.3 3.9v3.1l-4.2-.8-.8-.9-4.2 4.6 2.2 4-9.6-.3 3.1 4-.8 1.6h-5l-3.7-2.5-.9-7.1-5.9-2.3v-2.8l12.4 2.5 6.8.6 2.8-4.3-2.6-4.5-18-7-6.2 1.5-2.1 1.8.6 4.2 2.7.4-.6 6.7 8.1 19.1-5.9 9.4-.4 2 3 2.2-2.7 1.8h-1.8l.4 8.2 2.4 3.5v3.4l3.2.3 4.9 1.9 5.1 7v2l-1.6 2.8 3.8-.2 3.8 1 5 7.2 12.4 1.1-.5 8.5-4.3 3.7.9 1.4-4.2 4.5-1.2 4.3 2.6 3.7 8.2 2.8 3.3-2 21.7 8.3.9-2.3-4.5-4.3v-5.4l-2.9-.8.6-4.6 4.5-5.4-8-6 .5-8.4 8.6-5.7 10.2.6 1.7 3.1 10.4.6 7.6-4.3-4-4.2.9-8 19.7-9.6 15.2 6.8 5-4.5 15 14.1 11.2-1 4 3.9 10.7 1.1 7-9.6 9 4 4.8.8 4.8-4.3-4.2-2.8 3.6-5.7 10.4 3.4 2.3 4.6 4.5.3 2.8-2 7.6-.3.9 2 8.7.5 6-6.2 12 1.4 3.7-1.4 1.1-6.8-3.7-8.2 3.7-3.2h11.5l11 13 14.1 8h4.2l.6-3.4 5-3.1.6 18.4-4.5.3v4.6l2.5 3-.4 4.1 1.8.8 1.2-2.8 1.7.6 1 1 5.2-1 5-14.8.6-18.4-6.5-14.8-8.2-10-4 .6v3.2l-9.5-3.7 3.7-8 3-21 13-4 6.2-3.9h6.8l-1.7 2.3 1.7 2.8 5.9-6.2 3.4.2-.6-3.6-5.3-1.2 3.6-13.3 4.9-4.6Z"/>
    <path stroke="#282532" stroke-width="1.6" d="m876 78.5 2 6.8 4 1.2 4-6.3-2.3-4.2.8-3.7h6L889 75l.6 10.2-8.5 21 .9 4.6-.3 7.6 15.8 23 3 .9.3-18.7 3.1-2.9-3.4-7.4 2.9-3-6.2-8.3-3.4.3-1.1-13.6 8.7-2.3.5-4 4.6-1.1 2.5 2.2 3-12.4 5.4-9.1 4.2-2.3 3.7.3v-4.3l-5.9-1.1-8.2-6.8 4-4.6-3.4-7.6 2.8-2.9 3.4 4.6 8.4 3.1 9.3.9 1.2-4-4.8-4.8 5.3-7.4-12-4.3-3.2 6.3-4-5.1-22.2-7.7-21.1 3.7-3.1 1.7v1.7l4.5 2.3-.6 5.4-8.1-3.4-18 7-3.1-6.5H834l-5.7 6-20-4.5-18.3 3.6-2.2 5.7 2.8.9-.3 4.2-17.7 2 1.1 5.7-16.3-2.9 4-7.3-16.7-.9 1.4 7.7L741 49l-4.5-4.2-18.3 3.1-7 6.5-.4 4-4.5.3-.5-4.6L720 41.7V33l-9.2-2.5-12.2 4-5-5.2h-2.3l-2.8 5.7 2.3 2.6-16.1 8.8L660.9 57l-8.4 11.6v4.8l9 3.7-4.5 3.4-9.6-3.4-4 3.4-5.9-6.8-1.1 2.6 6.5 20.4 1.7.6L649 95l2.2 1.7v3.7l-4.2-1.7-2.5 2 1.7 3.6-1.5 9.7-8.7.8-.5-3 5-3.2 1.2-8.5-5.7-7.4-2-12.8-9-1.4-.8 4.5 1.7 2.3-3.7 3.1 1.4 8.6 5.4 2.2 1.1 6.3-5.3-3.4-13.8-2.6-1.7 4.6-11 4-1.7-3-14.4 8-.3 5.4-5.6.9 1.7-4v-4l-5.6-2-3.7 1.5 3 6 2.3 3.9v3.1l-4.2-.8-.8-.9-4.2 4.6 2.2 4-9.6-.3 3.1 4-.8 1.6h-5l-3.7-2.5-.9-7.1-5.9-2.3v-2.8l12.4 2.5 6.8.6 2.8-4.3-2.6-4.5-18-7-6.2 1.5-2.1 1.8.6 4.2 2.7.4-.6 6.7 8.1 19.1-5.9 9.4-.4 2 3 2.2-2.7 1.8h-1.8l.4 8.2 2.4 3.5v3.4l3.2.3 4.9 1.9 5.1 7v2l-1.6 2.8 3.8-.2 3.8 1 5 7.2 12.4 1.1-.5 8.5-4.3 3.7.9 1.4-4.2 4.5-1.2 4.3 2.6 3.7 8.2 2.8 3.3-2 21.7 8.3.9-2.3-4.5-4.3v-5.4l-2.9-.8.6-4.6 4.5-5.4-8-6 .5-8.4 8.6-5.7 10.2.6 1.7 3.1 10.4.6 7.6-4.3-4-4.2.9-8 19.7-9.6 15.2 6.8 5-4.5 15 14.1 11.2-1 4 3.9 10.7 1.1 7-9.6 9 4 4.8.8 4.8-4.3-4.2-2.8 3.6-5.7 10.4 3.4 2.3 4.6 4.5.3 2.8-2 7.6-.3.9 2 8.7.5 6-6.2 12 1.4 3.7-1.4 1.1-6.8-3.7-8.2 3.7-3.2h11.5l11 13 14.1 8h4.2l.6-3.4 5-3.1.6 18.4-4.5.3v4.6l2.5 3-.4 4.1 1.8.8 1.2-2.8 1.7.6 1 1 5.2-1 5-14.8.6-18.4-6.5-14.8-8.2-10-4 .6v3.2l-9.5-3.7 3.7-8 3-21 13-4 6.2-3.9h6.8l-1.7 2.3 1.7 2.8 5.9-6.2 3.4.2-.6-3.6-5.3-1.2 3.6-13.3 4.9-4.6Z" mask="url(#d)"/>
    <path fill="#282532" stroke="#282532" stroke-width=".8" d="M523.5 176.8h-.2l-.1.2-1.7 3.1-.3.6H529.6l-.1-.4-.2-1.7v-.1l-.1-.1-1-1.1v-.2h-.2l-4.5-.3Z"/>
    <path fill="#282532" stroke="#282532" stroke-width=".8" d="M900.9 144.4h-.3l-.1.1-1.4 1.7v3.4h.5l1.2-.1h.2l.1-.2 2.2-3.8.2-.5h-.5l-2.1-.6Z"/>
    <path fill="#282532" stroke="#282532" stroke-width=".8" d="M947 39.4h-.2l-2.6 1.8h-.2v.2l-.6 2.2v.4l1.3 1.4.2.2h.2l2.7-1 2.7 1 1.5.4.6.1v-.5l-.2-5.2v-.3h-.3l-5-.7Z"/>
    <path fill="#282532" stroke="#282532" stroke-width=".8" d="M573.5 39.9h-.4l-2.8 2H567.5l-1.4 1.8v.1l-.1.1-.2 2.4v.2l1.8 2.2.1.1H571.2l3-1.8v-3.5l1.4-2.3.2-.4-.4-.1-2-.8Z"/>
    <path fill="#282532" stroke="#282532" stroke-width=".8" d="M580.5 37.8h-.2v2.8l.1.2 2 1.5v.1h.2l2.7-.2h.2L588 40V37.7h-2.5l-1.5.6-1.2-1.4-.2-.2-.3.1-1.7 1Z"/>
    <path fill="#282532" stroke="#282532" stroke-width=".8" d="m591.5 38-.4.1.2.4 1.4 2.9v.2h.3l2.7.2h.2l1.9-.8.3-.1v-.4l-1-2.7-.1-.2h-.2l-2.5-.6H594l-2.5 1Z"/>
    <path fill="#282532" stroke="#282532" stroke-width=".8" d="M603 34.3v-.2h-.3l-2-.4h-.4l-2 2-.2.2.2.3 1 1.7.5 2.7.1.6.5-.4 2.5-2h.1v-.2l.6-2.1v-.2l-.6-2Z"/>
    <path fill="#282532" stroke="#282532" stroke-width=".8" d="m614.6 54.7-.5-.2v.5l-.6 2.6-4.3 3.7-9.3 2.1h-.2v.2l-7.8 12.8-1.4 3.8-.1.4.4.1 7.7 2h.4v-.3l1.2-4.7 2.3-7 5.8-3 5-4 3.6-1.5H619V56.3h-.2l-4.2-1.6Z"/>
    <path fill="#282532" stroke="#282532" stroke-width=".8" d="M589.6 83h-.5v.4l.2 4.8-3.1.9h-.3v2.7l2.4 3.1v.2h.3l5.4.2 2.4 2.8.1.1H599.6l.1-.2 1.6-3.1.1-.3-.2-.2-4.4-4.6-1.7-5.9v-.2h-.3l-5.2-.7Z"/>
    <path fill="#282532" stroke="#282532" stroke-width=".8" d="m671.2 17.4.4-.3-.4-.3-2.5-1.6H665.3l-.1.3-.5 1.6-3 1.6-2.2.8h-.3v.3l-.4 2.3v.4h.4l5.4.5h.1l.2-.1 6.3-5.5Z"/>
    <path fill="#282532" stroke="#282532" stroke-width=".8" d="M677 17.3h-.3l-.1.3-1.3 2.6-2.4-.1h-.2l-4.3 3.1-.1.1v.1l-1.2 4-.1.4H670.4l.1-.2 1.3-2.1 3.4 2.4.1.2.3-.1 3.4-1.6h.1l2.5-2.2.2-.1v-.3l-1-3.3-1.4-2.4V18h-.2l-2.2-.7Z"/>
    <path fill="#282532" stroke="#282532" stroke-width=".8" d="M682.6 19.5h-.6l.2.4 1.3 5.5 2.2 5.1.3.7.4-.7 2.2-3.9 4.3-1h.3v-3.4l-.2-.1-2.9-2.2h-.2l-7.3-.4Z"/>
    <path fill="#282532" stroke="#282532" stroke-width=".8" d="M787.6 13.7 786 12l2.3-.5 2.9 2.4.2.1h.2l2.1-1h.2v-.2l.7-3.6v-.2l-.2-.2-4.4-3-.2-.2-.2.2-2.8 1.8-7 .7h-.3V11.5l-7 .1h-.4V17.5l.1.1L781 24l.2.2.3-.2 2.2-1.7h.2V22l-.5-4.2 5.2-1.3.5-.2-.2-.4-1.2-2.1v-.1Z"/>
    <path fill="#282532" stroke="#282532" stroke-width=".8" d="m796.4 7.7-.5.1.2.5 2 3.8.2.2h.2l7.8-.9h.2v-.2l2.2-2.7.1-.2v-.2l-.5-2.4v-.2h-.2l-2.2-1h-.2l-.2.1-1.9 1.5-5.7 1.2-1.5.4Z"/>
    <path fill="#282532" stroke="#282532" stroke-width=".8" d="M796.2 22.6h-.1l-4-1-.2-.1-.1.1-2.3 2.4v.2l-1 3.3-.2.5h.5l5.3-.5h.1l4-2 .6-.3-.4-.4-2.2-2.2Z"/>
    <path fill="#282532" stroke="#282532" stroke-width=".8" d="M897.4.8V.7h-.2l-3.3-1-.1-.1h-.2L890 1h-.1l-.1.2-1.9 2.8-.2.2.2.2 2.4 3.2.2.2.3-.1 6.3-2.8 1.3-1.5.2-.2-.1-.2-1-2.2Z"/>
    <path fill="#282532" stroke="#282532" stroke-width=".8" d="M898.2 151h-.4V156.4h.3l1.5.6.3.1.2-.3 1-1.7V150.7h-.3l-2.6.1Z"/>
    <path fill="#282532" stroke="#282532" stroke-width=".8" d="m854.7 133.9-.7-.6v8l8.6 13.3 3.1 11.6v.1l5.5 10.4v.1h.2l2.2.8H873.9l1.9-1.6v-.1l1-2.5v-.2l-.1-.2-7.8-8.4.2-4 1.5-.7h.2v-.3l.5-2.6V156.7L855.8 135l-1.2-1.1Z"/>
    <path fill="#282532" stroke="#282532" stroke-width=".8" d="m915.1 112.4-.1-.1h-.2l-2.1.2h-.7l.4.6 1.3 1.9 2.7 2 .3.1.3-.3.7-.8.2-.3-.2-.2-2.6-3Z"/>
    <path fill="#282532" stroke="#282532" stroke-width=".8" d="m919.1 113.6-.6-.2.1.7.4 1.8v.2l.2.1 3.3 1h.4l.1-.3.4-1.3v-.3l-.3-.2-4-1.5Z"/>
    <path fill="#282532" stroke="#282532" stroke-width=".8" d="m937.3 120.7-.8-.2.4.7 1.4 2.5v.3h.3l2.4-.2h.2l.1-.3.5-1.7v-.5h-.3l-4.2-.6Z"/>
    <path fill="#282532" stroke="#282532" stroke-width=".8" d="M960.7 124.6h-.6l.3.5 1.8 3.5.3.5.4-.4 1.4-1.6V124l-.4.1-3.2.5Z"/>
    <path fill="#282532" stroke="#282532" stroke-width=".8" d="m562.4 377.4-.3-.3-.3.4-1.9 2.6V384.2h.4l4.9-.1h.3v-.4l.2-3v-.3h-.2l-3.1-3Z"/>
    <path fill="#282532" stroke="#282532" stroke-width=".8" d="M614.2 280.4v-.1h-.2l-5.3-2.1-.4-1.5v-.3h-.4l-6.5.3-11.1-9.3h-.2l-6.6-.4h-.2l-3.2 2.6-.3.3.3.3 1.4 1.4-.2 2-5.2 4.5h-4.7v.4l.6 3.4.1.1 15.4 18.7v5.1l1.6 2.4.2.1 4.1 1.9 6.2 10 .2.4.4-.3 4.2-3.7 7.1 4.2.3.1.2-.2 6.1-6 11.6-3.5 8-4.7h.1v-.2l1.4-6 .1-.4-.3-.1-1.3-.7h-.1l-11.9-1-1-4.6v-.2h-.2l-2.5-2-7.8-11Z"/>
    <path fill="#282532" stroke="#282532" stroke-width=".8" d="M956 399.3h-.4l.1.5 1.4 3.9.1.1 2.5 2.4.2.2.3-.2.7-.7h.2v-.3l-.3-2.5v-.2l-2.9-3.4-.1-.2h-.2l-1.6.4Z"/>
    <path fill="#282532" stroke="#282532" stroke-width=".8" d="M963 405h-.6v.5l.2 2.5v.2h.2l1.5 1.5.2.3.3-.2 1.5-1 .3-.1-.2-.3-1.3-2.7v-.2h-.3l-1.9-.5Z"/>
    <path fill="#282532" stroke="#282532" stroke-width=".8" d="m965.2 411.6-.3-.5-.4.4-1.3 1.4-.2.2.2.3 1.4 2.5v.1h.2l1.6.6.6.1v-.5l-.1-1.7v-.1l-.1-.1-1.6-2.7Z"/>
    <path fill="#282532" stroke="#282532" stroke-width=".8" d="m968.1 410-.7-.3.3.7 1.1 2.8v.1l2.3 2.7.3.4.3-.5 1.2-2 .1-.1v-.2l-1.7-2.8-.1-.2h-.2l-2.9-.7Z"/>
    <path fill="#282532" stroke="#282532" stroke-width=".8" d="m974 414.2-.8-.7.2 1 .6 3.5v.1l1.6 2.2.4.5.3-.5 1.3-2.8.1-.2-.2-.2-3.5-3Z"/>
    <path fill="#282532" stroke="#282532" stroke-width=".8" d="m975.6 421.9-.3-.1-.1.2-.6 1-.1.3.2.2 1.8 2.4.1.2h1.5l.6.1-.2-.5-.8-3.2v-.3h-.3l-1.8-.3Z"/>
    <path fill="#282532" stroke="#282532" stroke-width=".8" d="m971.7 427-.1-.3-.4.1-2 1-.4.1.3.4 1.7 2.4.2.3.3-.2 1.5-.8.3-.2-.2-.3-1.2-2.5Z"/>
    <path fill="#282532" stroke="#282532" stroke-width=".8" d="m634.6 398-.3-.2-.2.4-.7 1.4-.1.2.2.2 1.9 1.6.3.2.2-.3 1.4-1.5.3-.4-.4-.2-2.6-1.4Z"/>
    <path fill="#282532" stroke="#282532" stroke-width=".8" d="m644.4 387.9-.2-.4-.4.2-2 1.4-.4.2.2.3 1.6 2.4v.2h2.9l-.2-.5-1.5-3.8Z"/>
    <path fill="#282532" stroke="#282532" stroke-width=".8" d="M644.9 393.7h-.2l-.1.1-1.4 1.6-.2.2.2.2 1 1.6v.1h.2l2 .4h.3v-.4l.2-3.2v-.4h-.3l-1.7-.2Z"/>
    <path fill="#282532" stroke="#282532" stroke-width=".8" d="m570 338.4 4.4 6.5.4.6.3-.7 1.4-3 6-12.8V320.2l4.7-5.6.2-.3-.1-.2-9-14.3-.2-.4-.3.4-4 4-28.8-.2h-.4v.4l.3 7-2.3-.1h-.4v.3l-.2 13.1-4 3.5-.2.1v.2l-.2 5.5v.2l3 6h.1l.1.1 3 1.8-.2 2.3-.1.6.6-.2 5.5-2 12.8 1.3h.1l4-1 .2-.1v-.1l3.2-4Z"/>
    <path fill="#282532" stroke="#282532" stroke-width=".8" d="m517.5 113.7-.2-.2-.2.1-4 1.4h-.1l-.1.2-8.3 11.9v.2l-.8 9.7-2.7 1.5-.2.1v.3l-.3 17.3-4.2 7-.1.2.1.2 5.1 7.9 1.3 6v.4H505.7v-.2l1.6-3.4 4.6-1.6h.3v-.4l-.2-8.7 3-2.6 2-3.2v-.1l.5-2.3v-.2l-.1-.2-5.2-3.8-.2-4.6 2.9-5 2-.1h.2l.1-.2 4-5.4V132l5.4-3.9h.2v-.3l-.7-7.5v-.1l-2.3-4.4v-.2h-4.3l-2-1.9Z"/>
    <path fill="#282532" stroke="#282532" stroke-width=".8" d="m518.4 165-.2-.6-.4.4-2.4 1.8-.2.2.1.3 1.2 2.7.2.6.4-.4 2.1-2 .2-.2v-.3l-1-2.6Z"/>
    <path fill="#282532" stroke="#282532" stroke-width=".8" d="m793.2 370.6-.4.4.4.3 1 .5h.2l2-.1h.4v-.5l-.2-1.5v-.4h-.5l-1.6.3h-.1l-.1.1-1.1 1Z"/>
    <path fill="#282532" stroke="#282532" stroke-width=".8" d="M514.3 212v-.7l-.6.3-2.8 1.7-5.2 1.1-.4.1v.4l1.2 3.1v.3h4.3l3.4-3h.2V212Z"/>
    <path fill="#282532" stroke="#282532" stroke-width=".8" d="m514.8 206.2-.3.3.3.3.7.6v1l.1.3h.4l8.5-.2h.1l6.4-2.7.2-.1V202.6l-.1-.5-.5.2-1 .5-1.6-.9H526.6l-2.7 1-3.7-.9h-.2l-.1.1-5 4Z"/>
    <path fill="#282532" stroke="#282532" stroke-width=".8" d="m423 347.4-.3.3.3.3 6.4 6.1.3.3.2-.3 4.5-5.5.2-.2-.1-.3-2.9-4.4v-.2h-.3l-4 .4-.1.1-4.1 3.4Z"/>
    <path fill="#282532" stroke="#282532" stroke-width=".8" d="m417 336.7.7-1.8 9.1 1h1.1l4.4.1h.4v-.3l.2-2v-.2h-.1l-4-4.9-4.5-6v-.2h-.2l-2.8-1.2h-.2l-2.2.6h-.1l-4.4 3.2-.1.2-1 1.7v.1l-.4 1.9v.2l.2.1 1.6 1.2h5.7l3.1-.8.3 1.2-.2 2-.9.2-7.4-.2h-.6l.2.6 1.4 3.4.4.9.4-1Z"/>
    <path fill="#282532" stroke="#282532" stroke-width=".8" d="M622.7 337.2h-.4l.1.4 1.2 4.2-.8 3.7-2.9 2.6-11.4 12-7.7 2.4h-.1l-3.7 4.3-.1.1v.2l.2 11v.2l.1.1 2.9 2 .3.2.2-.3 24.4-26.1v-.1h.1l4.5-13 .2-4.4v-.2l-.1-.2-1.8-1-.1-.1h-.2l-5 2Z"/>
    <path fill="#282532" stroke="#282532" stroke-width=".8" d="m288.2 356.4-.3-.3-.3.3-3 3.4v.2l-.3 2v.2l.2.1 4 3.7-.3 4.4v.6l.5-.2 6.5-2.7h.2v-.3l.2-7 1.3-2.7.5-1.3.1-.5h-.5l-3.2-.1h-.2l-3.3 2-2.1-1.8Z"/>
    <path fill="#282532" stroke="#282532" stroke-width=".8" d="m574.5 345.8.5-.2-.3-.4-4.5-6.2-.3-.4-.3.4-2.8 3.7-4.2 1-12.8-1h-.1l-5.9 1.8-1.4.9-.5.2.4.4 13.8 14.2h.2l7.4.5 1 1.5v.2h.3l10.7.2h.4v-.4l.1-2.3.8-1.4 3.4-.5h.6l-.4-.6-4.4-6.5-.1-.1h-3.2l-.7-4 2.3-1Z"/>
    <path fill="#282532" stroke="#282532" stroke-width=".8" d="M486.8 374.3h-.3v.4l.2 1.1v.3h.2l1.2.5.3.1.2-.3 1-1.4.1-.3-.2-.3-1-.7-.2-.2-.2.1-1.3.7Z"/>
    <path fill="#282532" stroke="#282532" stroke-width=".8" d="m489.5 370.1-.5.1.2.5.7 1.8v.2h.3l1 .2h.1l.2-.2 1-1 .1-.2-.1-.3-.7-1.2v-.2h-.4l-2 .3Z"/>
    <path fill="#282532" stroke="#282532" stroke-width=".8" d="m185.1 328.6-.3.3.4.3 5.3 2.6.6.3v-.7l-.1-4.1v-.3h-.2l-2.7-1.7-.3-.2-.2.3-2.5 3.2Z"/>
    <path fill="#282532" stroke="#282532" stroke-width=".8" d="M572 253.2h-.3v.3l-.4 2.9v.2l.2.2 3 1.2-.2 7.6v.4h3.7v-.1l3.2-2.4 1-.2h.2l7.2-5.7.1-.1v-.2l1.5-8.3v-.5h-.4l-14.4 1.5h-.2v.3l-1.5 3-2.6-.1Z"/>
    <path fill="#282532" stroke="#282532" stroke-width=".8" d="M565.8 460.4H565.5l-2.8.4h-.3v.3l-1.3 3.3v.2l.1.2 2.2 2H566.5v-.1l2.3-3.2.2-.3-.3-.2-3-2.6Z"/>
    <path fill="#282532" stroke="#282532" stroke-width=".8" d="M511.5 324.9V325.2l-.2 3.1-2.7 2.4-.4.3.4.3 3.7 2.7h.2l2.7.5v7.3l-2 1.6h-.2v.2l-.2 1.4v.3l.2.1 1.6.8 2.3 4.3v.2h.3l3.4.4.4.1v-1.1h6v-.3l.3-2.3 7.8-7.8H540.5l-.3-.6-2.7-5.2v-6l4-3.6h.2v-.2l.2-12.3v-.2l-.3-.2-24-12.5H517.4l-2.5 1.3-.3.2.2.3 3.4 6.7-1.3 12.4-5.3 5.1Z"/>
    <path fill="#282532" stroke="#282532" stroke-width=".8" d="M469.2 356.8v.7l.6-.4 3-1.7.2-.1v-.3l-.1-11.6v-.2l-2-3.1-.3-.4-.3.3-1.3 1-.1.1v.2l.3 15.5Z"/>
    <path fill="#282532" stroke="#282532" stroke-width=".8" d="m777.8 299.6-.2-.2-.2.1-7.2 3-.2.1v.2l-.7 4.2v.2l.1.1 5.7 7.2.3 4.7-1.3 1.3-.1.2v.2l.2.7v.1l4.3 6.2v7l-1.6 3v.1l-.6 2.4-1.6 2.6-.1.2v.1l1.2 3.2.1.2 3.8 3h3l2.8 4.2v.2h.3l3.1.1h.4v-.3l.3-1.7v-.2l-.1-.1-5.9-5.7-3.2-5.9.4-14 .7-1h1.5v3.1h.2l5.1 3.6.2.2.2-.2 1.5-.7.2-.1v-.2l.2-2.7v-.2l-.2-.2-2-1-.4-2 2.4-4.2h1.2l1.9 1.1h.1l2.3.4.4.1v-.4l.3-5.5v-.1l-.1-.1-6.9-8-.2-.1-1.1-.4H788l-5.6 2.7-.9-.4V304.4l-3.7-4.8Z"/>
    <path fill="#282532" stroke="#282532" stroke-width=".8" d="m665.3 234-.2.3.3.2 2.7 2-.2 6v.4h2.2l3-1 .3-.1V239.9l2.8-2.4 1.9 1.7-.2 3.4v.4h.4l3 .2h.4v-.3l.2-2.5 2.6-.4 1.5.1.7 1.4.1.3h.3l.8-.1h.2l.1-.2.6-1.3.1-.2v-.1l-2-4.3-.2-.2h-.2l-3.7-.4-.6-1.9-.1-.2h-.2l-1-.2h-.2l-2.2.9-6.5-.4-1.2-.8v-1l2-1.3.3-.2-.2-.3-.6-1.3v-.2H670l-.2.1-4.6 5.7Z"/>
    <path fill="#282532" stroke="#282532" stroke-width=".8" d="M625 229h-.4v.3l-.7 2.7h-4.7V236.6h.2l4.7 3.2-1.4 4.2v2.6h.3l2 .4h.3l.1-.2 2.7-3.5 6-1.3 12.9 4.9.1 3.4v.3h.4l7.4.7h.2l8.4-8.8.1-.2v-.2l-1-2.8-.2-.2h-.2l-5.4-1.2-15.3-10-.7-3.4v-.3h-6.5v.2l-2.6 4.6H625Z"/>
    <path fill="#282532" stroke="#282532" stroke-width=".8" d="m491.5 251.2-.3.1v.3l1.8 7.9-1.8 1.4-.2.1v.2l.5 3.5v.1h.2l4 4-.4 4v.2l.2.1 1.2 1.1.1.2h.2l1.5-.3h.3v-.4l.2-3.8h1l.2.1v-.2l3.4-5.2.3-.4-.5-.2-3.9-1.4v-.8l1-1.7v-4.4l-.2-.1-.8-.4-.1-1.9.9-1V250h-.2l-2-1.4h-.4l-6.2 2.5Z"/>
    <path fill="#282532" stroke="#282532" stroke-width=".8" d="m546.7 236.3 2-1.4 3.5 1-1.9 1.8-6.5-.3h-.2l-.1.1-2.5 2.7-.1.1v1.7l.1.1 1.5 1.2v1.2l-.7 1.7V246.5l.7 1.4.2.4.3-.2 1.9-1 1.7 2-.4 1.3-.8 1-.1.2.2.3 1.1 1.3.1.1h.2l5.7 1.2h.2l4.1-1.7.3-.1v-2.3l1.4.3 4.7 2.7h.2l5.2-.7.2-.1 2-2 1 .4v2.5h2.6l.1-.3 1.6-3 14.8-1.6 6.5-.8.7-.1-.4-.6-1.7-2.1v-2.8l1.2-1.5.3-.3-.3-.2-4.7-3.7.3-3.1v-.4H590l-4.3-2.1-.3-.2-.2.3-2.3 2.5-9-.3-5.4-3.2v-.1h-.2l-5.3.5h-.2l-5.7 3.5-4-.5-3-1.8-1.5-1.3-.2-.2-.2.1-2.8 1.2h-.2v.2l-2 4.9-.2.7.7-.2 2.9-.6.1-.1Z"/>
    <path fill="#282532" stroke="#282532" stroke-width=".8" d="M275.8 338H275.5l-1.1 1-1.2.3h-.3v2.2l2.5 2.2.3.3.3-.4 1-1.6.6-1.8v-.2l-.2-1.5v-.3h-.3l-1.3-.2Z"/>
    <path fill="#282532" stroke="#282532" stroke-width=".8" d="M842.3 275v-.7l-.7.4-4 3v.4l-.3 5.8v.1l.1.2 3.4 4 .3.2.3-.2.8-.8h.2v-.3l-.1-12Z"/>
    <path fill="#282532" stroke="#282532" stroke-width=".8" d="m577.7 412.9.1.3h.4L596 411h.6l-.3-.6-4.3-8.4-.3-8 1.4-3.8.2-.3-.3-.2-18.6-11.7H574l-5.8 1h-.2l-2 1.5-.2.1v.2l-.2 3.4-1.3 4.6-1.2 1.4-1.8.2h-.4l.1.5 3.6 12.2v.1l.2.1 6.3 3.7h.1l5.2.2 1.2 5.7Z"/>
    <path fill="#282532" stroke="#282532" stroke-width=".8" d="M537.2 190.4h-.1l-3.3 2h-.3v.3l.8 3.4-2.9 6.2v3.1l.2.2 1.4.9h.2l9 .5h.2v-.1l2.5-2 2.3.8 3.7 5-2.7 4.8-.2.4.4.2 3.4 1h.2l.2-.2 4.3-5 2.2.5 2 1.4-1.9 2.4-.1.2.1.2 2.8 4.4.1.2h3.5v-.2l1.5-2.8 3-.6h.3v-.4l.1-2.3v-.4h-.3l-5.5-.9v-1.8H570l6.2-5 2.7-2.4h.2v-.3l.4-7.4v-.4h-.3l-12-1.1-4.8-6.9h-.1l-.1-.1-3.5-1.2-4.3.2h-.2l-.1.2-1.8 4.4-8.1.1-2.7-1.2h-.1l-4-.3Z"/>
    <path fill="#282532" stroke="#282532" stroke-width=".8" d="m562.4 376.6-.2.2.2.3 3.4 3.1.2.3.3-.2 2-1.3 5.7-1 1 .2h.3v-.4l.4-2.1 3.2-6.8.1-.2v-.1l-2.8-5.7-.1-.2H566.6v3l1.1 1-.2 2.1-5.1 7.8Z"/>
    <path class="united-states" fill="#282532" stroke="#282532" stroke-width=".8" d="m126.2 173.9-.3-.1-.1.3-1 4-3.5-2.2H118.8l-.1.2-1.1 4.8-13.7 30.6v.2l3.6 26.7v.2l.2.1 4.3 2.2.8 7v.4h9.5l8.8 6.7h.2l17.3 1.7 2 8.8v.1l2.9 2 .2.3.3-.3 3.7-3.7 2.6 1.2 2.8 12.7v.2h.1l4.8 3.2.3.2.2-.4 4-7.2 11.7-8.6 7.6 3.6 6.8.6h.4v-.4l.3-3.8 13.4.3 2.6 2.8.5 6.8-1.6 3.9v.2l2 6.8v.3h4.7l.1-.2 4.2-6.5.1-.2v-.2l-1.7-3-1.7-6.6 2.5-7.4 11.3-9.7 8.5-2.5.4-.1v-.3l-1.2-8 11.8-12.7 11.9-2h.4l-.1-.5-1.9-6.4 11.5-6.6.2-.1v-9.5h-.2l-1.2-.7H275.6l-4.2 1.4-.2.1v.3l-.5 5.1-13.6.2h-.2l-10.9 7.3-16.8 5.5-2.4-3 7.6-11.5.2-.2-.3-.3-3.8-3.6-2.5-5h-.1l-5.4-4.4H222.2l-5.7-.5-11-7.6h-.2l-79-13Z"/>
    <path class="united-states" fill="#282532" stroke="#282532" stroke-width=".8" d="m37.2 56.3-.6.5 3.9 7.2.1.3h.3l2.5-.6.3-.1v-3l-.2-.2-6.3-4.1Z"/>
    <path class="united-states" fill="#282532" stroke="#282532" stroke-width=".8" d="m15.3 120-.6-.3v.6l-.2 3.4v.5h.5l2.4-.7h.3v-2.1h-.2l-2.2-1.4Z"/>
    <path class="united-states" fill="#282532" stroke="#282532" stroke-width=".8" d="m11.7 121.6-.2-.2-.3.1-4.8 2.5-.3.1v.3L7 127l.2.6.4-.4 1.9-1.4L13 124l.5-.2-.3-.4-1.5-1.9Z"/>
    <path class="united-states" fill="#282532" stroke="#282532" stroke-width=".8" d="m64 46.8-.1-.1h-.2L54.3 49h-.4l.1.4L56 60v.2l.2.1 10 2.7.4 1.7-14.8 4.6h-.2v.2L43 83.7V84l3 15v.2h.1l5 3.4.3.2.2-.2 3.5-3.3.8 1.5-4.5 5.3-18.2 8.4-11.6 2.7-.2.1v.3l-.3 4.2v.5l.5-.1 26.8-7.8 11-3.1h.2v-.1l10.2-12.5 10-6.6-5 8.3-.3.5.6.1 6.3.8h.2L92 97.3l1.8 7.3v.2h.3l7.4 1.7 7.5 7.4.6 5.2-1 1.3-.2.2v.2l1.5 5.2v.3H112.5v-.3l.3-8.6h1.5l.5 21.6v.9l.7-.6 5.5-4.7.2-.2v-.2l-4-22.8v-.3H111.3l-6.1-7.8 31-52.7.3-.3-.3-.2-31-24.2-.1-.1h-.2l-34.6 6.7h-.2v.3l-1.5 10.6v.3h.2l7.2 4.4-2.4 6.4-9.6-7.7Z"/>
    <path fill="#282532" stroke="#282532" stroke-width=".8" d="m296.2 480.5-.2-.2-.3.3-2.3 2.4V483.3l.9 13.2v.3h.3l7.2 2.1.2.1.2-.2 9.1-9.2.4-.3-.4-.3-15-8.5Z"/>
    <path fill="#282532" stroke="#282532" stroke-width=".8" d="M663.9 242.4v.2h.3l3.4.2h.5V236.4h-.2l-3-1.8 5.2-6.4h1.9l2.1 2.5.2.2.2-.1 5.9-2.3 1-.4-1-.3-7.9-2.7-.3-1.5v-.4l-.5.1-1.9.5h-.1l-.1.2-1.8 3-7.7-.2-6-8.3v-.2h-.3l-10.3 1-5-4.8-.1-.1-7-1.2h-.2l-5 2-.4.2.1.4 3 9.6v3.6H631.6l.1-.1 2.5-4.8h6.5l1 3.6v.2l15 10 5.7 1.3 1.5 3.3Z"/>
    <path fill="#282532" stroke="#282532" stroke-width=".8" d="m275.8 330.3-.2-.3-.3.3-1.4 1-.3.2.2.3 1.1 2 .2.3.3-.2 1.8-1 .4-.2-.3-.4-1.5-2Z"/>
    <path fill="#282532" stroke="#282532" stroke-width=".8" d="m274 334.1-.2-.1-.2.2-1.3 1.3-.2.2.1.3.5.7.1.2h2.1l.1-.2.5-1.3.1-.3-.3-.2-1.2-.8Z"/>
    <path fill="#282532" stroke="#282532" stroke-width=".8" d="m240.5 339.5-.2-1-.5.9-2.5 3.7V343.4l2.4 7v.2h.2l13 4.5.8 15.7v.1l.1.1 3.9 4.3v.1h.2l3.9.3h.2v-.1l3-3.1 3-3.2.3-.4-.5-.2-3.7-1.8v-3.5l.9-.9 5.2 2.6.2.1.2-.2 2.5-2v-.1l2.4-3 .2-.1v-.2l-1.5-4.7 4.2-6.3.2-.3-.4-.2-3.7-2.4-5.1-6.3-.2-.1h-.2l-7.4 1.6-8.6-2.4-3.8-4.4-.3-.3-.3.3-3.8 4-.1.2-.8 4.9-3-1-.4-2.7Z"/>
    <path fill="#282532" stroke="#282532" stroke-width=".8" d="m794.1 337.7-.2.2.1.3 1.3 2 .3 2.3v.3h.3l3.5.4h.2l.2-.1 4.2-5.6 3.8-1.1h.2l.1-.2 2.1-5.8v-.2l-1-9.4v-.2L805 315v-.1l-4.3-3.4-5.4-9.3 3.8-6.5.2-.2-.2-.2-5.7-6.6H793.1l-4.5-.3h-.2l-4.1 2.3-.3.1v.3l1.3 5.3v.2h.3l5.2 1 1.3 3.6-1.6 1-.2.2v.2l.1 1v.2h.1l12.8 12.5.4 3.5-.7 11.5-8.9 6.4Z"/>
    <path fill="#282532" stroke="#282532" stroke-width=".8" d="m991.7 441.8-.2-.7-.4.6-1.4 1.8-.1.2v.2l.6 2v.2h.2l.7.6.3.2.2-.3 1.3-1.7V444.6l-1.2-2.8Z"/>
    <path fill="#282532" stroke="#282532" stroke-width=".8" d="M992 447.2h-.3v.5l.1 1.5v.2l.3.1 1.5.5H993.9l1-.6.4-.2-.2-.4-1-1.6-.2-.2h-.3l-1.6.2Z"/>
    <path fill="#282532" stroke="#282532" stroke-width=".8" d="m994.5 460.8-.3-.2-.3.3-.6 1-.2.3.2.2 1 1.2.2.2h.2l1.8-.7.7-.2-.6-.4-2-1.7Z"/>
    <path fill="#282532" stroke="#282532" stroke-width=".8" d="m600.2 320.6-.2.2v.2l1.6 4.8v4.8h.2l3.8 3.6.2.2.3-.1 27.3-11.2h.2v-.3l.3-3v-.2l-4.5-8-.1-.2h-.3l-11 3.6h-.1l-6.2 6-7-4-.3-.2-.2.2-4 3.6Z"/>
    <path fill="#282532" stroke="#282532" stroke-width=".8" d="M631.3 332.2h-.7l.5.6 2.4 2.7.2.3.3-.2 3.2-2 1-.3.7-.2-.5-.5-1.4-1.4-.2-.2-.2.1-2.8.8-2.5.3Z"/>
    <path fill="#282532" stroke="#282532" stroke-width=".8" d="M558.1 448.7h-.2l-.1.1-8.9 8.2v.1l-2 4.8-6.8-.8H539.8l-5.7 5.2-3.4-.4.3-6.8v-.3h-.2l-1.4-.5-.5-.2v.5l-1 14.3h-6.3l-2-2.4v-.1H515.7l.2.5 2.7 8h.1l4.7 4.5-3.3 3.8-.2.2.1.2 2.3 5.2.1.1.2.1 5.2 2 .3.1.1-.1 4.1-3.5h12.1l.2-.1.7-1 5.3-.9.2-.1 18-18 .2-.2v-6.9l-.8.9-1.8 2.3H564l-3.2-2.7 1.6-4 3-.6h.2v-.3l-.3-9.2v-.3h-.3l-6.8-1.7Zm-3.3 28.8h-.2v.3l-.2.8h-4.3l-1.4-3.2 1.3-2.5 4-2.7h1.3l2.5 2.7v3l-3 1.6Z"/>
    <path fill="#282532" stroke="#282532" stroke-width=".8" d="M535.7 427.9v.2l3.6 5 .1.1h.2l5.4.3 1.9 1v.1h6.2l5-7 13.7-6.1h.2v-.3l1.2-5.4v-.2l-1.6-7.8v-.2l-.2-.1-7.2-4.1h-.2l-4.8.3h-.3v.2l-2.5 5.3v2.9h.3l5.5 2.7.3 5.4-4.3.3-1.1-1.9-.2-.1-13.6-5.8-.5-.2v.5l-.4 4.1-6 .2h-.5v.4l-.2 10.2Z"/>
    <path fill="#282532" stroke="#282532" stroke-width=".8" d="M547 436.5v.2l10.1 11.3.1.1h.1l7.7 2h.3l.2-.2 5.1-8 .1-.2-.4-10.8v-.2l-.2-.2-8.4-4.3H561.4l-3.2 1.4-.2.2-4.5 7-6.3-.1h-.5v.4l.3 1.4Z"/>
  </g>
  <defs>
    <clipPath id="a">
      <path fill="#fff" d="M0 0h1031v616H0z"/>
    </clipPath>
  </defs>
</svg>