<svg xmlns="http://www.w3.org/2000/svg" width="64" height="64">
  <circle cx="9" cy="9" r="8.3" stroke="#fff" stroke-width="1.5" transform="matrix(-1 0 0 1 49 15)"/>
  <path stroke="#fff" stroke-width="1.5" d="M58.5 44.1c-.4-3-3-5.4-6.2-5.4H27.7a6.3 6.3 0 0 0-6.2 5.4l-1.6 11.1H60l-1.6-11.1Z"/>
  <path fill="#FF5F3B" d="M3 9a3 3 0 0 1 3-3h18a3 3 0 0 1 3 3v20L6 23.8a4 4 0 0 1-3-4V9Z"/>
  <circle cx="1.5" cy="1.5" r="1" fill="#fff" stroke="#fff" transform="matrix(-1 0 0 1 22 14)"/>
  <circle cx="1.5" cy="1.5" r="1" fill="#fff" stroke="#fff" transform="matrix(-1 0 0 1 11 14)"/>
  <path fill="#fff" stroke="#fff" d="M14 15.5a1 1 0 1 0 2 0 1 1 0 0 0-2 0Z"/>
</svg>