<svg xmlns="http://www.w3.org/2000/svg" xmlns:xlink="http://www.w3.org/1999/xlink" viewBox="0 0 400 472" width="400" height="472" preserveAspectRatio="xMidYMid meet" style="width: 100%; height: 100%; transform: translate3d(0px, 0px, 0px); content-visibility: visible;">
									<defs>
									<clipPath id="__lottie_element_239">
										<rect width="400" height="472" x="0" y="0"></rect>
									</clipPath>
									</defs>
									<path class="infinity-full" fill="#FF5F3B" d="M181.015,427.697H66.305c-10.347,0-18.754-8.4-18.754-18.741V353.11c0-12.925,6.671-24.931,17.631-31.768  l115.084-71.868c10.959-6.837,17.632-18.84,17.632-31.767V69.043c0-10.339,8.406-18.741,18.755-18.741h114.709  c10.349,0,18.755,8.401,18.755,18.741v55.846c0,12.925-6.672,24.931-17.632,31.769l-115.084,71.867  c-10.96,6.837-17.632,18.84-17.632,31.767v148.664C199.77,419.297,191.363,427.697,181.015,427.697z"/>
									<g clip-path="url(#__lottie_element_239)">
									<g class="top-gruop">
										<g opacity="1" transform="matrix(1,0,0,1,0,0)">
										<path fill-opacity="1" d=""></path>
										</g>
									</g>
									<g class="bottom-gruop">
										<g>
										<path d=""></path>
										</g>
									</g>
									</g>
									<g class="topgroup-icon" xmlns="http://www.w3.org/2000/svg">
										<g transform="matrix(0.9999969601631165,0,0,0.9999969601631165,1007.1383056640625,599.99951171875)" opacity="1">
											<g transform="matrix(1,0,0,1,0,0)">
												<path fill="#FFFFFF" d="M-889.974-267.995h-0.002 M-909.306-250.011h0.056v0.005c0.189,0.021,0.372,0.069,0.543,0.146     c0.288,0.108,0.697,0.499,0.882,0.952c0.185,0.455,0.161,0.878-0.064,1.164c-1.298,1.658-2.819,2.295-4.282,2.524     c-1.463,0.224-2.865,0-3.718-0.195c-0.301-0.07-0.674-0.199-0.964-0.345c-0.118-0.056-0.11-0.07-0.187-0.129     c0.239-0.104,0.599-0.231,1.228-0.35c1.985-0.371,2.98-0.667,3.745-1.22c0.764-0.556,1.089-1.15,2.017-2.098     C-909.653-249.956-909.447-250-909.306-250.011z M-887.857-250.238l0.008-0.002c0.267,0.201,0.564,0.361,0.885,0.483     c1.287,0.482,3.387,0.669,7.099-0.028c-0.756,0.603-1.601,1.105-2.514,1.49c-1.11,0.471-3.203,0.833-4.902,0.85     c-0.854,0.014-1.619-0.07-2.074-0.195c-0.141-0.037-0.274-0.095-0.395-0.17c-0.042-0.844,0.102-1.337,0.27-1.616     c0.136-0.238,0.362-0.424,0.636-0.521C-888.572-250.056-888.25-250.109-887.857-250.238z M-911.551-268.029     c-0.151-0.021-0.301-0.032-0.441-0.032l-0.004,0.01c-0.277-0.013-0.553,0.021-0.817,0.098c-0.232,0.075-0.469,0.211-0.509,0.474     c-0.017,0.149,0.022,0.301,0.109,0.429c0.084,0.146,0.19,0.28,0.315,0.398c0.294,0.294,0.689,0.488,1.119,0.554     c0.422,0.046,0.848-0.051,1.194-0.274c0.144-0.088,0.271-0.194,0.38-0.316c0.105-0.104,0.175-0.233,0.2-0.373     c0.009-0.073,0-0.149-0.024-0.22c-0.024-0.071-0.065-0.137-0.119-0.193c-0.101-0.104-0.22-0.192-0.355-0.257     C-910.78-267.878-911.143-267.978-911.551-268.029z M-891.021-268.468h-0.133v-0.008c-0.136,0.003-0.28,0.013-0.426,0.032     c-0.392,0.054-0.739,0.15-0.994,0.281c-0.119,0.054-0.225,0.128-0.313,0.219c-0.041,0.041-0.072,0.091-0.091,0.145     c-0.019,0.054-0.026,0.109-0.021,0.166c0.024,0.114,0.081,0.222,0.167,0.309c0.1,0.11,0.216,0.206,0.347,0.286     c0.318,0.203,0.708,0.292,1.092,0.249c0.397-0.062,0.759-0.243,1.029-0.514c0.116-0.108,0.215-0.231,0.293-0.363     c0.066-0.1,0.098-0.213,0.093-0.328l0.002-0.02c-0.01-0.055-0.034-0.106-0.068-0.153c-0.035-0.047-0.08-0.084-0.131-0.114     c-0.101-0.061-0.224-0.104-0.368-0.133C-890.682-268.446-890.846-268.463-891.021-268.468z M-913.893-268.784     c0.538-0.115,1.088-0.176,1.642-0.18c0.476-0.01,0.948,0.06,1.396,0.204c0.8,0.281,1.381,0.781,1.674,2.019     c1.793,7.557-0.335,9.495-1.418,12.149c-0.374,0.91-0.747,1.773-0.972,2.626c-3.885-0.005-7.192-3.442-6.555-7.592     c0.292-1.91,0.33-3.674,0.297-5.058c-0.032-1.264-0.108-2.123-0.125-2.478l0.058-0.049c0.292-0.208,0.603-0.394,0.93-0.553     C-915.999-268.18-914.965-268.546-913.893-268.784z M-893.666-268.241c0.532-0.555,1.548-0.98,3.357-1.002     c0.66,0,1.318,0.039,1.973,0.116c-0.041,1.598-0.488,2.942-0.56,5.008c-0.064,1.766,0.37,3.512,0.464,5.218     c0.072,1.378-0.054,2.7-0.754,4.048c-0.166-0.267-0.328-0.554-0.474-0.878c-0.161-0.353-0.421-0.767-0.779-1.348     c-0.353-0.58-0.793-1.293-1.247-2.088c-0.906-1.585-1.871-3.491-2.337-5.198C-894.493-266.068-894.421-267.452-893.666-268.241z      M-924.361-282.034c0.336-0.018,0.674-0.026,1.014-0.026c0.337,0,0.672,0.007,1.009,0.022c3.145,0.141,6.05,0.889,7.686,1.38     c-1.665,1.485-2.775,3.318-3.522,5.125c-1.045,2.626-1.58,5.402-1.578,8.195l0.003,0.015v0.012c-0.001,0.016-0.001,0.03,0,0.047     c0,0.536,0.1,1.396,0.132,2.687c0.032,1.325-0.004,3.002-0.279,4.795c-0.229,1.411-0.063,2.849,0.481,4.185     c0.543,1.337,1.446,2.525,2.628,3.46c-1.665,1.609-3.273,3.268-4.823,4.97c-0.851,0.93-1.546,1.234-2.124,1.259     c-0.575,0.021-1.21-0.238-1.94-0.882c-1.45-1.286-2.976-4.004-4.236-7.128c-1.257-3.123-2.306-6.66-3.043-9.664     c-0.741-3.004-1.173-5.533-1.224-6.437c-0.261-4.768,0.938-7.649,2.761-9.406C-929.596-281.183-927.052-281.893-924.361-282.034z      M-912.771-280.015c1.714-1.299,3.973-2.164,7.124-2.172v0.005h0.306c6.7,0.098,11.035,3.19,13.713,6.31     c1.126,1.309,2.06,2.748,2.773,4.281c0.158,0.339,0.214,0.55,0.307,0.806c-3.159-0.292-5.265,0.228-6.464,1.48     c-1.354,1.409-1.276,3.409-0.75,5.341c0.531,1.935,1.552,3.92,2.49,5.559c0.469,0.816,0.917,1.545,1.271,2.127     c0.242,0.385,0.471,0.775,0.684,1.173c0.447,0.963,1.046,1.86,1.775,2.667c0.226,0.256,0.442,0.52,0.648,0.789     c-0.194,0.051-0.432,0.121-0.686,0.226c-0.505,0.208-1.092,0.594-1.471,1.227c-0.368,0.613-0.538,1.418-0.484,2.467     c-0.117,1.391-1.087,8.78-1.57,11.328c-0.322,1.702-0.826,2.813-1.669,3.612c-0.844,0.798-2.107,1.354-4.154,1.754     c-2.362,0.461-3.653,0-4.555-0.688c-0.899-0.692-1.398-1.708-1.739-2.485c-0.105-0.233-0.267-0.923-0.382-1.827     c-0.114-0.907-0.205-2.058-0.267-3.364c-0.124-3.022-0.135-6.049-0.035-9.072c0.005-0.103-0.013-0.209-0.053-0.309     c-0.037-0.239-0.102-0.473-0.189-0.688c-0.339-0.824-0.966-1.549-1.876-1.893c-0.298-0.116-0.799-0.312-1.439-0.262     c-0.114,0.009-0.229,0.038-0.344,0.063c0.244-0.834,0.54-1.655,0.882-2.459c0.907-2.219,3.365-5.157,1.49-13.062     c-0.393-1.646-1.471-2.73-2.777-3.19c-1.305-0.462-2.747-0.374-4.084-0.096c-1.337,0.281-2.587,0.767-3.539,1.252l-0.035,0.021     c0.126-1.467,0.442-3.626,1.368-5.859C-915.723-276.835-914.537-278.672-912.771-280.015z M-893.272-282.808h0.389     c4.056,0.028,8.896,1.087,12.471,5.251c0.457,0.528,0.813,1.796,0.786,3.543c-0.031,1.748-0.396,3.954-1.083,6.389     c-1.285,4.521-3.693,9.822-7.036,14.616c-0.101-0.116-0.197-0.232-0.303-0.35c1.263-1.91,1.497-3.855,1.401-5.629     c-0.101-1.885-0.514-3.613-0.46-5.083c0.069-2.028,0.647-3.47,0.567-5.596c0.002-0.008,0.017-0.024,0.017-0.032     c0.043-0.163,0.038-0.257,0.031-0.35c-0.013-0.185-0.05-0.361-0.106-0.573c-0.112-0.42-0.31-0.96-0.602-1.602     c-0.775-1.667-1.79-3.234-3.017-4.66c-1.767-2.058-4.275-4.119-7.595-5.459C-896.32-282.634-894.8-282.789-893.272-282.808z      M-879.001-278.556c-4.102-4.773-9.816-5.918-14.287-5.879l-0.003,0.006c-1.859,0.02-3.71,0.225-5.519,0.608     c-0.666,0.141-1.324,0.313-1.969,0.52l-0.053,0.022c-1.466-0.332-2.97-0.511-4.48-0.529c-3.182-0.049-5.73,0.712-7.708,1.937     c-1.026-0.365-6.099-2.061-11.442-1.781c-2.977,0.155-6.03,0.968-8.259,3.116c-2.225,2.147-3.522,5.553-3.242,10.605     c0.063,1.188,0.508,3.654,1.262,6.712c0.753,3.059,1.809,6.647,3.111,9.871c1.303,3.222,2.796,6.073,4.67,7.73     c0.938,0.828,2.042,1.39,3.262,1.341c1.22-0.046,2.378-0.702,3.425-1.842c2.489-2.729,4.53-4.694,4.93-5.077     c1.089,0.539,2.305,0.836,3.544,0.869c0.002,0.033,0.004,0.066,0.008,0.099c-0.693,0.748-1.083,1.257-1.431,1.51     c-0.407,0.295-1.076,0.539-2.992,0.897c-1.053,0.199-1.751,0.418-2.279,0.808c-0.285,0.202-0.49,0.485-0.581,0.804     c-0.071,0.314-0.017,0.644,0.152,0.925c0.287,0.494,0.719,0.743,1.172,0.965c0.438,0.214,0.903,0.377,1.385,0.487     c0.979,0.224,2.618,0.502,4.454,0.217c1.545-0.239,2.981-0.88,4.136-1.844c-0.029,2.042-0.002,4.083,0.081,6.123     c0.061,1.333,0.151,2.515,0.274,3.48c0.123,0.967,0.25,1.688,0.496,2.247c0.357,0.808,0.951,2.128,2.25,3.124     c1.3,0.997,3.317,1.579,6.083,1.038c2.232-0.437,3.893-1.106,5.065-2.218c1.175-1.111,1.791-2.597,2.143-4.466     c0.439-2.318,1.114-7.397,1.407-9.971l0.047,0.018c0.76,0.216,1.656,0.284,2.625,0.275c1.935-0.021,4.117-0.357,5.64-1.003     c1.718-0.727,3.058-1.606,3.738-2.536c0.191-0.24,0.311-0.521,0.347-0.814c0.011-0.195-0.026-0.39-0.112-0.568     c-0.084-0.179-0.213-0.337-0.377-0.463c-0.67-0.467-1.319-0.352-2.203-0.183c-3.515,0.657-5.276,0.407-6.049,0.116     c-0.149-0.053-0.291-0.124-0.422-0.208c3.702-5.129,6.329-10.845,7.721-15.746c0.716-2.532,1.108-4.842,1.143-6.771     C-877.805-275.916-878.08-277.484-879.001-278.556z M-900.505-285.009c2.385-0.632,4.857-0.962,7.341-0.979v0.008     c0.147-0.003,0.293,0,0.439,0.002c4.729,0.048,10.838,1.445,15.185,6.504c1.391,1.618,1.58,3.489,1.545,5.604     c-0.035,2.113-0.453,4.53-1.2,7.151c-1.26,4.44-3.469,9.46-6.55,14.186c1.078-0.023,2.15-0.143,3.203-0.355     c1.068-0.201,2.065-0.619,3.651,0.479c0.792,0.545,1.269,1.73,1.188,2.488c-0.08,0.757-0.373,1.194-0.639,1.56     c-1.069,1.468-2.537,2.296-4.477,3.114c-2.19,0.928-4.813,1.24-7.229,1.142h-0.053l-0.451-0.038     c-0.052,0.245-0.104,0.508-0.147,0.816c-0.168,5.702-1.02,9.219-2.912,11.67c-1.913,2.48-4.794,3.276-7.059,3.719     c-3.211,0.626-6.03-0.318-7.47-1.833c-1.439-1.513-1.804-3.226-1.937-3.558c-0.829-2.037-0.898-4.359-1.007-6.873     c-0.035-0.793-0.07-1.578-0.099-2.377c-0.789,0.316-1.58,0.539-2.332,0.654c-2.206,0.342-4.091,0.007-5.19-0.244     c-0.613-0.135-1.205-0.342-1.812-0.645c-0.483-0.24-1.013-0.5-1.509-1.095c-1.019,0.771-2.199,1.291-3.504,1.34     c-1.86,0.07-3.438-0.782-4.584-1.801c-2.294-2.028-3.762-5.014-5.103-8.337c-1.34-3.324-2.415-6.966-3.179-10.077     c-0.766-3.112-1.225-5.515-1.306-6.988c-0.292-5.339,1.098-9.264,3.728-11.8c2.638-2.535,6.198-3.438,9.46-3.601     c4.685-0.233,9.13,0.935,11.273,1.611c2.174-1.155,4.87-1.85,8.009-1.8c1.529,0.023,3.052,0.157,4.557,0.399L-900.505-285.009z"/>
											</g>
										</g>
										<g transform="matrix(0.9999969601631165,0,0,0.9999969601631165,1010.7953491210938,668.455322265625)">
											<g transform="matrix(1,0,0,1,0,0)">
												<path fill="#FFFFFF" d="M-866.995-281.563v11.499h8.027v-1.511h-6.151v-9.988H-866.995z M-875.478-271.444     c-2.508,0-4.348-1.856-4.348-4.369s1.84-4.371,4.348-4.371c2.525,0,4.365,1.858,4.365,4.371S-872.953-271.444-875.478-271.444z      M-871.456-266.712v-1.331h-1.588c-1.101,0-1.569-0.328-1.569-1.33v-0.607c3.157-0.362,5.412-2.728,5.412-5.832     c0-3.385-2.669-5.882-6.259-5.882c-3.608,0-6.278,2.497-6.278,5.882c0,3.121,2.273,5.486,5.448,5.832v0.656     c0,1.84,1.028,2.612,3.193,2.612H-871.456z M-892.716-273.875c0.146,2.383,1.985,3.944,4.817,3.944     c2.706,0,4.672-1.233,4.672-3.336c0-4.387-7.216-2.53-7.216-5.323c0-0.97,0.92-1.594,2.453-1.594     c1.534,0,2.543,0.772,2.689,1.955h1.803c-0.144-2.103-1.929-3.466-4.492-3.466c-2.543,0-4.311,1.265-4.311,3.104     c0,4.24,7.143,2.579,7.143,5.339c0,1.249-1.137,1.808-2.742,1.808c-1.768,0-2.85-0.953-2.995-2.432H-892.716z M-895.829-275.09     h-5.159c0.271-1.381,1.191-2.104,2.616-2.104C-896.875-277.194-895.937-276.356-895.829-275.09z M-902.755-274.252     c0,2.301,1.75,4.321,4.563,4.321c2.237,0,3.878-1.118,4.203-2.826h-1.75c-0.252,0.936-1.119,1.461-2.454,1.461     c-1.587,0-2.706-1.067-2.85-2.628h6.944c0.019-0.148,0.036-0.41,0.036-0.624c0-2.103-1.497-3.927-4.311-3.927     C-901.168-278.475-902.755-276.57-902.755-274.252z M-906.84-273.81c0-1.807,0.541-3.153,2.201-3.153h1.317v-1.38h-1.101     c-1.281,0-2.002,0.492-2.417,1.594v-1.594h-1.75v8.279h1.75V-273.81z M-915.56-271.328c-1.696,0-2.797-1.134-2.797-2.876     c0-1.74,1.101-2.874,2.797-2.874c1.695,0,2.795,1.134,2.795,2.874C-912.765-272.462-913.865-271.328-915.56-271.328z      M-918.916-268.043v1.331h4.383c2.002,0,3.374-1.216,3.374-2.957v-8.674h-1.75v1.101c-0.541-0.723-1.678-1.232-2.868-1.232     c-2.778,0-4.347,1.807-4.347,4.271c0,2.466,1.569,4.273,4.366,4.273c1.262,0,2.417-0.479,2.85-1.183v1.346     c0,1.002-0.758,1.725-1.804,1.725H-918.916z M-923.874-280.938h-1.75v2.595h-1.858v1.38h1.858v4.189     c0,1.692,1.19,2.71,3.031,2.71h1.406v-1.38h-1.28c-0.866,0-1.408-0.492-1.408-1.379v-4.141h2.688v-1.38h-2.688V-280.938z      M-935.417-272.757c0.125,1.74,1.532,2.826,3.68,2.826c2.057,0,3.41-0.971,3.41-2.482c0-3.778-5.214-1.675-5.214-3.729     c0-0.642,0.632-1.067,1.588-1.067c0.776,0,1.768,0.378,1.893,1.33h1.66c-0.108-1.561-1.498-2.596-3.553-2.596     c-1.894,0-3.229,0.954-3.229,2.383c0,3.531,5.158,1.511,5.158,3.712c0,0.608-0.685,1.117-1.713,1.117     c-1.191,0-1.93-0.542-2.038-1.494H-935.417z M-941.366-271.328c-1.731,0-2.904-1.182-2.904-2.876     c0-1.691,1.173-2.874,2.904-2.874c1.714,0,2.886,1.183,2.886,2.874C-938.48-272.51-939.652-271.328-941.366-271.328z      M-946.056-274.204c0,2.481,1.966,4.273,4.69,4.273s4.672-1.792,4.672-4.273c0-2.479-1.948-4.271-4.672-4.271     S-946.056-276.683-946.056-274.204z M-950.945-276.109h-2.959v-3.977h2.959c1.624,0,2.254,0.938,2.254,1.988     S-949.321-276.109-950.945-276.109z M-955.779-281.563v11.499h1.875v-4.566h3.013c2.543,0,4.077-1.429,4.077-3.467     c0-2.036-1.533-3.466-4.077-3.466H-955.779z"/>
											</g>
										</g>
									</g>
									<g class="bottomgroup-icon" xmlns="http://www.w3.org/2000/svg">
										<g transform="matrix(0.9999969601631165,0,0,0.9999969601631165,1217.9996337890625,242.50059509277344)">
											<g transform="matrix(1,0,0,1,0,0)">
												<path fill="#FFFFFF" d="M-944.391-169.694v-21.133l-10.14,4.383c-3.398,1.469-5.098,2.203-6.341,3.336     c-1.101,1.001-1.938,2.222-2.453,3.569c-0.582,1.524-0.582,3.261-0.582,6.736v3.109c0,1.24,0,1.859,0.26,2.333     c0.229,0.416,0.594,0.755,1.044,0.967c0.51,0.242,1.18,0.242,2.517,0.242h11.874c1.337,0,2.006,0,2.516-0.242     c0.45-0.212,0.816-0.551,1.045-0.967C-944.391-167.835-944.391-168.454-944.391-169.694z M-926.177-215.257     c-0.511-0.242-1.18-0.242-2.518-0.242h-11.875c-1.337,0-2.006,0-2.517,0.242c-0.448,0.212-0.814,0.551-1.044,0.967     c-0.26,0.474-0.26,1.093-0.26,2.333v21.131l10.142-4.382c3.396-1.469,5.095-2.203,6.34-3.336     c1.099-1.001,1.938-2.222,2.452-3.569c0.584-1.524,0.584-3.261,0.584-6.735v-3.109c0-1.239,0-1.859-0.262-2.333     C-925.364-214.706-925.728-215.045-926.177-215.257z M-965.216-215.257c-0.512-0.242-1.179-0.242-2.518-0.242h-11.874     c-1.338,0-2.005,0-2.517,0.242c-0.45,0.212-0.813,0.551-1.043,0.967c-0.261,0.474-0.261,1.093-0.261,2.333v3.106     c0,3.475,0,5.212,0.583,6.735c0.515,1.347,1.354,2.568,2.452,3.569c1.244,1.133,2.943,1.867,6.341,3.335l4.704,2.033     c1.807,0.781,2.712,1.171,3.441,1.059c0.639-0.1,1.208-0.435,1.574-0.929c0.421-0.567,0.421-1.491,0.421-3.338v-15.571     c0-1.239,0-1.859-0.262-2.333C-964.401-214.706-964.766-215.045-965.216-215.257z"/>
											</g>
										</g>
										<g transform="matrix(0.9999969601631165,0,0,0.9999969601631165,1217.5467529296875,304.37939453125)" opacity="1">

											<g transform="matrix(1,0,0,1,0,0)">
												<path fill="#FFFFFF" d="M-911.205-209.749h-2.56v-3.175h2.542c1.341,0,2.052,0.55,2.052,1.588     C-909.171-210.283-909.882-209.749-911.205-209.749z M-911.137-204.482h-2.628v-3.792h2.628c1.66,0,2.474,0.665,2.474,1.896     C-908.663-205.146-909.477-204.482-911.137-204.482z M-915.511-214.333v11.342h4.61c2.458,0,3.983-1.264,3.983-3.322     c0-1.555-0.898-2.479-2.067-2.884c0.763-0.324,1.525-1.167,1.525-2.219c0-1.864-1.44-2.917-3.662-2.917H-915.511z      M-923.687-204.482h-1.78v-8.361h1.78c2.204,0,4.271,1.183,4.271,4.18C-919.415-205.665-921.483-204.482-923.687-204.482z      M-927.231-214.333v11.342h3.645c3.306,0,5.983-1.977,5.983-5.671c0-3.694-2.678-5.671-5.983-5.671H-927.231z M-930.834-207.949     h-4.848c0.255-1.361,1.119-2.074,2.457-2.074C-931.818-210.023-930.936-209.197-930.834-207.949z M-937.343-207.123     c0,2.268,1.644,4.261,4.287,4.261c2.103,0,3.645-1.102,3.951-2.787h-1.645c-0.238,0.924-1.051,1.442-2.307,1.442     c-1.491,0-2.542-1.053-2.677-2.592h6.526c0.016-0.146,0.033-0.405,0.033-0.617c0-2.073-1.407-3.872-4.052-3.872     C-935.852-211.288-937.343-209.408-937.343-207.123z M-940.817-213.718h-1.644v2.561h-1.746v1.36h1.746v4.132     c0,1.669,1.118,2.674,2.847,2.674h1.323v-1.361h-1.204c-0.813,0-1.322-0.486-1.322-1.361v-4.083h2.526v-1.36h-2.526V-213.718z      M-949.393-202.911l-1.136,3.225h1.575l1.577-4.407l2.711-7.064h-1.712l-2.237,6.125l-2.254-6.125h-1.695L-949.393-202.911z      M-957.593-204.239c-1.593,0-2.627-1.134-2.627-2.836c0-1.701,1.034-2.835,2.627-2.835c1.576,0,2.627,1.134,2.627,2.835     C-954.966-205.373-956.017-204.239-957.593-204.239z M-960.084-204.207c0.492,0.81,1.543,1.345,2.678,1.345     c2.627,0,4.103-1.782,4.103-4.213c0-2.43-1.476-4.213-4.085-4.213c-1.17,0-2.203,0.535-2.695,1.329v-4.617h-1.644v11.585h1.644     V-204.207z M-968.115-204.109c-0.951,0-1.595-0.502-1.595-1.248c0-0.859,0.729-1.41,1.848-1.41h2.204v0.194     C-965.658-205.065-966.558-204.109-968.115-204.109z M-971.337-205.325c0,1.458,1.152,2.463,2.897,2.463     c1.29,0,2.374-0.567,2.781-1.458v1.329h1.643v-5.266c0-1.815-1.456-3.03-3.661-3.03c-2.017,0-3.543,1.199-3.677,2.804h1.525     c0.051-0.827,0.914-1.54,2.101-1.54c1.322,0,2.069,0.681,2.069,1.669c0,0.292-0.188,0.486-0.577,0.486h-1.779     C-970.032-207.868-971.337-206.896-971.337-205.325z M-977.498-204.239c-1.593,0-2.627-1.118-2.627-2.836     c0-1.717,1.034-2.835,2.627-2.835c1.595,0,2.628,1.118,2.628,2.835C-974.87-205.357-975.903-204.239-977.498-204.239z      M-980.651-200.999v1.313h4.119c1.881,0,3.17-1.199,3.17-2.917v-8.555h-1.645v1.085c-0.509-0.712-1.576-1.215-2.695-1.215     c-2.609,0-4.084,1.783-4.084,4.213c0,2.431,1.475,4.213,4.102,4.213c1.186,0,2.271-0.47,2.678-1.167v1.328     c0,0.989-0.712,1.702-1.695,1.702H-980.651z M-983.634-202.991v-8.166h-1.644v4.423c0,1.426-0.967,2.463-2.306,2.463     c-1.202,0-1.999-0.875-1.999-2.171v-4.715h-1.645v5.022c0,1.944,1.254,3.273,3.187,3.273c1.271,0,2.306-0.551,2.763-1.572v1.442     H-983.634z M-997.025-207.723v4.731h1.764v-4.731l4.169-6.611h-1.966l-3.085,5.007l-3.068-5.007h-1.966L-997.025-207.723z"/>
											</g>
										</g>
									</g>
									<g><g transform="matrix(1.0151419639587402,0,0,1.0151419639587402,1216.4241943359375,244.13082885742188)" opacity="1" style="display: block;"><g opacity="1" transform="matrix(1,0,0,1,0,0)"><path fill="rgb(255,250,249)" fill-opacity="1" d=" M-14.362000465393066,-33.172000885009766 C-15.024999618530273,-33.5 -15.892000198364258,-33.5 -17.628000259399414,-33.5 C-17.628000259399414,-33.5 -33.04100036621094,-33.5 -33.04100036621094,-33.5 C-34.777000427246094,-33.5 -35.64500045776367,-33.5 -36.30799865722656,-33.172000885009766 C-36.89099884033203,-32.88399887084961 -37.3650016784668,-32.42399978637695 -37.6619987487793,-31.858999252319336 C-38,-31.215999603271484 -38,-30.375 -38,-28.691999435424805 C-38,-28.691999435424805 -38,-24.475000381469727 -38,-24.475000381469727 C-38,-19.756999969482422 -37.99961853027344,-17.27275276184082 -37.27238464355469,-15.195876121520996 C-36.62980270385742,-13.349830627441406 -35.53791046142578,-11.704054832458496 -34.0687141418457,-10.395535469055176 C-32.4312744140625,-8.915826797485352 -30.228862762451172,-7.957561016082764 -25.8272705078125,-6.039431095123291 C-25.8272705078125,-6.039431095123291 -19.726511001586914,-3.3839797973632812 -19.726511001586914,-3.3839797973632812 C-17.417924880981445,-2.3638172149658203 -16.236324310302734,-1.8533638715744019 -15.28683090209961,-2.0015041828155518 C-14.415900230407715,-2.1313676834106445 -13.65141773223877,-2.614638090133667 -13.19352912902832,-3.3474409580230713 C-12.669266700744629,-4.1355414390563965 -12.668505668640137,-5.3698320388793945 -12.668505668640137,-7.87883186340332 C-12.668505668640137,-7.87883186340332 -12.668999671936035,-28.691999435424805 -12.668999671936035,-28.691999435424805 C-12.668999671936035,-30.375 -12.668999671936035,-31.215999603271484 -13.006999969482422,-31.858999252319336 C-13.303999900817871,-32.42399978637695 -13.779000282287598,-32.88399887084961 -14.362000465393066,-33.172000885009766z"></path></g></g><g transform="matrix(1.0129302740097046,0,0,1.0129302740097046,1217.2939453125,243.16357421875)" opacity="1" style="display: block;"><g opacity="1" transform="matrix(1,0,0,1,0,0)"><path fill="rgb(255,250,249)" fill-opacity="1" d=" M12.666999816894531,28.691999435424805 C12.666999816894531,28.691999435424805 12.666999816894531,0.3357773721218109 12.666999816894531,0.29963940382003784 C12.666999816894531,0.24920479953289032 -0.16464655101299286,6.010658264160156 -0.2228991985321045,6.010658264160156 C-4.581671714782715,7.950150489807129 -7.102099895477295,8.919377326965332 -8.732938766479492,10.415635108947754 C-10.18746566772461,11.738786697387695 -11.278789520263672,13.390674591064453 -11.928502082824707,15.22071361541748 C-12.663808822631836,17.297203063964844 -12.663999557495117,19.75200080871582 -12.663999557495117,24.469999313354492 C-12.663999557495117,24.469999313354492 -12.663999557495117,28.691999435424805 -12.663999557495117,28.691999435424805 C-12.663999557495117,30.375 -12.663999557495117,31.215999603271484 -12.326000213623047,31.858999252319336 C-12.029000282287598,32.42399978637695 -11.555000305175781,32.88399887084961 -10.972000122070312,33.172000885009766 C-10.309000015258789,33.5 -9.440999984741211,33.5 -7.704999923706055,33.5 C-7.704999923706055,33.5 7.708000183105469,33.5 7.708000183105469,33.5 C9.444000244140625,33.5 10.310999870300293,33.5 10.973999977111816,33.172000885009766 C11.557000160217285,32.88399887084961 12.031999588012695,32.42399978637695 12.329000473022461,31.858999252319336 C12.666999816894531,31.215999603271484 12.666999816894531,30.375 12.666999816894531,28.691999435424805z"></path></g></g><g transform="matrix(1.0111699104309082,0,0,1.0111699104309082,1217.8360595703125,243.70309448242188)" opacity="1" style="display: block;"><g opacity="1" transform="matrix(1,0,0,1,0,0)"><path fill="rgb(255,250,249)" fill-opacity="1" d=" M36.30799865722656,-33.172000885009766 C35.64500045776367,-33.5 34.777000427246094,-33.5 33.04100036621094,-33.5 C33.04100036621094,-33.5 17.628000259399414,-33.5 17.628000259399414,-33.5 C15.892000198364258,-33.5 15.024999618530273,-33.5 14.362000465393066,-33.172000885009766 C13.779000282287598,-32.88399887084961 13.303999900817871,-32.42399978637695 13.006999969482422,-31.858999252319336 C12.668999671936035,-31.215999603271484 12.668999671936035,-30.375 12.668999671936035,-28.691999435424805 C12.668999671936035,-28.691999435424805 12.669061660766602,-0.2593376636505127 12.669061660766602,-0.23386630415916443 C12.669061660766602,-0.1954842358827591 25.590309143066406,-5.997753620147705 25.625354766845703,-5.997753620147705 C29.996870040893555,-7.950695037841797 32.42596435546875,-8.927412033081055 34.07748031616211,-10.433351516723633 C35.515682220458984,-11.765121459960938 36.605220794677734,-13.40719223022461 37.259361267089844,-15.25577449798584 C37.99971008300781,-17.327512741088867 38,-19.753999710083008 38,-24.472000122070312 C38,-24.472000122070312 38,-28.691999435424805 38,-28.691999435424805 C38,-30.375 38,-31.215999603271484 37.6619987487793,-31.858999252319336 C37.3650016784668,-32.42399978637695 36.89099884033203,-32.88399887084961 36.30799865722656,-33.172000885009766z"></path></g></g></g>
								</svg>