<svg width="316" height="275" viewBox="0 0 316 275" fill="none" xmlns="http://www.w3.org/2000/svg">
<path d="M287.015 56H273.251C272.008 56 271 54.8965 271 53.5352V38.4648C271 37.1035 272.008 36 273.251 36H287.015C288.258 36 289.266 37.1035 289.266 38.4648V53.5352C289.266 54.8965 288.258 56 287.015 56Z" fill="#2AEBF8"/>
<path d="M63.6163 254H48.4762C47.1086 254 46 252.786 46 251.289V234.711C46 233.214 47.1086 232 48.4762 232H63.6163C64.9839 232 66.0925 233.214 66.0925 234.711V251.289C66.0925 252.786 64.9839 254 63.6163 254Z" fill="#735AF5"/>
<path opacity="0.05" d="M30.6163 121H15.4762C14.1086 121 13 119.786 13 118.289V101.711C13 100.214 14.1086 99 15.4762 99H30.6163C31.9839 99 33.0925 100.214 33.0925 101.711V118.289C33.0925 119.786 31.9839 121 30.6163 121Z" fill="white"/>
<path opacity="0.1" d="M297.671 275H274.96C272.909 275 271.246 273.179 271.246 270.933V246.067C271.246 243.821 272.909 242 274.96 242H297.671C299.722 242 301.385 243.821 301.385 246.067V270.933C301.385 273.179 299.722 275 297.671 275Z" fill="white"/>
<path opacity="0.1" d="M115.22 242H139.111C141.266 242 143.017 240.13 143.017 237.829V225.398C143.017 222.522 141.628 219.849 139.345 218.328L115.376 202.332C113.093 200.81 111.704 198.138 111.704 195.261V162.171C111.704 159.87 109.953 158 107.797 158H83.9062C81.7511 158 80 159.87 80 162.171V174.602C80 177.478 81.3895 180.151 83.6723 181.672L107.641 197.668C109.924 199.19 111.314 201.862 111.314 204.739V237.829C111.314 240.13 113.065 242 115.22 242Z" fill="white"/>
<path d="M242.56 220H223.17C221.421 220 220 218.486 220 216.623V206.561C220 204.232 221.128 202.068 222.98 200.837L242.434 187.888C244.286 186.656 245.414 184.492 245.414 182.164V155.377C245.414 153.514 246.835 152 248.584 152H267.974C269.723 152 271.145 153.514 271.145 155.377V165.439C271.145 167.768 270.017 169.932 268.164 171.163L248.711 184.112C246.858 185.344 245.73 187.508 245.73 189.836V216.623C245.73 218.486 244.309 220 242.56 220Z" fill="#50D976"/>
</svg>
