<svg xmlns="http://www.w3.org/2000/svg" fill="none" viewBox="0 0 309 264">
  <path fill="#2AEBF8" d="M206.5 22h-15a2.5 2.5 0 0 1-2.5-2.5v-15c0-1.4 1.1-2.5 2.5-2.5h15c1.4 0 2.5 1.1 2.5 2.5v15c0 1.4-1.1 2.5-2.5 2.5Z"/>
  <path fill="#735AF5" d="M19.3 243H2.7a2.7 2.7 0 0 1-2.7-2.7v-16.6c0-1.5 1.2-2.7 2.7-2.7h16.6c1.5 0 2.7 1.2 2.7 2.7v16.6c0 1.5-1.2 2.7-2.7 2.7Z"/>
  <path fill="#fff" d="M93.3 22H76.7a2.7 2.7 0 0 1-2.7-2.7V2.7C74 1.2 75.2 0 76.7 0h16.6C94.8 0 96 1.2 96 2.7v16.6c0 1.5-1.2 2.7-2.7 2.7ZM305 264h-25a4 4 0 0 1-4-4v-25a4 4 0 0 1 4-4h25a4 4 0 0 1 4 4v25a4 4 0 0 1-4 4ZM69.6 243h26.1c2.4 0 4.3-1.9 4.3-4.2v-12.4c0-2.9-1.5-5.6-4-7l-26.3-16a8.3 8.3 0 0 1-4-7.1v-33.1c0-2.3-1.9-4.2-4.3-4.2H35.3a4.2 4.2 0 0 0-4.3 4.2v12.4c0 2.9 1.5 5.6 4 7l26.3 16c2.5 1.6 4 4.3 4 7.1v33.1c0 2.3 1.9 4.2 4.3 4.2Z" opacity=".1"/>
  <path fill="#50D976" d="M273.7 193h-21.2c-2 0-3.5-1.5-3.5-3.4v-10c0-2.4 1.2-4.5 3.3-5.8l21.3-13c2-1.1 3.2-3.3 3.2-5.6v-26.8c0-1.9 1.6-3.4 3.5-3.4h21.2c2 0 3.5 1.5 3.5 3.4v10c0 2.4-1.2 4.5-3.3 5.8l-21.3 13a6.7 6.7 0 0 0-3.2 5.6v26.8c0 1.9-1.6 3.4-3.5 3.4Z"/>
</svg>