<svg width="272" height="255" viewBox="0 0 272 255" fill="none" xmlns="http://www.w3.org/2000/svg">
<path d="M242.218 56.4971H228.28C227.021 56.4971 226 55.4765 226 54.2175V40.2795C226 39.0206 227.021 38 228.28 38H242.218C243.477 38 244.497 39.0206 244.497 40.2795V54.2175C244.497 55.4765 243.477 56.4971 242.218 56.4971Z" fill="#2AEBF8"/>
<path d="M13.2612 234.914H-2.07061C-3.45547 234.914 -4.57812 233.791 -4.57812 232.406V217.074C-4.57812 215.689 -3.45547 214.567 -2.07061 214.567H13.2612C14.646 214.567 15.7687 215.689 15.7687 217.074V232.406C15.7687 233.791 14.646 234.914 13.2612 234.914Z" fill="#735AF5"/>
<path opacity="0.05" d="M63.8393 27.3467H48.5075C47.1227 27.3467 46 26.224 46 24.8392V9.50737C46 8.12251 47.1227 6.99986 48.5075 6.99986H63.8393C65.2242 6.99986 66.3468 8.12251 66.3468 9.50737V24.8392C66.3468 26.224 65.2242 27.3467 63.8393 27.3467Z" fill="white"/>
<path opacity="0.1" d="M277.439 254.335H254.441C252.364 254.335 250.68 252.651 250.68 250.574V227.576C250.68 225.499 252.364 223.815 254.441 223.815H277.439C279.516 223.815 281.2 225.499 281.2 227.576V250.574C281.2 252.651 279.516 254.335 277.439 254.335Z" fill="white"/>
<path opacity="0.1" d="M59.7595 234.914H83.9531C86.1355 234.914 87.9088 233.184 87.9088 231.056V219.559C87.9088 216.899 86.5017 214.427 84.19 213.02L59.9175 198.226C57.6058 196.819 56.1987 194.347 56.1987 191.687V161.084C56.1987 158.955 54.4255 157.226 52.243 157.226H28.0494C25.867 157.226 24.0938 158.955 24.0938 161.084V172.58C24.0938 175.24 25.5009 177.712 27.8125 179.119L52.0851 193.913C54.3967 195.32 55.8038 197.792 55.8038 200.453V231.056C55.8038 233.184 57.5771 234.914 59.7595 234.914Z" fill="white"/>
<path d="M248.554 188.67H228.918C227.147 188.67 225.708 187.27 225.708 185.547V176.241C225.708 174.087 226.85 172.086 228.726 170.947L248.426 158.971C250.302 157.832 251.444 155.831 251.444 153.677V128.903C251.444 127.18 252.883 125.78 254.654 125.78H274.29C276.061 125.78 277.5 127.18 277.5 128.903V138.21C277.5 140.364 276.358 142.364 274.482 143.504L254.782 155.48C252.906 156.619 251.764 158.62 251.764 160.773V185.547C251.764 187.27 250.325 188.67 248.554 188.67Z" fill="#50D976"/>
</svg>
