<svg width="1355" height="502" viewBox="0 0 1355 502" fill="none" xmlns="http://www.w3.org/2000/svg">
<path d="M902.289 22H885.711C884.214 22 883 20.7861 883 19.2887V2.71125C883 1.21387 884.214 0 885.711 0H902.289C903.786 0 905 1.21387 905 2.71125V19.2887C905 20.7861 903.786 22 902.289 22Z" fill="#735AF5"/>
<path opacity="0.05" d="M1104.17 69H1086.83C1085.27 69 1084 67.7861 1084 66.2887V49.7113C1084 48.2139 1085.27 47 1086.83 47H1104.17C1105.73 47 1107 48.2139 1107 49.7113V66.2887C1107 67.7861 1105.73 69 1104.17 69Z" fill="white"/>
<path opacity="0.05" d="M585.166 437H567.834C566.269 437 565 435.786 565 434.289V417.711C565 416.214 566.269 415 567.834 415H585.166C586.731 415 588 416.214 588 417.711V434.289C588 435.786 586.731 437 585.166 437Z" fill="white"/>
<path opacity="0.05" d="M741.056 333H716.944C714.766 333 713 331.234 713 329.056V304.944C713 302.766 714.766 301 716.944 301H741.056C743.234 301 745 302.766 745 304.944V329.056C745 331.234 743.234 333 741.056 333Z" fill="white"/>
<path opacity="0.05" d="M342.056 501H317.944C315.766 501 314 499.234 314 497.056V472.944C314 470.766 315.766 469 317.944 469H342.056C344.234 469 346 470.766 346 472.944V497.056C346 499.234 344.234 501 342.056 501Z" fill="white"/>
<path d="M17.5352 359H2.46477C1.10352 359 0 357.896 0 356.535V341.465C0 340.104 1.10352 339 2.46477 339H17.5352C18.8965 339 20 340.104 20 341.465V356.535C20 357.896 18.8965 359 17.5352 359Z" fill="#735AF5"/>
<path opacity="0.05" d="M159.056 69H134.944C132.766 69 131 67.2344 131 65.0564V40.9436C131 38.7656 132.766 37 134.944 37H159.056C161.234 37 163 38.7656 163 40.9436V65.0564C163 67.2344 161.234 69 159.056 69Z" fill="white"/>
<path opacity="0.05" d="M1248.05 382L1278.95 382C1281.74 382 1284 384.262 1284 387.053L1284 417.947C1284 420.738 1281.74 423 1278.95 423L1248.05 423C1245.26 423 1243 420.738 1243 417.947L1243 387.053C1243 384.262 1245.26 382 1248.05 382Z" fill="#D9D9D9"/>
<path opacity="0.05" d="M662.958 80L681.042 80C682.676 80 684 81.3242 684 82.9577L684 101.042C684 102.676 682.676 104 681.042 104L662.958 104C661.324 104 660 102.676 660 101.042L660 82.9577C660 81.3242 661.324 80 662.958 80Z" fill="white"/>
</svg>
